<svg width="516" height="200" viewBox="0 0 516 200" fill="none" xmlns="http://www.w3.org/2000/svg">
<g clip-path="url(#clip0)">
<path fill-rule="evenodd" clip-rule="evenodd" d="M106.438 12.7375C104.295 12.5793 102.148 12.5001 100 12.5V0C102.457 0.00119784 104.913 0.0929267 107.362 0.275L106.438 12.7375ZM131.488 18.3625C127.481 16.8163 123.365 15.5671 119.175 14.625L121.913 2.425C126.7 3.5 131.412 4.925 135.987 6.7L131.488 18.3625ZM148.613 27.2375C146.825 26.0456 144.995 24.9199 143.125 23.8625L149.288 12.9875C153.561 15.4092 157.652 18.1415 161.525 21.1625L153.838 31.025C152.143 29.7029 150.4 28.4437 148.613 27.25V27.2375ZM171.537 49.6125C169.065 46.0997 166.337 42.774 163.375 39.6625L172.425 31.0375C175.8 34.6 178.925 38.4125 181.763 42.4125L171.537 49.6125ZM180.838 66.5125C180.017 64.5307 179.125 62.5794 178.163 60.6625L189.325 55.0375C191.533 59.4261 193.413 63.9718 194.95 68.6375L183.075 72.55C182.403 70.5108 181.657 68.497 180.838 66.5125ZM187.463 97.85C187.361 93.5542 186.944 89.2718 186.213 85.0375L198.525 82.9125C199.363 87.7375 199.85 92.6375 199.975 97.5375L187.475 97.85H187.463ZM185.825 117.075C186.238 114.95 186.575 112.838 186.838 110.7L199.25 112.238C198.65 117.114 197.689 121.94 196.375 126.675L184.325 123.337C184.9 121.275 185.4 119.188 185.825 117.075ZM173.925 146.812C176.225 143.188 178.25 139.387 180 135.462L191.425 140.525C189.425 145.025 187.113 149.35 184.488 153.5L173.925 146.812ZM161.875 161.875C163.4 160.35 164.863 158.775 166.25 157.15L175.725 165.312C174.12 167.173 172.449 168.974 170.713 170.712L161.875 161.875Z" fill="#FECA57"/>
<path fill-rule="evenodd" clip-rule="evenodd" d="M100 12.5C85.611 12.501 71.4443 16.0506 58.7547 22.8342C46.0651 29.6179 35.2443 39.4263 27.2507 51.3906C19.2571 63.355 14.3374 77.106 12.9274 91.4258C11.5174 105.746 13.6606 120.192 19.1672 133.486C24.6738 146.779 33.3738 158.51 44.4966 167.638C55.6194 176.766 68.8217 183.011 82.9342 185.818C97.0466 188.626 111.634 187.91 125.403 183.733C139.173 179.557 151.7 172.049 161.875 161.875L170.712 170.712C159.084 182.347 144.766 190.934 129.025 195.712C113.285 200.491 96.6096 201.313 80.4758 198.106C64.342 194.899 49.2482 187.762 36.5318 177.328C23.8155 166.893 13.8692 153.483 7.57416 138.286C1.27915 123.089 -1.17019 106.573 0.443161 90.2034C2.05651 73.8332 7.68273 58.1138 16.8233 44.4377C25.9639 30.7617 38.3367 19.5514 52.8453 11.8C67.354 4.04869 83.5505 -0.00435915 100 3.51823e-06V12.5Z" fill="#FECA57"/>
<path fill-rule="evenodd" clip-rule="evenodd" d="M93.75 37.5C95.4076 37.5 96.9973 38.1585 98.1694 39.3306C99.3415 40.5027 100 42.0924 100 43.75V108.875L140.6 132.075C141.997 132.918 143.01 134.274 143.42 135.854C143.831 137.433 143.608 139.111 142.798 140.527C141.988 141.944 140.657 142.989 139.087 143.437C137.518 143.885 135.836 143.701 134.4 142.925L90.65 117.925C89.6934 117.379 88.8982 116.589 88.3451 115.636C87.7919 114.684 87.5004 113.602 87.5 112.5V43.75C87.5 42.0924 88.1585 40.5027 89.3306 39.3306C90.5027 38.1585 92.0924 37.5 93.75 37.5Z" fill="#FECA57"/>
</g>
<g clip-path="url(#clip1)">
<path fill-rule="evenodd" clip-rule="evenodd" d="M264.438 12.7375C262.295 12.5793 260.148 12.5001 258 12.5V0C260.457 0.00119784 262.913 0.0929267 265.362 0.275L264.438 12.7375ZM289.488 18.3625C285.481 16.8163 281.365 15.5671 277.175 14.625L279.913 2.425C284.7 3.5 289.412 4.925 293.987 6.7L289.488 18.3625ZM306.613 27.2375C304.825 26.0456 302.995 24.9199 301.125 23.8625L307.288 12.9875C311.561 15.4092 315.652 18.1415 319.525 21.1625L311.838 31.025C310.143 29.7029 308.4 28.4437 306.613 27.25V27.2375ZM329.537 49.6125C327.065 46.0997 324.337 42.774 321.375 39.6625L330.425 31.0375C333.8 34.6 336.925 38.4125 339.763 42.4125L329.537 49.6125ZM338.838 66.5125C338.017 64.5307 337.125 62.5794 336.163 60.6625L347.325 55.0375C349.533 59.4261 351.413 63.9718 352.95 68.6375L341.075 72.55C340.403 70.5108 339.657 68.497 338.838 66.5125ZM345.463 97.85C345.361 93.5542 344.944 89.2718 344.213 85.0375L356.525 82.9125C357.363 87.7375 357.85 92.6375 357.975 97.5375L345.475 97.85H345.463ZM343.825 117.075C344.238 114.95 344.575 112.838 344.838 110.7L357.25 112.238C356.65 117.114 355.689 121.94 354.375 126.675L342.325 123.337C342.9 121.275 343.4 119.188 343.825 117.075ZM331.925 146.812C334.225 143.188 336.25 139.387 338 135.462L349.425 140.525C347.425 145.025 345.113 149.35 342.488 153.5L331.925 146.812ZM319.875 161.875C321.4 160.35 322.863 158.775 324.25 157.15L333.725 165.312C332.12 167.173 330.449 168.974 328.713 170.712L319.875 161.875Z" fill="#5F27CD"/>
<path fill-rule="evenodd" clip-rule="evenodd" d="M258 12.5C243.611 12.501 229.444 16.0506 216.755 22.8342C204.065 29.6179 193.244 39.4263 185.251 51.3906C177.257 63.355 172.337 77.106 170.927 91.4258C169.517 105.746 171.661 120.192 177.167 133.486C182.674 146.779 191.374 158.51 202.497 167.638C213.619 176.766 226.822 183.011 240.934 185.818C255.047 188.626 269.634 187.91 283.403 183.733C297.173 179.557 309.7 172.049 319.875 161.875L328.712 170.712C317.084 182.347 302.766 190.934 287.025 195.712C271.285 200.491 254.61 201.313 238.476 198.106C222.342 194.899 207.248 187.762 194.532 177.328C181.815 166.893 171.869 153.483 165.574 138.286C159.279 123.089 156.83 106.573 158.443 90.2034C160.057 73.8332 165.683 58.1138 174.823 44.4377C183.964 30.7617 196.337 19.5514 210.845 11.8C225.354 4.04869 241.551 -0.00435915 258 3.51823e-06V12.5Z" fill="#5F27CD"/>
<path fill-rule="evenodd" clip-rule="evenodd" d="M251.75 37.5C253.408 37.5 254.997 38.1585 256.169 39.3306C257.342 40.5027 258 42.0924 258 43.75V108.875L298.6 132.075C299.997 132.918 301.01 134.274 301.42 135.854C301.831 137.433 301.608 139.111 300.798 140.527C299.988 141.944 298.657 142.989 297.087 143.437C295.518 143.885 293.836 143.701 292.4 142.925L248.65 117.925C247.693 117.379 246.898 116.589 246.345 115.636C245.792 114.684 245.5 113.602 245.5 112.5V43.75C245.5 42.0924 246.158 40.5027 247.331 39.3306C248.503 38.1585 250.092 37.5 251.75 37.5Z" fill="#5F27CD"/>
</g>
<g clip-path="url(#clip2)">
<path fill-rule="evenodd" clip-rule="evenodd" d="M422.438 12.7375C420.295 12.5793 418.148 12.5001 416 12.5V0C418.457 0.00119784 420.913 0.0929267 423.362 0.275L422.438 12.7375ZM447.488 18.3625C443.481 16.8163 439.365 15.5671 435.175 14.625L437.913 2.425C442.7 3.5 447.412 4.925 451.987 6.7L447.488 18.3625ZM464.613 27.2375C462.825 26.0456 460.995 24.9199 459.125 23.8625L465.288 12.9875C469.561 15.4092 473.652 18.1415 477.525 21.1625L469.838 31.025C468.143 29.7029 466.4 28.4437 464.613 27.25V27.2375ZM487.537 49.6125C485.065 46.0997 482.337 42.774 479.375 39.6625L488.425 31.0375C491.8 34.6 494.925 38.4125 497.763 42.4125L487.537 49.6125ZM496.838 66.5125C496.017 64.5307 495.125 62.5794 494.163 60.6625L505.325 55.0375C507.533 59.4261 509.413 63.9718 510.95 68.6375L499.075 72.55C498.403 70.5108 497.657 68.497 496.838 66.5125ZM503.463 97.85C503.361 93.5542 502.944 89.2718 502.213 85.0375L514.525 82.9125C515.363 87.7375 515.85 92.6375 515.975 97.5375L503.475 97.85H503.463ZM501.825 117.075C502.238 114.95 502.575 112.838 502.838 110.7L515.25 112.238C514.65 117.114 513.689 121.94 512.375 126.675L500.325 123.337C500.9 121.275 501.4 119.188 501.825 117.075ZM489.925 146.812C492.225 143.188 494.25 139.387 496 135.462L507.425 140.525C505.425 145.025 503.113 149.35 500.488 153.5L489.925 146.812ZM477.875 161.875C479.4 160.35 480.863 158.775 482.25 157.15L491.725 165.312C490.12 167.173 488.449 168.974 486.713 170.712L477.875 161.875Z" fill="#EE5253"/>
<path fill-rule="evenodd" clip-rule="evenodd" d="M416 12.5C401.611 12.501 387.444 16.0506 374.755 22.8342C362.065 29.6179 351.244 39.4263 343.251 51.3906C335.257 63.355 330.337 77.106 328.927 91.4258C327.517 105.746 329.661 120.192 335.167 133.486C340.674 146.779 349.374 158.51 360.497 167.638C371.619 176.766 384.822 183.011 398.934 185.818C413.047 188.626 427.634 187.91 441.403 183.733C455.173 179.557 467.7 172.049 477.875 161.875L486.712 170.712C475.084 182.347 460.766 190.934 445.025 195.712C429.285 200.491 412.61 201.313 396.476 198.106C380.342 194.899 365.248 187.762 352.532 177.328C339.815 166.893 329.869 153.483 323.574 138.286C317.279 123.089 314.83 106.573 316.443 90.2034C318.057 73.8332 323.683 58.1138 332.823 44.4377C341.964 30.7617 354.337 19.5514 368.845 11.8C383.354 4.04869 399.551 -0.00435915 416 3.51823e-06V12.5Z" fill="#EE5253"/>
<path fill-rule="evenodd" clip-rule="evenodd" d="M409.75 37.5C411.408 37.5 412.997 38.1585 414.169 39.3306C415.342 40.5027 416 42.0924 416 43.75V108.875L456.6 132.075C457.997 132.918 459.01 134.274 459.42 135.854C459.831 137.433 459.608 139.111 458.798 140.527C457.988 141.944 456.657 142.989 455.087 143.437C453.518 143.885 451.836 143.701 450.4 142.925L406.65 117.925C405.693 117.379 404.898 116.589 404.345 115.636C403.792 114.684 403.5 113.602 403.5 112.5V43.75C403.5 42.0924 404.158 40.5027 405.331 39.3306C406.503 38.1585 408.092 37.5 409.75 37.5Z" fill="#EE5253"/>
</g>
<defs>
<clipPath id="clip0">
<rect width="200" height="200" fill="white"/>
</clipPath>
<clipPath id="clip1">
<rect width="200" height="200" fill="white" transform="translate(158)"/>
</clipPath>
<clipPath id="clip2">
<rect width="200" height="200" fill="white" transform="translate(316)"/>
</clipPath>
</defs>
</svg>
