<svg width="409" height="409" viewBox="0 0 409 409" fill="none" xmlns="http://www.w3.org/2000/svg">
<g style="mix-blend-mode:hard-light">
<g style="mix-blend-mode:lighten">
<path d="M343.365 23.8111L229.47 408.604L6.9375 247.71L343.365 23.8111Z" fill="#48DBFB" fill-opacity="0.5"/>
</g>
</g>
<path d="M377.522 10.202L196.122 368.788L6.1344 171.287L377.522 10.202Z" fill="#5F27CD" fill-opacity="0.75"/>
<path d="M398.858 0.231926L171.571 332.282L9.3468 111.909L398.858 0.231926Z" fill="#EE5253" fill-opacity="0.75"/>
<g style="mix-blend-mode:hard-light">
<g style="mix-blend-mode:hard-light">
<g style="mix-blend-mode:hard-light">
<path d="M276.627 103.999H110.06V151.045H276.627V103.999Z" fill="#FFFCDC"/>
</g>
</g>
</g>
<path d="M159.865 120.828H162.081V135.029H159.844L148.374 123.871C148.455 124.751 148.538 125.63 148.62 126.508C148.716 127.374 148.763 128.247 148.763 129.126V135.029H146.548V120.828H148.743L160.214 132.27C160.118 131.607 160.043 130.884 159.988 130.099C159.947 129.315 159.913 128.531 159.886 127.746C159.872 126.949 159.865 126.197 159.865 125.494V120.828ZM169.552 120.828H181.475V122.938H171.769V126.691H180.347V128.801H171.769V132.919H181.475V135.029H169.552V120.828ZM192.266 135.029V122.938H186.808V120.828H200.064V122.938H194.482V135.029H192.266ZM218.931 132.919C218.548 133.23 218.028 133.568 217.371 133.933C216.715 134.298 215.962 134.609 215.114 134.866C214.266 135.11 213.363 135.231 212.405 135.231C211.242 135.231 210.155 135.062 209.143 134.724C208.145 134.373 207.268 133.879 206.516 133.243C205.763 132.608 205.175 131.844 204.752 130.952C204.327 130.045 204.115 129.038 204.115 127.929C204.115 126.887 204.334 125.927 204.771 125.048C205.209 124.169 205.811 123.405 206.578 122.756C207.357 122.107 208.247 121.606 209.245 121.255C210.244 120.89 211.298 120.707 212.405 120.707C213.336 120.707 214.225 120.822 215.073 121.052C215.921 121.281 216.687 121.579 217.371 121.944C218.069 122.309 218.623 122.688 219.034 123.08L217.721 124.926C216.981 124.331 216.161 123.838 215.258 123.446C214.355 123.053 213.336 122.857 212.2 122.857C211.475 122.857 210.764 122.979 210.066 123.222C209.368 123.452 208.739 123.79 208.178 124.237C207.631 124.67 207.193 125.197 206.865 125.819C206.536 126.442 206.372 127.144 206.372 127.929C206.372 128.781 206.544 129.532 206.886 130.181C207.228 130.816 207.686 131.357 208.26 131.803C208.849 132.236 209.512 132.561 210.25 132.777C211.003 132.994 211.776 133.101 212.57 133.101C213.391 133.101 214.122 133 214.766 132.798C215.408 132.581 215.983 132.318 216.489 132.006C216.996 131.695 217.454 131.391 217.864 131.094L218.931 132.919ZM227.58 120.828V126.975H237.614V120.828H239.83V135.029H237.614V129.085H227.58V135.029H225.364V120.828H227.58Z" fill="black"/>
</svg>
