<svg width="1345" height="852" viewBox="0 0 1345 852" fill="none" xmlns="http://www.w3.org/2000/svg">
<circle cx="1045" cy="397" r="30" fill="#EE5253" fill-opacity="0.75"/>
<path d="M246.022 718.233L241.44 769.992L198.906 740.144L246.022 718.233Z" fill="#5F27CD" fill-opacity="0.75"/>
<path d="M1272 739L1302 769L1272 799L1242 769L1272 739Z" fill="#48DBFB" fill-opacity="0.5"/>
<path d="M504.434 433.149L506.035 454.886L527.204 460.08L507.025 468.321L508.627 490.058L494.554 473.414L474.376 481.654L485.857 463.127L471.784 446.482L492.952 451.676L504.434 433.149Z" fill="#FECA57" fill-opacity="0.75"/>
<g clip-path="url(#clip0)">
<path d="M2.77918 485.803L28.55 468.036L60.4682 470.181L65.8113 509.135L44.9267 529.269L17.2114 522.326L2.77918 485.803Z" fill="#E23237"/>
<path d="M60.4682 470.181L28.55 468.036L44.9267 529.269L65.8173 509.157L60.4682 470.181Z" fill="#B52E31"/>
<path d="M30.5073 475.173L23.3195 519.412L29.9201 517.525L31.1009 507.664L38.6789 505.637L38.7015 505.631L47.0238 503.405L53.3383 511.383L59.706 509.801L30.5073 475.173ZM33.9363 487.814L43.2893 498.749L37.5381 500.287L37.2449 500.365L32.0125 501.765L33.9363 487.814Z" fill="white"/>
</g>
<path d="M1280 325C1285.52 325 1290 320.52 1290 315V305H1280C1274.48 305 1270 309.48 1270 315C1270 320.52 1274.48 325 1280 325Z" fill="#0ACF83"/>
<path d="M1270 295C1270 289.48 1274.48 285 1280 285H1290V305H1280C1274.48 305 1270 300.52 1270 295Z" fill="#A259FF"/>
<path d="M1270 275C1270 269.48 1274.48 265 1280 265H1290V285H1280C1274.48 285 1270 280.52 1270 275Z" fill="#F24E1E"/>
<path d="M1290 265H1300C1305.52 265 1310 269.48 1310 275C1310 280.52 1305.52 285 1300 285H1290V265Z" fill="#FF7262"/>
<path d="M1310 295C1310 300.52 1305.52 305 1300 305C1294.48 305 1290 300.52 1290 295C1290 289.48 1294.48 285 1300 285C1305.52 285 1310 289.48 1310 295Z" fill="#1ABCFE"/>
<g clip-path="url(#clip1)">
<path d="M219.471 118.465L231.325 120.331L193.642 166.786L172.055 111L183.761 112.843L194.726 114.569L199.824 127.52L208.506 116.739L219.471 118.465Z" fill="#41B883"/>
<path d="M172.055 111L193.642 166.786L231.325 120.331L219.471 118.465L196.861 146.338L183.761 112.843L172.055 111Z" fill="#41B883"/>
<path d="M183.761 112.843L196.838 146.486L219.471 118.465L208.506 116.739L199.824 127.52L194.726 114.569L183.761 112.843Z" fill="#35495E"/>
</g>
<g clip-path="url(#clip2)">
<path d="M1129.57 166.05C1114.52 163.99 1114.56 170.647 1114.56 170.647L1113.65 177.413L1128.02 179.379L1127.74 181.409L1107.67 178.663C1107.67 178.663 1098.19 176.252 1096.11 191.442C1094.03 206.633 1102.51 207.245 1102.51 207.245L1107.53 207.931L1108.49 200.882C1108.49 200.882 1109.37 192.437 1117.92 193.606L1132.17 195.556C1132.17 195.556 1140.16 196.781 1141.23 188.914L1143.01 175.908C1143.01 175.908 1145.3 168.203 1129.57 166.05ZM1121.03 169.514C1122.46 169.709 1123.45 171.023 1123.26 172.452C1123.06 173.882 1121.75 174.879 1120.32 174.683C1118.89 174.487 1117.89 173.174 1118.09 171.745C1118.28 170.315 1119.6 169.318 1121.03 169.514Z" fill="url(#paint0_linear)"/>
<path d="M1121.93 225.102C1136.98 227.162 1136.93 220.505 1136.93 220.505L1137.84 213.739L1123.48 211.773L1123.75 209.742L1143.83 212.489C1143.83 212.489 1153.31 214.9 1155.39 199.71C1157.47 184.519 1148.99 183.907 1148.99 183.907L1143.97 183.221L1143 190.27C1143 190.27 1142.12 198.715 1133.58 197.546L1119.33 195.596C1119.33 195.596 1111.34 194.371 1110.27 202.237L1108.49 215.244C1108.49 215.244 1106.19 222.949 1121.93 225.102ZM1130.47 221.638C1129.04 221.442 1128.04 220.129 1128.24 218.7C1128.44 217.27 1129.75 216.273 1131.18 216.469C1132.61 216.664 1133.6 217.978 1133.41 219.407C1133.21 220.836 1131.9 221.834 1130.47 221.638Z" fill="url(#paint1_linear)"/>
</g>
<g clip-path="url(#clip3)">
<path d="M689.88 530.698C688.841 534.843 691.36 539.044 695.505 540.082L738.698 550.9C742.843 551.938 747.044 549.42 748.082 545.275L758.9 502.082C759.938 497.937 757.42 493.736 753.275 492.698L710.082 481.88C705.937 480.841 701.736 483.36 700.698 487.505L689.88 530.698Z" fill="#563D7C"/>
<path d="M720.265 511.79L722.329 503.548L729.584 505.365C730.275 505.538 730.927 505.762 731.54 506.038C732.153 506.314 732.669 506.662 733.088 507.082C733.507 507.501 733.799 508.012 733.964 508.612C734.128 509.213 734.107 509.924 733.901 510.747C733.53 512.228 732.818 513.186 731.765 513.621C730.712 514.057 729.494 514.102 728.112 513.755L720.265 511.79ZM716.088 495.585L707.262 530.825L724.339 535.102C725.918 535.498 727.506 535.686 729.102 535.666C730.698 535.646 732.183 535.371 733.557 534.841C734.931 534.311 736.127 533.483 737.143 532.356C738.16 531.229 738.89 529.778 739.335 528.001C739.888 525.796 739.825 523.779 739.147 521.948C738.469 520.117 737.122 518.617 735.107 517.448C736.876 517.087 738.312 516.415 739.415 515.432C740.518 514.45 741.292 513.07 741.737 511.293C742.149 509.648 742.223 508.198 741.961 506.944C741.698 505.689 741.158 504.601 740.339 503.679C739.521 502.757 738.458 501.975 737.151 501.333C735.843 500.691 734.35 500.159 732.672 499.739L716.088 495.585ZM716.519 526.745L718.942 517.071L727.382 519.185C729.06 519.605 730.312 520.33 731.138 521.358C731.965 522.387 732.151 523.806 731.698 525.616C731.467 526.537 731.121 527.255 730.66 527.769C730.199 528.283 729.662 528.647 729.049 528.86C728.437 529.074 727.766 529.168 727.038 529.143C726.31 529.118 725.567 529.011 724.811 528.821L716.519 526.745Z" fill="white"/>
</g>
<g clip-path="url(#clip4)">
<path d="M604.453 742.295C619.838 736.318 637.184 743.966 643.137 759.408C645.003 758.318 646.771 756.986 648.278 755.478C647.287 767.523 645.65 777.286 641.951 783.834C639.107 789.469 634.48 794.085 628.854 796.94C614.176 804.421 596.143 798.56 588.662 783.881L588.523 783.59L588.515 783.577C588.489 783.537 588.464 783.495 588.441 783.453C588.369 783.326 588.311 783.196 588.265 783.063L588.249 783.015L588.022 782.539C587.796 782.087 587.57 781.634 587.4 781.158L587.34 780.979C581.363 765.594 589.068 748.271 604.453 742.295ZM592.934 781.059C592.246 779.831 590.719 779.321 589.49 780.009C588.41 780.614 587.886 781.868 588.243 782.997L588.249 783.015L588.523 783.59L588.554 783.638C589.273 784.711 590.668 785.14 591.821 784.537L591.884 784.503C593.113 783.814 593.566 782.263 592.934 781.059ZM646.794 758.202C641.431 762.977 632.457 764.554 625.77 763.41C619.448 762.353 614.921 759.104 608.767 758.922C594.763 758.445 588.946 772.878 594.178 778.903L594.48 779.299C594.48 779.299 599.647 780.361 604.889 781.096L605.338 781.159C607.435 781.445 609.521 781.673 611.269 781.753C620.344 782.162 632.014 778.639 638.36 771.532C633.235 779.556 622.256 784.777 613.196 785.447C608.35 785.816 605.086 784.976 597.584 784.493C596.667 784.442 595.922 784.463 595.922 784.463C596.006 784.485 596.09 784.508 596.174 784.531L596.342 784.578L596.509 784.625C598.029 785.055 599.365 785.512 599.365 785.512C608.831 788.967 622.1 798.18 632.684 791.988C643.511 785.698 645.927 769.16 646.794 758.202Z" fill="#6DB33F"/>
<path d="M592.934 781.059C593.566 782.263 593.113 783.814 591.884 784.503C590.656 785.191 589.129 784.681 588.441 783.453C587.752 782.225 588.262 780.697 589.49 780.009C590.719 779.321 592.246 779.831 592.934 781.059ZM646.794 758.202C645.927 769.16 643.511 785.698 632.684 791.988C622.1 798.18 608.831 788.967 599.365 785.512C599.365 785.512 598.029 785.055 596.509 784.624L596.342 784.578C596.203 784.539 596.062 784.5 595.922 784.463C595.922 784.463 596.667 784.442 597.584 784.493C605.086 784.976 608.35 785.816 613.196 785.447C622.256 784.777 633.235 779.556 638.36 771.532C632.014 778.639 620.344 782.162 611.269 781.753C605.025 781.466 594.48 779.299 594.48 779.299L594.178 778.903C588.946 772.878 594.763 758.445 608.767 758.921C614.921 759.104 619.448 762.353 625.77 763.41C632.457 764.554 641.431 762.977 646.794 758.202Z" fill="white"/>
</g>
<g clip-path="url(#clip5)">
<path d="M17.8591 747.372C17.4421 743.375 17.9242 739.349 19.4709 735.425C20.1253 733.8 20.927 732.279 21.7797 730.744C21.7797 730.744 27.1659 720.939 38.9659 718.417C38.9659 718.417 43.1001 717.232 48.724 718.266C48.724 718.266 48.1161 717.367 47.6985 716.941C45.4313 714.631 41.6222 713.229 38.7223 715.204C37.8505 715.794 37.0798 716.477 36.2542 717.076C35.3168 717.748 34.2466 718.248 33.1007 718.418C32.1033 718.571 31.1931 718.308 30.2112 718.271C29.2063 718.229 28.1395 718.368 27.2226 718.827C26.2217 719.341 25.6811 720.194 25.3656 721.238C25.0987 722.051 24.9424 722.911 24.7217 723.734C24.0923 726.16 23.1608 726.689 21.1178 727.685C20.2617 728.084 19.4823 728.693 18.8552 729.382C16.9542 731.542 18.6405 734.551 18.2374 737.049C18.1539 737.562 18.001 738.061 17.7143 738.508C17.4178 739.001 16.9752 739.27 16.5826 739.647C16.0452 740.137 15.6224 740.773 15.5877 741.514C15.5531 742.255 15.7824 743.003 15.9983 743.7C16.4361 744.95 17.06 746.119 17.7398 747.251C17.7908 747.237 17.8225 747.317 17.8591 747.372Z" fill="#ED168F"/>
<path d="M60.1138 765.475C65.9159 764.278 69.0201 760.753 69.0201 760.753C75.411 755.021 75.221 747.523 75.221 747.523C70.6093 753.749 67.3219 755.039 67.3219 755.039C77.5996 744.812 71.3574 736.021 71.3574 736.021C73.1093 743.436 67.1761 750.785 67.1761 750.785C62.078 757.488 56.5038 759.095 56.5038 759.095C61.8805 761.308 66.7858 758.402 66.7858 758.402C56.9458 765.39 48.3402 763.152 48.3402 763.152C51.1351 768.01 56.687 768.812 56.687 768.812C49.1663 768.997 42.9379 765.205 38.377 759.446C37.516 758.372 36.7158 757.239 35.9994 756.051C35.9994 756.051 35.3513 754.998 35.238 754.733L35.2197 754.705C34.2074 758.958 37.8357 763.87 37.8357 763.87C32.7256 760.385 31.2112 754.83 31.2112 754.83C31.2112 754.83 28.7903 747.613 33.0549 740.855C37.3195 734.098 45.9026 734.256 45.9026 734.256C52.0296 738.992 57.5912 741.245 57.5912 741.245C69.3484 745.834 69.9054 739.723 69.9054 739.723C71.0971 734.615 64.4961 727.535 64.4961 727.535C52.8365 714.422 38.961 718.44 38.961 718.44C27.1611 720.962 21.7749 730.767 21.7749 730.767C20.9221 732.302 20.1204 733.823 19.466 735.448C16.8474 742.068 17.2655 748.937 19.9146 755.527C24.0448 765.758 33.1516 770.901 33.1516 770.901C46.5734 778.832 57.9575 773.688 57.9575 773.688C68.3521 769.351 71.6908 762.52 71.6908 762.52C63.1648 766.694 60.1138 765.475 60.1138 765.475ZM55.9037 729.378C56.5973 729.523 57.0358 730.194 56.8904 730.888C56.745 731.582 56.0738 732.02 55.3802 731.875C54.6866 731.729 54.2481 731.058 54.3935 730.365C54.5389 729.671 55.2101 729.232 55.9037 729.378Z" fill="url(#paint2_linear)"/>
<path d="M69.8871 739.695C71.0787 734.587 64.4778 727.507 64.4778 727.507C52.8182 714.394 38.9427 718.412 38.9427 718.412C27.1428 720.934 21.7566 730.739 21.7566 730.739C20.7591 732.388 19.6323 735 19.6323 735C18.2445 738.281 17.8809 741.512 17.8809 741.512C17.5234 744.599 17.7673 746.774 17.7673 746.774C18.0052 749.093 18.1883 749.831 18.1883 749.831C18.1798 749.757 18.1708 749.224 18.1708 749.224C18.1708 749.224 18.1789 744.35 20.0209 740.054C20.0209 740.054 21.7861 735.548 25.7327 732.61C25.7327 732.61 32.4576 726.321 41.4924 731.232C41.4924 731.232 43.418 732.408 44.0571 732.928C44.6962 733.448 45.838 734.219 45.838 734.219C51.965 738.955 57.5266 741.207 57.5266 741.207C69.3301 745.806 69.8871 739.695 69.8871 739.695ZM55.3753 731.898C54.6817 731.753 54.2432 731.081 54.3886 730.388C54.534 729.694 55.2052 729.256 55.8988 729.401C56.5924 729.546 57.0309 730.218 56.8855 730.911C56.7401 731.605 56.0689 732.043 55.3753 731.898Z" fill="url(#paint3_radial)"/>
<path d="M48.4623 725.501L41.0925 721.397C41.0462 721.387 40.8393 721.223 40.3989 721.252C40.3989 721.252 35.5048 721.457 35.7807 724.169C35.7807 724.169 35.9318 725.866 36.9248 727.692L45.6817 729.093L48.4623 725.501Z" fill="url(#paint4_linear)"/>
</g>
<g clip-path="url(#clip6)">
<path d="M1203 538.253L1262.56 531L1269.81 590.56L1210.25 597.813L1203 538.253Z" fill="#F7DF1E"/>
<path d="M1224.72 586.118L1228.94 582.805C1230.01 584.257 1230.97 585.479 1232.89 585.245C1234.73 585.021 1235.8 584.16 1235.46 581.362L1233.14 562.331L1238.74 561.65L1241.07 580.76C1241.77 586.557 1238.7 589.609 1233.74 590.213C1229.26 590.758 1226.38 588.756 1224.72 586.118" fill="black"/>
<path d="M1244.44 583.108L1248.68 579.915C1250.11 581.728 1251.85 582.977 1254.61 582.641C1256.93 582.359 1258.26 581.019 1258.07 579.42C1257.84 577.501 1256.23 577.006 1253.54 576.199L1252.07 575.769C1247.82 574.542 1244.88 572.709 1244.32 568.151C1243.81 563.953 1246.62 560.365 1251.62 559.757C1255.18 559.324 1257.89 560.251 1260.12 563.266L1256.1 566.595C1254.93 564.993 1253.81 564.44 1252.21 564.635C1250.57 564.834 1249.66 566 1249.83 567.359C1250.03 569.039 1251.15 569.592 1253.68 570.339L1255.15 570.769C1260.16 572.228 1263.09 573.981 1263.66 578.659C1264.27 583.696 1260.65 586.937 1255.33 587.584C1250.13 588.217 1246.47 586.147 1244.44 583.108" fill="black"/>
</g>
<g clip-path="url(#clip7)">
<path d="M456.203 705.205L442.897 765.007L417.739 768.566L394.405 758.681L396.916 697.459L456.203 705.205Z" fill="#E44D26"/>
<path d="M418.447 763.426L438.776 760.55L450.147 709.447L425.913 706.281L418.447 763.426Z" fill="#F16529"/>
<path d="M413.474 719.753L423.974 721.125L424.943 713.703L406.332 711.271L406.25 713.286L405.402 733.978L422.011 736.148L422.981 728.725L413.159 727.442L413.474 719.753Z" fill="#EBEBEB"/>
<path d="M412.699 738.706L405.248 737.732L404.766 749.522L419.418 755.729L419.453 755.724L420.462 748.002L420.429 748.006L412.454 744.694L412.699 738.706Z" fill="#EBEBEB"/>
<path d="M404.581 681.734L408.352 682.227L407.865 685.954L411.316 686.404L411.803 682.678L415.575 683.171L414.1 694.456L410.329 693.963L410.822 690.184L407.372 689.733L406.878 693.512L403.106 693.019L404.581 681.734L404.581 681.734Z" fill="black"/>
<path d="M420.046 687.561L416.725 687.127L417.214 683.385L427.629 684.745L427.14 688.488L423.818 688.054L422.833 695.596L419.061 695.104L420.046 687.561L420.046 687.561Z" fill="black"/>
<path d="M429.282 684.961L433.215 685.475L435.116 689.757L438.051 686.107L441.986 686.621L440.511 697.906L436.755 697.415L437.486 691.822L434.367 695.495L434.302 695.487L432.229 691.135L431.498 696.729L427.808 696.246L429.282 684.961Z" fill="black"/>
<path d="M443.863 686.866L447.636 687.359L446.649 694.914L451.953 695.607L451.466 699.337L442.388 698.151L443.863 686.866Z" fill="black"/>
<path d="M421.985 736.144L431.125 737.338L429.006 746.852L420.436 748.005L419.427 755.726L435.194 753.497L435.469 752.258L439.766 732.946L440.208 730.976L422.955 728.722L421.985 736.144Z" fill="white"/>
<path d="M423.95 721.104L423.948 721.122L441.876 723.464L442.243 721.815L443.073 718.097L443.51 716.129L424.918 713.699L423.95 721.104Z" fill="white"/>
</g>
<g clip-path="url(#clip8)">
<path d="M885.976 846.093L860.792 843.275L845.735 783.88L904.769 774.392L909.074 835.505L885.976 846.093Z" fill="#264DE4"/>
<path d="M903.853 832.409L900.174 780.185L876.044 784.063L885.189 840.964L903.853 832.409Z" fill="#2965F1"/>
<path d="M862.435 809.177L864.285 816.46L880.824 813.802L879.636 806.412L862.435 809.177Z" fill="#EBEBEB"/>
<path d="M858.7 794.432L860.56 801.715L878.419 798.844L877.232 791.454L858.7 794.432Z" fill="#EBEBEB"/>
<path d="M882.721 825.606L882.69 825.619L874.102 824.72L872.628 818.91L865.209 820.103L868.11 831.54L883.924 833.31L883.956 833.295L882.721 825.606Z" fill="#EBEBEB"/>
<path d="M856.996 765.272L865.947 763.833L866.549 767.576L861.341 768.413L861.943 772.156L867.15 771.319L867.752 775.063L858.801 776.501L856.996 765.272Z" fill="black"/>
<path d="M867.737 763.545L876.689 762.107L877.212 765.362L872.004 766.199L872.108 766.85L877.316 766.013L878.52 773.499L869.568 774.938L869.019 771.52L874.227 770.683L874.122 770.032L868.915 770.869L867.737 763.545Z" fill="black"/>
<path d="M878.479 761.819L887.43 760.38L887.953 763.635L882.745 764.472L882.85 765.123L888.058 764.286L889.261 771.772L880.31 773.211L879.76 769.793L884.968 768.956L884.864 768.305L879.656 769.142L878.479 761.819Z" fill="black"/>
<path d="M896.789 803.655L895.719 788.482L877.206 791.458L878.394 798.848L888.808 797.174L889.352 804.85L879.61 806.416L880.798 813.806L889.898 812.344L890.581 822.066L882.696 825.616L883.932 833.305L898.408 826.671L898.318 825.404L896.928 805.669L896.789 803.655Z" fill="white"/>
</g>
<g clip-path="url(#clip9)">
<path d="M1084.26 4.37317C1084.56 4.06408 1084.92 3.78411 1085.35 3.70857C1085.52 3.71879 1085.68 3.77127 1085.84 3.80966L1093.81 5.69931C1093.53 5.84141 1093.26 5.99223 1093.04 6.22312C1092.47 6.79534 1092.02 7.47674 1091.59 8.16315C1090.34 10.2465 1089.29 12.4449 1088.25 14.6467C1087.79 15.6443 1087.33 16.6506 1086.88 17.6532C1085.46 20.9464 1084.02 24.2275 1082.43 27.4438C1081.69 28.9258 1080.93 30.4061 1080 31.7834C1079.58 32.3467 1079.16 32.954 1078.54 33.2969C1078.39 33.3742 1078.24 33.4796 1078.08 33.4184L1071.04 31.7491C1070.56 31.6215 1070.08 31.5519 1069.61 31.3891C1069.99 31.2178 1070.34 30.9887 1070.6 30.68C1071.37 29.7981 1071.96 28.785 1072.54 27.7756C1073.44 26.1459 1074.26 24.4717 1075.05 22.7925C1075.56 21.6856 1076.1 20.5957 1076.55 19.4667C1077.05 18.2089 1077.64 16.9886 1078.18 15.7479C1079 13.9262 1079.84 12.1094 1080.72 10.3168C1081.42 8.91971 1082.12 7.5313 1082.93 6.19943C1083.33 5.55731 1083.75 4.92724 1084.26 4.37317Z" fill="#EB7077" stroke="#EB7077" stroke-width="0.09375"/>
<path d="M1093.81 5.69934C1094.02 5.74775 1094.22 5.78912 1094.42 5.84457C1094.82 6.19085 1095.11 6.66129 1095.21 7.18322C1095.36 7.78522 1095.46 8.40371 1095.54 9.03127C1095.72 11.3743 1095.67 13.7274 1095.62 16.0733C1095.56 18.1702 1095.47 20.2692 1095.36 22.3701C1095.36 22.4824 1095.29 22.622 1095.42 22.6835C1094.29 25.2113 1093.16 27.7478 1091.9 30.2244C1091.22 31.5582 1090.52 32.8799 1089.68 34.1226C1089.23 34.7389 1088.77 35.417 1088.06 35.7611C1087.65 35.7554 1087.45 35.4016 1087.28 35.0859C1087 34.4767 1086.9 33.8126 1086.8 33.1502C1086.52 30.7925 1086.57 28.4166 1086.61 26.0462C1086.65 24.2041 1086.74 22.358 1086.81 20.5156C1086.87 19.5845 1086.87 18.6541 1086.96 17.7313C1086.94 17.7122 1086.9 17.6723 1086.88 17.6532C1087.33 16.6507 1087.79 15.6444 1088.25 14.6468C1089.29 12.445 1090.34 10.2465 1091.59 8.16318C1092.02 7.47677 1092.47 6.79537 1093.04 6.22315C1093.26 5.99226 1093.53 5.84145 1093.81 5.69934Z" fill="#F6A2AD" stroke="#F6A2AD" stroke-width="0.09375"/>
<path d="M1102.33 9.00602C1102.7 8.58018 1103.14 8.11136 1103.73 8.05846C1106.53 8.70708 1109.33 9.37684 1112.12 10.0396C1111.8 10.2384 1111.46 10.4338 1111.21 10.7231C1110.44 11.5664 1109.86 12.5688 1109.29 13.5554C1107.76 16.2881 1106.47 19.1426 1105.2 22.0038C1103.99 24.8328 1102.74 27.6534 1101.42 30.4415C1100.74 31.8437 1100.06 33.2354 1099.28 34.5914C1098.79 35.4277 1098.29 36.2678 1097.64 36.999C1097.33 37.3276 1096.98 37.683 1096.52 37.7817C1093.84 37.1701 1091.17 36.5147 1088.5 35.889C1088.35 35.854 1088.2 35.8173 1088.06 35.7611C1088.77 35.417 1089.23 34.739 1089.68 34.1226C1090.52 32.8799 1091.22 31.5582 1091.9 30.2245C1093.16 27.7479 1094.29 25.2113 1095.42 22.6836C1096.85 19.4132 1098.3 16.1495 1099.91 12.9698C1100.64 11.6021 1101.36 10.21 1102.33 9.00602Z" fill="#EB7077" stroke="#EB7077" stroke-width="0.09375"/>
<path d="M1112.12 10.0395C1112.35 10.0929 1112.58 10.141 1112.81 10.2014C1113.13 10.4784 1113.31 10.8641 1113.46 11.2502C1113.7 11.946 1113.78 12.6859 1113.87 13.4133C1114.03 15.3477 1114.02 17.2963 1113.99 19.2366C1113.93 21.8495 1113.81 24.4598 1113.67 27.0684C1113.64 27.6937 1113.61 28.326 1113.54 28.9484C1113.56 28.9832 1113.6 29.0529 1113.62 29.0791C1113.28 29.3711 1113.08 29.7703 1112.85 30.1383C1112.07 31.4628 1111.43 32.8733 1110.83 34.2867C1110.37 35.3966 1109.83 36.4828 1109.21 37.5104C1108.75 38.2709 1108.23 39.011 1107.53 39.5743C1107.2 39.8452 1106.79 40.017 1106.37 40.0959C1105.77 40.0207 1105.56 39.3755 1105.38 38.8932C1105.04 37.7335 1104.99 36.5175 1104.92 35.3246C1104.78 30.941 1105.06 26.5506 1105.27 22.1751C1105.27 22.11 1105.25 22.0453 1105.2 22.0038C1106.47 19.1426 1107.76 16.2881 1109.29 13.5554C1109.86 12.5688 1110.44 11.5664 1111.21 10.7231C1111.46 10.4338 1111.8 10.2383 1112.12 10.0395Z" fill="#F6A2AD" stroke="#F6A2AD" stroke-width="0.09375"/>
<path d="M1066.27 16.0938C1066.46 16.1231 1066.65 16.1383 1066.84 16.1834L1074.52 18.0029C1074.83 18.122 1075.18 18.1739 1075.45 18.3882C1075.86 18.6782 1076.19 19.0832 1076.39 19.5406C1076.43 19.5279 1076.51 19.4865 1076.55 19.4667C1076.1 20.5957 1075.56 21.6856 1075.05 22.7925C1074.26 24.4717 1073.44 26.1459 1072.54 27.7756C1071.96 28.785 1071.37 29.7981 1070.6 30.68C1070.34 30.9887 1069.99 31.2177 1069.61 31.3891C1069.49 31.3819 1069.41 31.2757 1069.33 31.1889C1069.05 30.8992 1068.95 30.4879 1068.82 30.1085C1068.38 27.6825 1068.85 25.2278 1068.79 22.7901C1068.76 21.5704 1068.66 20.341 1068.36 19.1544C1068.17 18.4405 1067.9 17.7363 1067.47 17.1219C1067.15 16.7028 1066.75 16.332 1066.27 16.0938Z" fill="#F6A2AD" stroke="#F6A2AD" stroke-width="0.09375"/>
<path d="M1114.46 28.2893C1115.02 27.8945 1115.76 27.7345 1116.42 27.9212L1122.2 29.29C1123 29.4944 1123.82 29.6441 1124.61 29.8837C1124.33 29.989 1124.03 29.9839 1123.74 30.0576C1122.77 30.2504 1121.85 30.7408 1121.18 31.4653C1120.09 32.6215 1119.46 34.0933 1118.88 35.547C1118.3 36.9725 1117.95 38.5024 1117.13 39.8255C1116.56 40.7558 1115.83 41.6531 1114.82 42.1131C1112.17 41.5136 1109.52 40.8648 1106.88 40.2459C1106.71 40.2041 1106.53 40.1711 1106.37 40.0958C1106.79 40.017 1107.2 39.8452 1107.53 39.5743C1108.23 39.011 1108.75 38.2709 1109.21 37.5103C1109.83 36.4828 1110.37 35.3966 1110.83 34.2867C1111.43 32.8732 1112.07 31.4628 1112.85 30.1383C1113.08 29.7703 1113.28 29.3711 1113.62 29.0791C1113.9 28.8193 1114.13 28.4935 1114.46 28.2893Z" fill="#EB7077" stroke="#EB7077" stroke-width="0.09375"/>
</g>
<g clip-path="url(#clip10)">
<path d="M29.7778 87.1067L19 87.4806L24.5249 81.8632L29.7782 87.1071L29.7778 87.1067Z" fill="#F15A24"/>
<path d="M78.6674 59.2453C76.665 74.8578 62.384 85.8882 46.7741 83.8837C31.1615 81.8808 20.1311 67.6003 22.1335 51.9891C24.1372 36.3769 38.4151 25.3453 54.029 27.3503C69.6407 29.3522 80.6736 43.634 78.6674 59.2448" fill="#F15A24"/>
<path d="M57.6676 47.5153C59.5405 49.5061 57.6921 54.213 57.6921 54.213C57.6921 54.213 55.8653 60.8677 45.4059 69.4973L43.4534 67.5809L56.731 54.0108L56.9874 53.6644C57.3406 53.0888 57.6332 47.4766 57.6676 47.5153Z" fill="#999999"/>
<path d="M57.6676 47.5153C59.5405 49.5061 57.6921 54.213 57.6921 54.213C57.6921 54.213 55.8653 60.8677 45.4059 69.4973L43.4534 67.5809L56.731 54.0108L56.9874 53.6644C57.3406 53.0888 57.6332 47.4766 57.6676 47.5153Z" stroke="white" stroke-width="1.918" stroke-linecap="round" stroke-linejoin="round"/>
<path d="M40.5857 64.7599L57.6396 47.4663C58.5053 48.4942 58.6894 49.6017 58.4381 51.1794C58.2691 52.2722 56.3815 54.4562 56.3815 54.4562L43.4533 67.581" fill="#666666"/>
<path d="M40.5857 64.7599L57.6396 47.4663C58.5053 48.4942 58.6894 49.6017 58.4381 51.1794C58.2691 52.2722 56.3815 54.4562 56.3815 54.4562L43.4533 67.581" stroke="white" stroke-width="1.201" stroke-linecap="round" stroke-linejoin="round"/>
<path d="M57.6676 47.5274L40.5857 64.7602L40.6202 64.7267L40.6137 64.7293L36.3757 60.5532C45.2135 49.5599 50.9277 47.5101 50.9277 47.5101C50.9277 47.5101 54.6477 46.058 57.3015 47.1849C57.5054 47.2942 57.594 47.357 57.6672 47.5278" fill="#FF931E"/>
<path d="M57.6676 47.5274L40.5857 64.7602L40.6202 64.7267L40.6137 64.7293L36.3757 60.5532C45.2135 49.5599 50.9277 47.5101 50.9277 47.5101C50.9277 47.5101 54.6477 46.058 57.3015 47.1849C57.5054 47.2942 57.594 47.357 57.6672 47.5278L57.6676 47.5274Z" stroke="white" stroke-width="1.918" stroke-linecap="round" stroke-linejoin="round"/>
<path d="M45.4059 69.4968C41.3305 72.8532 36.115 78.1255 29.0257 81.8029L30.6026 88.5441L23.9191 81.9612L40.5853 64.7598" fill="#999999"/>
<path d="M45.4059 69.4968C41.3305 72.8532 36.115 78.1255 29.0257 81.8029L30.6026 88.5441L23.9191 81.9612L40.5853 64.7598" stroke="white" stroke-width="1.918" stroke-linecap="round" stroke-linejoin="round"/>
<path d="M36.4898 60.6096L40.6301 64.7336L31.0652 66.8052L36.3982 60.5352L36.4902 60.6096H36.4898Z" fill="#F15A24"/>
<path d="M36.4898 60.6096L40.6301 64.7336L31.0652 66.8052L36.3982 60.5352L36.4902 60.6096H36.4898Z" stroke="white" stroke-width="1.918" stroke-linecap="round" stroke-linejoin="round"/>
<path d="M56.037 42.5266C55.6308 46.1923 58.27 49.4923 61.9357 49.9011C65.5985 50.3081 68.9015 47.6668 69.3102 44.0023C69.7177 40.3379 67.0742 37.0344 63.4102 36.627C59.744 36.2221 56.4436 38.86 56.037 42.5266Z" fill="#999999"/>
<path d="M56.037 42.5266C55.6308 46.1923 58.27 49.4923 61.9357 49.9011C65.5985 50.3081 68.9015 47.6668 69.3102 44.0023C69.7177 40.3379 67.0742 37.0344 63.4102 36.627C59.744 36.2221 56.4436 38.86 56.037 42.5266Z" stroke="white" stroke-width="1.918" stroke-linecap="round" stroke-linejoin="round"/>
<path d="M68.3512 46.9543C69.583 45.1545 69.5193 42.462 69.272 41.6643C68.9686 40.6876 68.2897 39.0992 67.1056 38.2735L60.8446 44.0406C60.8446 44.0406 65.6565 49.2105 65.7817 49.2277C65.8338 49.2337 67.2278 48.5952 68.3512 46.9543Z" fill="#666666"/>
<path d="M68.3512 46.9543C69.583 45.1545 69.5193 42.462 69.272 41.6643C68.9686 40.6876 68.2897 39.0992 67.1056 38.2735L60.8446 44.0406C60.8446 44.0406 65.6565 49.2105 65.7817 49.2277C65.8338 49.2337 67.2278 48.5952 68.3512 46.9543ZM67.088 42.4366C67.088 42.4366 67.6899 43.915 66.9262 45.065L67.088 42.4366Z" stroke="white" stroke-width="1.918" stroke-linecap="round" stroke-linejoin="round"/>
<path d="M43.601 67.5836L36.6912 68.8132L40.862 64.4797" fill="#666666"/>
<path d="M36.6503 60.6397L45.4347 68.907M43.601 67.5835L36.6911 68.8132L40.862 64.4797L43.601 67.5835Z" stroke="white" stroke-width="1.918" stroke-linecap="round" stroke-linejoin="round"/>
</g>
<g clip-path="url(#clip11)">
<path d="M1018.84 576.388C1018.27 575.39 1017.2 574.829 1015.97 574.887C1015.39 574.915 1014.75 575.079 1014.02 575.388C1012.74 575.927 1011.77 576.227 1011.06 576.391C1012.86 571.256 1014.04 565.578 1014.33 560.393C1014.81 552.01 1012.99 548.595 1011.38 547.207C1007.11 543.533 1001.68 542.182 995.674 543.299C992.47 543.894 989.789 545.082 988.416 545.826C987.005 545.856 985.513 546.013 983.971 546.293C981.08 546.819 978.658 547.952 976.738 549.675C975.452 549.507 973.405 549.316 971.1 549.393C965.677 549.573 961.578 551.084 958.917 553.885C955.693 557.277 954.868 562.222 956.465 568.584C956.972 570.604 959.344 576.585 962.309 582.115C964.013 585.293 965.672 587.885 967.239 589.817C969.462 592.558 971.548 594.018 973.617 594.28C974.777 594.426 976.803 594.288 978.539 592.145C978.865 592.411 979.279 592.659 979.805 592.861C980.471 593.117 981.256 593.278 982.015 593.316C984.752 593.45 987.162 592.803 989.064 591.476C989.15 591.844 989.23 592.196 989.3 592.5C989.412 592.993 989.522 593.476 989.63 593.927C990.364 596.978 991.047 599.327 991.999 600.877C992.051 600.962 992.125 601.093 992.203 601.232C992.7 602.117 993.531 603.6 995.093 604.58C996.71 605.595 998.436 605.663 999.945 605.363C1000.7 605.213 1001.4 604.971 1002.01 604.709C1004.17 603.778 1006.59 602.532 1007.92 599.523C1009.18 596.678 1009.29 592.749 1008.26 586.793C1008.25 586.621 1008.24 586.458 1008.22 586.302C1008.22 586.196 1008.21 586.089 1008.2 585.981L1008.62 585.936L1008.73 585.922C1011.05 585.57 1013.76 584.525 1015.33 583.38C1016.57 582.476 1020.48 579.3 1018.84 576.388Z" fill="black"/>
<path d="M1015.02 577.774C1008.47 580.541 1007.54 578.32 1007.54 578.32C1012.63 566.176 1012.95 551.981 1009.69 549.17C1000.78 541.502 989.335 548.235 989.152 548.387L989.088 548.412C987.681 548.4 986.137 548.533 984.432 548.842C981.328 549.405 979.153 550.732 977.64 552.436C977.64 552.436 953.908 547.751 958.977 567.953C960.055 572.251 971.716 599.565 977.17 589.534C979.163 585.866 981.164 582.702 981.164 582.702C982.586 583.288 984.174 583.415 985.721 582.949L985.822 582.821C985.862 583.219 985.955 583.598 986.115 584.037C984.679 586.465 985.293 586.719 981.755 588.21C978.175 589.72 980.64 590.654 982.142 590.728C983.964 590.817 988.1 590.636 990.06 586.3L990.038 586.755C990.875 587.19 992.015 590.277 992.504 593.183C992.992 596.089 993.329 598.084 994.206 599.521C995.083 600.957 996.342 604.331 1000.98 602.33C1004.86 600.658 1006.52 597.991 1006.06 594.18C1005.74 591.471 1006.29 591.772 1005.85 589.381L1006 588.177C1005.71 584.474 1005.12 583.379 1007.72 583.427L1008.34 583.36C1010.19 583.079 1012.52 582.223 1013.8 581.287C1016.56 579.273 1017.9 576.561 1015.02 577.774L1015.02 577.774Z" fill="#336791"/>
<path d="M981.565 565.49C980.932 565.526 980.389 565.716 980.149 565.986C980.014 566.138 979.993 566.287 979.999 566.385C980.014 566.646 980.248 566.892 980.386 567.015C980.776 567.364 981.284 567.556 981.744 567.529C981.811 567.525 981.876 567.517 981.94 567.504C982.686 567.356 983.249 566.641 983.224 566.2C983.192 565.648 982.342 565.445 981.565 565.49Z" fill="white"/>
<path d="M1001.98 561.457L1001.98 561.457C1001.84 561.047 1001.06 561.076 1000.37 561.316C999.682 561.556 999.057 562.013 999.199 562.423C999.31 562.742 1000.01 563.185 1000.71 563.045C1000.77 563.034 1000.83 563.018 1000.89 562.998C1001.35 562.84 1001.63 562.474 1001.76 562.271C1001.96 561.96 1002.04 561.641 1001.98 561.457Z" fill="white"/>
<path d="M1017.27 577.163C1016.85 576.426 1015.96 576.339 1014.62 576.903C1010.65 578.579 1009.05 578.281 1008.5 578.02C1010.74 572.48 1012.21 566.03 1012.54 560.219C1012.7 557.466 1012.59 554.96 1012.23 552.972C1011.83 550.79 1011.14 549.265 1010.19 548.44C1006.32 545.114 1001.38 543.899 995.897 544.927C992.125 545.632 989.137 547.226 988.574 547.619C987.212 547.554 985.758 547.636 984.213 547.917C981.379 548.431 979.071 549.592 977.323 551.372C976.38 551.219 973.956 550.891 971.092 550.994C966.14 551.174 962.443 552.516 960.104 554.983C957.314 557.928 956.631 562.337 958.074 568.088C958.559 570.023 960.866 575.814 963.766 581.223C967.582 588.343 970.948 592.134 973.769 592.491C974.099 592.533 974.471 592.535 974.864 592.457C975.829 592.265 976.926 591.595 977.864 589.871C979.42 587.005 980.921 584.565 981.476 583.676C982.627 584.028 983.831 584.113 985.006 583.912C985.014 583.943 985.023 583.973 985.032 584.002C984.853 584.327 984.709 584.609 984.586 584.85C983.98 586.038 983.854 586.285 981.354 587.339C980.643 587.639 978.755 588.436 979 589.822C979.268 591.336 981.752 591.501 982.034 591.515C983.017 591.564 983.943 591.5 984.803 591.33C986.896 590.914 988.601 589.861 989.809 588.238C990.83 593.624 992.106 598.877 993.071 600.363C993.862 601.579 995.794 604.552 999.874 603.743C1000.47 603.624 1001.12 603.424 1001.81 603.124C1005.89 601.367 1007.36 599.118 1007.26 594.827C1007.2 592.534 1006.81 587.109 1006.55 584.208C1007.24 584.282 1008.1 584.208 1009.01 584.028C1010.9 583.652 1013 582.817 1014.25 581.91C1015.64 580.89 1018.07 578.586 1017.27 577.163ZM1003.32 559.983C1003.47 560.824 1003.51 561.608 1003.54 562.427C1003.58 563.308 1003.62 564.218 1003.8 565.298C1003.97 566.348 1004.32 567.407 1004.65 568.432C1005.33 570.5 1006.02 572.631 1005.44 574.985C1005.22 574.737 1005.01 574.462 1004.81 574.152C1004.62 573.872 1004.25 573.437 1003.74 572.834C1001.74 570.488 997.071 564.993 998.335 562.122C998.711 561.267 999.891 560.232 1003.32 559.983ZM996.445 546.583C1001.37 545.719 1005.61 546.784 1009.06 549.749C1011.7 552.023 1011.81 564.733 1007.19 576.634C1007.11 576.563 1007.02 576.492 1006.94 576.418C1006.9 576.389 1006.87 576.359 1006.83 576.329C1008 573.118 1007.1 570.35 1006.29 567.896C1005.97 566.888 1005.65 565.937 1005.5 565.016C1005.34 564.039 1005.3 563.182 1005.27 562.353C1005.22 561.331 1005.18 560.274 1004.89 559.073C1004.9 558.94 1004.88 558.787 1004.83 558.613C1004.49 557.475 1002.48 554.266 999.157 551.66C997.34 550.235 994.805 548.739 991.608 548.025C992.82 547.512 994.501 546.924 996.445 546.583ZM976.346 589.046C975.313 590.946 974.314 590.819 973.986 590.778C971.846 590.507 968.676 586.727 965.288 580.407C962.356 574.939 960.157 569.293 959.749 567.668C958.46 562.529 959 558.662 961.356 556.174C965.189 552.125 972.899 552.564 976.036 552.939C976.002 552.989 975.966 553.037 975.932 553.088C972.065 558.931 973.836 567.253 973.949 567.761C973.987 567.958 974.059 568.233 974.158 568.612C974.52 569.999 975.193 572.58 975.366 575.62C975.527 578.445 976.908 580.968 979.155 582.54C979.387 582.703 979.626 582.852 979.869 582.989C979.217 584.04 977.805 586.36 976.346 589.046ZM980.146 581.125C978.335 579.858 977.221 577.815 977.09 575.522C976.907 572.31 976.206 569.621 975.829 568.176C975.777 567.974 975.73 567.796 975.696 567.656C976.278 566.89 979.204 564.486 981.645 564.558C982.759 564.59 983.552 565.187 984.069 566.381C986.748 572.565 986.07 575.498 985.526 577.855C985.413 578.341 985.307 578.8 985.232 579.268L985.173 579.63C985.025 580.545 984.886 581.396 984.852 582.184C983.256 582.496 981.57 582.123 980.146 581.125ZM982.119 589.79C981.63 589.766 981.171 589.647 980.892 589.528C981.078 589.391 981.418 589.187 982.025 588.931C984.966 587.691 985.351 587.152 986.125 585.634C986.302 585.286 986.503 584.891 986.793 584.402C986.793 584.401 986.793 584.401 986.793 584.401C987.225 583.67 987.499 583.725 987.997 583.825C988.4 583.905 988.855 584.3 989.105 584.785C989.222 585.014 989.392 585.459 989.207 585.868C987.647 589.321 984.492 589.907 982.119 589.79ZM1001.13 601.538C997.537 603.086 995.829 601.436 994.52 599.422C993.674 598.121 992.133 591.807 990.934 584.734C990.918 584.639 990.887 584.552 990.844 584.472C990.789 584.312 990.722 584.153 990.641 583.996C990.145 583.03 989.261 582.316 988.335 582.131C987.966 582.057 987.291 581.923 986.578 582.263C986.608 581.572 986.737 580.773 986.878 579.907L986.937 579.543C987.003 579.132 987.103 578.701 987.209 578.244C987.778 575.778 988.559 572.4 985.654 565.695C984.566 563.183 982.417 562.278 979.604 563.145C977.917 563.665 976.48 564.673 975.773 565.227C975.621 565.346 975.483 565.459 975.354 565.569C975.049 562.881 974.897 557.776 977.377 554.035C978.938 551.68 981.344 550.192 984.521 549.616C990.78 548.48 995.417 550.889 998.204 553.109C1000.61 555.022 1002.12 557.129 1002.79 558.295C999.562 558.601 997.535 559.652 996.754 561.427C995.055 565.287 1000.03 571.14 1002.42 573.953C1002.86 574.468 1003.24 574.914 1003.37 575.109C1004.22 576.387 1005.15 577.169 1005.82 577.739C1006.03 577.914 1006.23 578.084 1006.39 578.235C1005.49 578.701 1003.89 579.681 1004.68 582.838C1004.87 584.464 1005.46 592.133 1005.53 594.871C1005.62 598.487 1004.59 600.045 1001.13 601.538ZM1013.23 580.515C1012.34 581.164 1010.77 581.83 1009.23 582.212C1007.52 582.634 1006.59 582.534 1006.35 582.407C1005.86 580.439 1006.56 580.085 1007.3 579.709C1007.42 579.65 1007.53 579.593 1007.64 579.53C1007.72 579.574 1007.81 579.616 1007.91 579.656C1009.47 580.294 1011.96 579.903 1015.3 578.495C1015.31 578.489 1015.32 578.484 1015.33 578.479C1014.95 579.011 1014.26 579.76 1013.23 580.515Z" fill="white"/>
</g>
<g clip-path="url(#clip12)">
<path d="M290.461 550.634L244.066 543.937C240.479 543.42 237.152 545.908 236.634 549.495L229.937 595.889C229.42 599.477 231.908 602.804 235.495 603.322L281.889 610.018C285.477 610.536 288.804 608.048 289.322 604.461L296.018 558.066C296.536 554.479 294.048 551.152 290.461 550.634Z" fill="#092E20"/>
<path d="M277.651 571.091L275.434 586.454C274.67 591.747 273.916 594.23 272.438 596.257C271.057 598.211 269.444 599.34 266.307 600.381L260.576 596.566C263.701 595.612 265.295 594.612 266.465 592.891C267.686 591.135 268.304 588.983 269.136 583.217L271.024 570.135L277.651 571.091ZM268.586 559.335L264.158 590.011C260.665 590.166 258.132 590.063 255.421 589.672C247.331 588.504 243.641 584.238 244.654 577.223C245.629 570.467 250.738 566.724 257.666 567.724C258.742 567.879 259.547 568.083 260.5 568.484L261.959 558.379L268.586 559.335ZM257.542 573.153C254.185 572.668 251.951 574.455 251.429 578.069C250.919 581.598 252.491 583.802 255.89 584.292C256.621 584.398 257.23 584.442 258.196 584.45L259.73 573.82C258.993 573.45 258.36 573.271 257.542 573.153ZM279.124 560.892L278.142 567.692L271.515 566.735L272.497 559.936L279.124 560.892Z" fill="#FFFFFD"/>
</g>
<g clip-path="url(#clip13)">
<path d="M1329.87 46.9189C1327.86 46.3639 1325.98 46.3564 1324.31 46.6603C1324.08 45.4467 1323.81 44.3489 1323.91 43.6279C1324.03 42.7882 1324.04 42.2583 1324.44 41.3259C1324.84 40.3936 1325.8 39.1753 1325.81 39.0671C1325.83 38.959 1325.86 38.4319 1324.7 38.0957C1323.55 37.7596 1322.48 37.7098 1322.28 37.9823C1322.08 38.2548 1321.66 38.887 1321.32 39.5609C1320.82 40.5567 1317.65 43.7174 1315.88 45.3442C1315.71 44.4667 1315.56 43.6986 1315.64 43.1414C1315.76 42.3017 1315.78 41.7717 1316.18 40.8394C1316.57 39.907 1317.53 38.6888 1317.55 38.5806C1317.57 38.4724 1317.59 37.9454 1316.44 37.6092C1315.28 37.273 1314.22 37.2232 1314.02 37.4958C1313.82 37.7683 1313.49 38.4481 1313.05 39.0744C1312.61 39.7006 1308.04 45.1803 1306.85 46.5932C1306.24 47.3177 1305.72 47.8887 1305.36 48.2759C1305.36 48.2759 1305.34 48.3045 1305.3 48.3482C1304.99 48.6812 1304.81 48.8591 1304.81 48.8591C1304.81 48.8591 1304.81 48.8591 1304.81 48.8696C1304.57 49.1092 1304.33 49.3249 1304.25 49.3012C1304.18 49.2834 1304.28 48.4934 1304.77 47.5187C1305.8 45.4594 1307.76 42.3531 1307.78 42.2344C1307.8 42.1713 1308.15 41.6354 1307.4 41.0935C1306.66 40.5575 1306.22 40.9796 1306.15 40.9588C1306.08 40.9381 1305.97 41.1022 1305.97 41.1022C1305.97 41.1022 1307.96 37.5514 1305.3 36.8024C1303.64 36.3346 1300.83 37.5092 1299.23 38.8306C1298.41 39.0186 1296.65 39.4204 1294.77 39.8557C1294.05 40.0282 1293.31 40.1948 1292.62 40.3522C1292.59 40.2982 1292.56 40.2338 1292.53 40.1799C1290.28 35.8338 1285.01 31.7279 1286.56 27.1806C1287.13 25.524 1288.95 21.2682 1301.22 18.9315C1311.31 17.0584 1318.02 20.2518 1318.48 23.2779C1319.15 27.5988 1311.63 33.1562 1302.19 31.6115C1298.58 31.0179 1297.13 29.1561 1296.81 28.5209C1296.47 27.8587 1296.41 27.8064 1296.2 27.8613C1295.86 27.9362 1295.92 28.4629 1295.95 28.766C1296.02 29.5584 1296.79 31.1376 1298.52 32.2942C1300.05 33.3149 1304.05 34.7717 1309.55 34.2514C1315.7 33.6655 1321.71 28.9202 1321.84 23.5648C1322 18.1358 1314.05 14.0946 1305.29 14.6834C1300.08 15.0344 1294.2 16.2408 1289.54 18.6523C1284 21.5206 1282.3 24.8916 1282.16 26.4655C1281.69 32.0549 1288.03 37.5631 1290.24 40.9426C1290.07 40.9853 1289.91 41.0205 1289.78 41.051C1288.11 41.3654 1281.71 42.7105 1279.46 45.4021C1276.9 48.4508 1278.02 51.4698 1279.14 52.1469C1282.6 54.2453 1286.99 53.4592 1289.93 50.9495C1292.87 48.4397 1293.75 44.3499 1293.31 42.2394C1293.31 42.2154 1293.3 42.1914 1293.29 42.1645C1293.73 42.0501 1294.18 41.9282 1294.63 41.8139C1295.5 41.5822 1296.35 41.3792 1297.07 41.2202C1296.44 42.0979 1295.85 43.1916 1295.25 44.8394C1294.54 46.7728 1294.62 49.5677 1295.4 50.8767C1295.75 51.4517 1296.31 51.6192 1296.66 51.7198C1297.9 52.0692 1298.75 51.1951 1299.72 50.1494C1300.89 48.8687 1302.07 47.3253 1302.07 47.3253C1302.07 47.3253 1299.89 51.7775 1302.21 52.4288C1303.05 52.6657 1304.21 51.8114 1304.75 51.3604L1304.74 51.3709C1304.74 51.3709 1304.77 51.3453 1304.84 51.2835C1304.96 51.1704 1305.03 51.101 1305.03 51.101L1305.04 51.08C1305.54 50.5856 1306.68 49.4627 1308.43 47.5597C1310.68 45.1067 1313.09 41.9235 1313.09 41.9235C1313.09 41.9235 1312.97 42.8323 1312.99 44.4054C1313.01 45.3286 1313.27 46.413 1313.43 47.4361C1312.96 47.8148 1312.68 48.0186 1312.68 48.0186C1312.68 48.0186 1312.68 48.0186 1312.69 48.0321C1312.31 48.3128 1311.91 48.6192 1311.48 48.9061C1309.94 49.9511 1308.14 51.1337 1307.82 51.5328C1307.45 52.0072 1307.39 52.4112 1307.72 52.8453C1307.96 53.1626 1308.5 53.3481 1309.07 53.4734C1310.12 53.6899 1310.92 53.6417 1311.32 53.5846C1311.93 53.5416 1312.67 53.42 1313.41 53.1394C1314.77 52.6251 1315.78 51.6287 1316.16 50.0434C1316.37 49.1719 1316.33 48.2293 1316.21 47.3215C1316.36 47.2038 1316.5 47.0832 1316.64 46.9655C1319.15 44.8673 1321.33 42.4041 1321.33 42.4041C1321.33 42.4041 1321.21 43.3129 1321.24 44.886C1321.24 45.6817 1321.45 46.6026 1321.61 47.4877C1319.55 48.3741 1318.08 49.662 1317.42 50.5894C1316.22 52.3176 1316.49 53.3253 1317.41 53.8005C1317.83 54.0195 1318.52 53.9868 1319.04 53.9171C1319.68 53.8936 1320.46 53.7628 1321.26 53.4654C1322.62 52.9511 1324.03 52.0988 1324.41 50.5135C1324.58 49.7892 1324.59 49.0311 1324.52 48.2733C1326.1 48.0838 1328.03 48.2728 1330.28 49.2036C1335.13 51.2019 1335.24 54.6048 1334.68 55.8665C1334.12 57.1283 1332.86 57.5476 1332.45 57.6708C1332.05 57.794 1331.91 57.8351 1331.9 58.0018C1331.87 58.2451 1332.04 58.282 1332.35 58.3228C1332.78 58.3646 1335.28 58.0004 1336.06 55.6073C1337.08 52.5588 1335.09 48.3528 1329.87 46.9189ZM1287.58 49.0718C1285.4 50.4135 1282.9 50.446 1282.06 49.5862C1281.16 48.6635 1282.34 46.1097 1284.92 44.7694C1286.49 43.951 1288.39 43.3174 1289.64 42.9536C1289.92 42.8744 1290.34 42.7647 1290.84 42.6231C1290.93 42.6017 1290.98 42.5925 1290.98 42.5925C1291.08 42.5636 1291.18 42.5347 1291.27 42.5058C1291.25 45.4513 1289.86 47.6591 1287.58 49.0718ZM1301.99 44.2496C1301.01 45.4965 1298.79 48.7645 1298.11 48.3573C1297.52 48.0114 1297.91 45.1666 1299.56 42.7145C1300.39 41.4847 1301.81 40.1339 1302.54 39.6596C1303.73 38.9043 1304.83 38.8489 1304.95 39.3273C1305.11 39.9497 1302.6 43.4665 1301.99 44.2496ZM1310.63 51.8354C1310.35 51.8935 1310.1 51.9126 1310.01 51.8198C1309.95 51.757 1310.17 51.639 1310.17 51.639C1310.17 51.639 1311.8 50.6447 1312.47 50.1737C1312.86 49.8959 1313.31 49.5699 1313.8 49.1971L1313.76 49.3339C1313.31 50.9435 1311.45 51.5889 1310.63 51.8354ZM1318.82 52.2456C1318.68 52.069 1318.83 51.6571 1319.8 50.5108C1320.18 50.0605 1320.97 49.3517 1322.14 48.7841C1322.15 49.1504 1322.13 49.4972 1322.03 49.7994C1321.45 51.8268 1319.79 52.1757 1318.82 52.2456Z" fill="#CD6799"/>
</g>
<g clip-path="url(#clip14)">
<path d="M752.869 690.327L726.672 664.132C725.165 662.623 722.718 662.623 721.208 664.132L715.768 669.571L722.669 676.472C724.272 675.93 726.111 676.294 727.39 677.572C728.674 678.859 729.035 680.713 728.48 682.322L735.13 688.972C736.739 688.418 738.596 688.777 739.881 690.064C741.677 691.859 741.677 694.769 739.881 696.566C738.084 698.362 735.174 698.362 733.377 696.566C732.026 695.213 731.693 693.229 732.377 691.565L726.174 685.363L726.174 701.684C726.612 701.901 727.025 702.19 727.39 702.554C729.186 704.349 729.186 707.259 727.39 709.057C725.593 710.853 722.682 710.853 720.888 709.057C719.092 707.259 719.092 704.349 720.888 702.554C721.332 702.111 721.845 701.776 722.393 701.55V685.077C721.845 684.853 721.332 684.52 720.888 684.074C719.527 682.715 719.2 680.718 719.897 679.047L713.095 672.244L695.133 690.205C693.623 691.716 693.623 694.163 695.133 695.672L721.33 721.867C722.838 723.376 725.284 723.376 726.795 721.867L752.869 695.793C754.378 694.284 754.378 691.835 752.869 690.327Z" fill="#DE4C36"/>
</g>
<g clip-path="url(#clip15)">
<path d="M37.2682 224.298L65.2275 244.453L61.5062 278.2L29.8269 291.779L1.86767 271.623L5.58895 237.877L37.2682 224.298Z" fill="white"/>
<path d="M56.3125 276.444L31.3381 287.164L32.4796 276.812L48.0201 270.359L56.3125 276.444ZM58.0817 275.17L61.1491 247.354L52.0049 251.368L50.032 269.26L58.0817 275.17ZM7.22893 271.032L29.2688 286.925L30.4104 276.572L16.648 266.9L7.22893 271.032ZM5.77988 269.403L8.84725 241.587L16.897 247.497L14.924 265.389L5.77988 269.403ZM10.0473 239.897L35.6654 228.918L34.561 238.932L18.1744 245.724L18.0432 245.778L10.0473 239.897ZM60.3349 245.442L37.7358 229.146L36.6315 239.161L51.1319 249.37L51.2482 249.451L60.3349 245.442Z" fill="#8ED6FB"/>
<path d="M30.6697 274.22L17.0987 264.672L18.8346 248.929L32.3634 258.861L30.6697 274.22ZM32.7402 274.449L48.0645 268.098L49.8016 252.344L34.4339 259.089L32.7402 274.449ZM20.0034 247.213L35.3989 240.836L49.0237 250.413L33.596 257.186L20.0034 247.213Z" fill="#1C78C0"/>
</g>
<g clip-path="url(#clip16)">
<path d="M242.767 337.619L238 367.238L267.619 372.004L297.238 376.771L302.004 347.152L306.771 317.533L277.152 312.767L247.533 308L242.767 337.619Z" fill="#007ACC"/>
<path d="M255.835 339.924L255.426 342.346L259.281 342.967L263.136 343.587L261.373 354.542L259.61 365.496L262.337 365.935L265.064 366.374L266.827 355.419L268.59 344.465L272.445 345.085L276.3 345.706L276.683 343.327C276.895 342.01 277.043 340.906 277.01 340.872C276.988 340.829 272.299 340.056 266.609 339.149L256.252 337.512L255.835 339.924Z" fill="white"/>
<path d="M290.934 343.022C292.378 343.641 293.418 344.493 294.295 345.753C294.747 346.424 295.384 347.617 295.409 347.881C295.416 347.959 292.561 349.275 290.845 349.992C290.782 350.021 290.596 349.74 290.402 349.323C289.819 348.091 289.097 347.483 287.889 347.201C286.112 346.79 284.804 347.544 284.561 349.116C284.487 349.577 284.509 349.86 284.636 350.266C284.9 351.148 285.554 351.755 287.698 353.122C291.645 355.629 293.266 357.125 294.119 359.017C295.072 361.129 294.863 364.221 293.643 366.349C292.306 368.661 289.705 369.96 286.334 369.987C285.29 370.002 282.887 369.586 281.828 369.213C279.518 368.407 277.45 366.869 276.307 365.103C275.858 364.413 275.048 362.672 275.132 362.57C275.167 362.537 275.435 362.425 275.734 362.309C276.021 362.201 277.11 361.788 278.138 361.394L279.999 360.681L280.272 361.265C280.647 362.107 281.57 363.326 282.172 363.78C283.902 365.081 286.52 365.357 287.983 364.416C288.609 364.005 288.918 363.524 289.04 362.763C289.151 362.076 289.114 361.762 288.84 361.187C288.486 360.455 287.634 359.749 285.15 358.162C282.306 356.354 281.121 355.324 280.127 353.833C279.552 352.969 279.087 351.659 278.977 350.609C278.886 349.736 279.167 347.63 279.482 346.813C280.587 343.962 283.147 342.261 286.461 342.168C287.536 342.138 289.95 342.604 290.934 343.022Z" fill="white"/>
</g>
<g clip-path="url(#clip17)">
<path d="M1076.46 762.451C1076.46 762.451 1073.81 764.777 1079.05 764.366C1085.4 763.864 1088.55 763.143 1095.15 760.513C1095.15 760.513 1097.16 761.29 1099.87 761.777C1085.81 771.346 1065.07 768.169 1076.46 762.451Z" fill="#5382A1"/>
<path d="M1072.91 754.235C1072.91 754.235 1070.04 757.377 1075.27 756.907C1082.04 756.298 1087.29 755.332 1096.02 751.818C1096.02 751.818 1097.52 752.844 1099.63 753.155C1082.14 762.198 1060.5 761.231 1072.91 754.235Z" fill="#5382A1"/>
<path d="M1085.88 736.596C1090.51 740.211 1086.5 745.059 1086.5 745.059C1086.5 745.059 1095.13 738.231 1089.52 732.885C1084.27 727.901 1080.55 725.642 1095.71 712.393C1095.71 712.393 1070.19 724.328 1085.88 736.596Z" fill="#E76F00"/>
<path d="M1111.93 762.123C1111.93 762.123 1114.5 763.517 1110.12 765.839C1101.78 770.249 1073.94 776.521 1065.5 774.652C1062.46 773.981 1067.38 771.27 1068.96 770.594C1070.6 769.885 1071.6 769.763 1071.6 769.763C1068.06 768.178 1052.34 777.985 1064.17 777.608C1096.45 776.58 1120.75 764.201 1111.93 762.123Z" fill="#5382A1"/>
<path d="M1074.5 744.697C1074.5 744.697 1060.91 750.859 1070.35 750.293C1074.34 750.056 1082.06 748.428 1089.15 746.417C1094.95 744.769 1100.67 742.558 1100.67 742.558C1100.67 742.558 1098.76 743.853 1097.46 745.174C1083.73 751.799 1055.44 755.48 1062.73 750.019C1068.89 745.403 1074.5 744.697 1074.5 744.697Z" fill="#5382A1"/>
<path d="M1102.84 753.998C1116.05 743.488 1107.82 737.471 1103.27 739.386C1102.15 739.855 1101.67 740.166 1101.67 740.166C1101.67 740.166 1101.97 739.405 1102.74 738.951C1111.49 733.82 1121.25 745.447 1102.62 754.44C1102.62 754.441 1102.8 754.193 1102.84 753.998Z" fill="#5382A1"/>
<path d="M1082.77 698.3C1082.77 698.3 1092.5 704.858 1079.08 720.48C1068.31 733.011 1079.25 736.825 1083.43 742.807C1074.69 737.554 1068.09 732.718 1070.68 726.514C1074.47 717.407 1088.58 710.599 1082.77 698.3Z" fill="#E76F00"/>
<path d="M1082.77 779.406C1097.06 777.557 1118.46 771.925 1117.67 765.146C1117.67 765.146 1117.18 767.87 1106.89 771.963C1095.28 776.58 1080.37 779.213 1071.28 779.479C1071.28 779.479 1073.37 780.621 1082.77 779.406Z" fill="#5382A1"/>
</g>
<defs>
<linearGradient id="paint0_linear" x1="1105.11" y1="168.108" x2="1130.51" y2="201.224" gradientUnits="userSpaceOnUse">
<stop stop-color="#387EB8"/>
<stop offset="1" stop-color="#366994"/>
</linearGradient>
<linearGradient id="paint1_linear" x1="1120.59" y1="189.259" x2="1148.07" y2="223.412" gradientUnits="userSpaceOnUse">
<stop stop-color="#FFE052"/>
<stop offset="1" stop-color="#FFC331"/>
</linearGradient>
<linearGradient id="paint2_linear" x1="20.0921" y1="764.264" x2="54.4759" y2="740.249" gradientUnits="userSpaceOnUse">
<stop stop-color="#EC0B8E"/>
<stop offset="0.4006" stop-color="#EB0B8E"/>
<stop offset="0.7036" stop-color="#A11D8B"/>
<stop offset="1" stop-color="#5C2E88"/>
</linearGradient>
<radialGradient id="paint3_radial" cx="0" cy="0" r="1" gradientUnits="userSpaceOnUse" gradientTransform="translate(48.8996 731.016) rotate(12.0269) scale(28.7198 28.7197)">
<stop stop-color="#EC0B8E"/>
<stop offset="0.1599" stop-color="#E80C8E"/>
<stop offset="0.3277" stop-color="#DB0F8D"/>
<stop offset="0.499" stop-color="#C6148C"/>
<stop offset="0.6729" stop-color="#A91B8B"/>
<stop offset="0.8469" stop-color="#83248A"/>
<stop offset="1" stop-color="#5C2E88"/>
</radialGradient>
<linearGradient id="paint4_linear" x1="35.7387" y1="723.842" x2="48.2597" y2="726.467" gradientUnits="userSpaceOnUse">
<stop stop-color="#EC0B8E"/>
<stop offset="0.3678" stop-color="#E10E8F"/>
<stop offset="0.9993" stop-color="#C41693"/>
</linearGradient>
<clipPath id="clip0">
<rect width="60" height="63.75" fill="white" transform="translate(0 475.502) rotate(-14.9732)"/>
</clipPath>
<clipPath id="clip1">
<rect width="60" height="51.7969" fill="white" transform="translate(172.055 111) rotate(8.94679)"/>
</clipPath>
<clipPath id="clip2">
<rect width="60" height="59.7656" fill="white" transform="translate(1100.1 162) rotate(7.79199)"/>
</clipPath>
<clipPath id="clip3">
<rect width="60" height="60" fill="white" transform="translate(702.578 480) rotate(14.0614)"/>
</clipPath>
<clipPath id="clip4">
<rect width="60" height="60" fill="white" transform="translate(599.309 731) rotate(22.8601)"/>
</clipPath>
<clipPath id="clip5">
<rect width="60" height="59.2969" fill="white" transform="translate(22.1671 710) rotate(11.8406)"/>
</clipPath>
<clipPath id="clip6">
<rect width="60" height="60" fill="white" transform="translate(1203 538.253) rotate(-6.94282)"/>
</clipPath>
<clipPath id="clip7">
<rect width="60" height="84.6094" fill="white" transform="translate(398.961 681) rotate(7.44344)"/>
</clipPath>
<clipPath id="clip8">
<rect width="60" height="84.6094" fill="white" transform="translate(843 767.521) rotate(-9.13072)"/>
</clipPath>
<clipPath id="clip9">
<rect width="60" height="30.7031" fill="white" transform="translate(1070.08) rotate(13.3349)"/>
</clipPath>
<clipPath id="clip10">
<rect width="60" height="61.875" fill="white" transform="translate(19 27)"/>
</clipPath>
<clipPath id="clip11">
<rect width="60" height="61.875" fill="white" transform="translate(953 551.677) rotate(-11.2225)"/>
</clipPath>
<clipPath id="clip12">
<rect width="60" height="60" fill="white" transform="translate(237.571 543) rotate(8.21307)"/>
</clipPath>
<clipPath id="clip13">
<rect width="60" height="45" fill="white" transform="translate(1287.19 8) rotate(15.7173)"/>
</clipPath>
<clipPath id="clip14">
<rect width="60" height="60" fill="white" transform="translate(694 663)"/>
</clipPath>
<clipPath id="clip15">
<rect width="60" height="67.9688" fill="white" transform="translate(7.44995 221) rotate(6.2927)"/>
</clipPath>
<clipPath id="clip16">
<rect width="60" height="60" fill="white" transform="translate(247.533 308) rotate(9.14236)"/>
</clipPath>
<clipPath id="clip17">
<rect width="59.1907" height="80" fill="white" transform="translate(1045.89 705.405) rotate(-11.0358)"/>
</clipPath>
</defs>
</svg>
