<svg width="1500" height="1000" viewBox="0 0 1500 1000" fill="none" xmlns="http://www.w3.org/2000/svg">
<g clip-path="url(#clip0)">
<rect width="1500" height="4500" transform="translate(0 -1032)" fill="#222F3E"/>
<circle cx="1139" cy="481" r="30" fill="#EE5253" fill-opacity="0.75"/>
<path d="M340.022 802.233L335.44 853.992L292.906 824.144L340.022 802.233Z" fill="#5F27CD" fill-opacity="0.75"/>
<path d="M1366 823L1396 853L1366 883L1336 853L1366 823Z" fill="#48DBFB" fill-opacity="0.5"/>
<path d="M598.434 517.149L600.035 538.886L621.204 544.08L601.025 552.321L602.627 574.058L588.554 557.414L568.376 565.654L579.857 547.127L565.784 530.482L586.952 535.676L598.434 517.149Z" fill="#FECA57" fill-opacity="0.75"/>
<g clip-path="url(#clip1)">
<path d="M96.7792 569.803L122.55 552.036L154.468 554.181L159.811 593.135L138.927 613.269L111.211 606.326L96.7792 569.803Z" fill="#E23237"/>
<path d="M154.468 554.181L122.55 552.036L138.927 613.269L159.817 593.157L154.468 554.181Z" fill="#B52E31"/>
<path d="M124.507 559.173L117.319 603.412L123.92 601.525L125.101 591.664L132.679 589.637L132.701 589.631L141.024 587.405L147.338 595.383L153.706 593.801L124.507 559.173ZM127.936 571.814L137.289 582.749L131.538 584.287L131.245 584.365L126.012 585.765L127.936 571.814Z" fill="white"/>
</g>
<path d="M1374 409C1379.52 409 1384 404.52 1384 399V389H1374C1368.48 389 1364 393.48 1364 399C1364 404.52 1368.48 409 1374 409Z" fill="#0ACF83"/>
<path d="M1364 379C1364 373.48 1368.48 369 1374 369H1384V389H1374C1368.48 389 1364 384.52 1364 379Z" fill="#A259FF"/>
<path d="M1364 359C1364 353.48 1368.48 349 1374 349H1384V369H1374C1368.48 369 1364 364.52 1364 359Z" fill="#F24E1E"/>
<path d="M1384 349H1394C1399.52 349 1404 353.48 1404 359C1404 364.52 1399.52 369 1394 369H1384V349Z" fill="#FF7262"/>
<path d="M1404 379C1404 384.52 1399.52 389 1394 389C1388.48 389 1384 384.52 1384 379C1384 373.48 1388.48 369 1394 369C1399.52 369 1404 373.48 1404 379Z" fill="#1ABCFE"/>
<g clip-path="url(#clip2)">
<path d="M313.471 202.465L325.325 204.331L287.642 250.786L266.055 195L277.761 196.843L288.726 198.569L293.824 211.52L302.506 200.739L313.471 202.465Z" fill="#41B883"/>
<path d="M266.055 195L287.642 250.786L325.325 204.331L313.471 202.465L290.861 230.338L277.761 196.843L266.055 195Z" fill="#41B883"/>
<path d="M277.761 196.843L290.838 230.486L313.471 202.465L302.506 200.739L293.824 211.52L288.726 198.569L277.761 196.843Z" fill="#35495E"/>
</g>
<g clip-path="url(#clip3)">
<path d="M1223.57 250.05C1208.52 247.99 1208.56 254.647 1208.56 254.647L1207.65 261.413L1222.02 263.379L1221.74 265.409L1201.67 262.663C1201.67 262.663 1192.19 260.252 1190.11 275.442C1188.03 290.633 1196.51 291.245 1196.51 291.245L1201.53 291.931L1202.49 284.882C1202.49 284.882 1203.37 276.437 1211.92 277.606L1226.17 279.556C1226.17 279.556 1234.16 280.781 1235.23 272.914L1237.01 259.908C1237.01 259.908 1239.3 252.203 1223.57 250.05ZM1215.03 253.514C1216.46 253.709 1217.45 255.023 1217.26 256.452C1217.06 257.882 1215.75 258.879 1214.32 258.683C1212.89 258.487 1211.89 257.174 1212.09 255.745C1212.28 254.315 1213.6 253.318 1215.03 253.514Z" fill="url(#paint0_linear)"/>
<path d="M1215.93 309.102C1230.98 311.162 1230.93 304.505 1230.93 304.505L1231.84 297.739L1217.48 295.773L1217.75 293.742L1237.83 296.489C1237.83 296.489 1247.31 298.9 1249.39 283.71C1251.47 268.519 1242.99 267.907 1242.99 267.907L1237.97 267.221L1237 274.27C1237 274.27 1236.12 282.715 1227.58 281.546L1213.33 279.596C1213.33 279.596 1205.34 278.371 1204.27 286.237L1202.49 299.244C1202.49 299.244 1200.19 306.949 1215.93 309.102ZM1224.47 305.638C1223.04 305.442 1222.04 304.129 1222.24 302.7C1222.44 301.27 1223.75 300.273 1225.18 300.469C1226.61 300.664 1227.6 301.978 1227.41 303.407C1227.21 304.836 1225.9 305.834 1224.47 305.638Z" fill="url(#paint1_linear)"/>
</g>
<g clip-path="url(#clip4)">
<path d="M783.88 614.698C782.841 618.843 785.36 623.044 789.505 624.082L832.698 634.9C836.843 635.938 841.044 633.42 842.082 629.275L852.9 586.082C853.938 581.937 851.42 577.736 847.275 576.698L804.082 565.88C799.937 564.841 795.736 567.36 794.698 571.505L783.88 614.698Z" fill="#563D7C"/>
<path d="M814.265 595.79L816.329 587.548L823.584 589.365C824.275 589.538 824.927 589.762 825.54 590.038C826.153 590.314 826.669 590.662 827.088 591.082C827.507 591.501 827.799 592.012 827.964 592.612C828.128 593.213 828.107 593.924 827.901 594.747C827.53 596.228 826.818 597.186 825.765 597.621C824.712 598.057 823.494 598.102 822.112 597.755L814.265 595.79ZM810.088 579.585L801.262 614.825L818.339 619.102C819.918 619.498 821.506 619.686 823.102 619.666C824.698 619.646 826.183 619.371 827.557 618.841C828.931 618.311 830.127 617.483 831.143 616.356C832.16 615.229 832.89 613.778 833.335 612.001C833.888 609.796 833.825 607.779 833.147 605.948C832.469 604.117 831.122 602.617 829.107 601.448C830.876 601.087 832.312 600.415 833.415 599.432C834.518 598.45 835.292 597.07 835.737 595.293C836.149 593.648 836.223 592.198 835.961 590.944C835.698 589.689 835.158 588.601 834.339 587.679C833.521 586.757 832.458 585.975 831.151 585.333C829.843 584.691 828.35 584.159 826.672 583.739L810.088 579.585ZM810.519 610.745L812.942 601.071L821.382 603.185C823.06 603.605 824.312 604.33 825.138 605.358C825.965 606.387 826.151 607.806 825.698 609.616C825.467 610.537 825.121 611.255 824.66 611.769C824.199 612.283 823.662 612.647 823.049 612.86C822.437 613.074 821.766 613.168 821.038 613.143C820.31 613.118 819.567 613.011 818.811 612.821L810.519 610.745Z" fill="white"/>
</g>
<g clip-path="url(#clip5)">
<path d="M698.453 826.295C713.838 820.318 731.184 827.966 737.137 843.408C739.003 842.318 740.771 840.986 742.278 839.478C741.287 851.523 739.65 861.286 735.951 867.834C733.107 873.469 728.48 878.085 722.854 880.94C708.176 888.421 690.143 882.56 682.662 867.881L682.523 867.59L682.515 867.577C682.489 867.537 682.464 867.495 682.441 867.453C682.369 867.326 682.311 867.196 682.265 867.063L682.249 867.015L682.022 866.539C681.796 866.087 681.57 865.634 681.4 865.158L681.34 864.979C675.363 849.594 683.068 832.271 698.453 826.295ZM686.934 865.059C686.246 863.831 684.719 863.321 683.49 864.009C682.41 864.614 681.886 865.868 682.243 866.997L682.249 867.015L682.523 867.59L682.554 867.638C683.273 868.711 684.668 869.14 685.821 868.537L685.884 868.503C687.113 867.814 687.566 866.263 686.934 865.059ZM740.794 842.202C735.431 846.977 726.457 848.554 719.77 847.41C713.448 846.353 708.921 843.104 702.767 842.922C688.763 842.445 682.946 856.878 688.178 862.903L688.48 863.299C688.48 863.299 693.647 864.361 698.889 865.096L699.338 865.159C701.435 865.445 703.521 865.673 705.269 865.753C714.344 866.162 726.014 862.639 732.36 855.532C727.235 863.556 716.256 868.777 707.196 869.447C702.35 869.816 699.086 868.976 691.584 868.493C690.667 868.442 689.922 868.463 689.922 868.463C690.006 868.485 690.09 868.508 690.174 868.531L690.342 868.578L690.509 868.625C692.029 869.055 693.365 869.512 693.365 869.512C702.831 872.967 716.1 882.18 726.684 875.988C737.511 869.698 739.927 853.16 740.794 842.202Z" fill="#6DB33F"/>
<path d="M686.934 865.059C687.566 866.263 687.113 867.814 685.884 868.503C684.656 869.191 683.129 868.681 682.441 867.453C681.752 866.225 682.262 864.697 683.49 864.009C684.719 863.321 686.246 863.831 686.934 865.059ZM740.794 842.202C739.927 853.16 737.511 869.698 726.684 875.988C716.1 882.18 702.831 872.967 693.365 869.512C693.365 869.512 692.029 869.055 690.509 868.624L690.342 868.578C690.203 868.539 690.062 868.5 689.922 868.463C689.922 868.463 690.667 868.442 691.584 868.493C699.086 868.976 702.35 869.816 707.196 869.447C716.256 868.777 727.235 863.556 732.36 855.532C726.014 862.639 714.344 866.162 705.269 865.753C699.025 865.466 688.48 863.299 688.48 863.299L688.178 862.903C682.946 856.878 688.763 842.445 702.767 842.921C708.921 843.104 713.448 846.353 719.77 847.41C726.457 848.554 735.431 846.977 740.794 842.202Z" fill="white"/>
</g>
<g clip-path="url(#clip6)">
<path d="M111.859 831.372C111.442 827.375 111.924 823.349 113.471 819.425C114.125 817.8 114.927 816.279 115.78 814.744C115.78 814.744 121.166 804.939 132.966 802.417C132.966 802.417 137.1 801.232 142.724 802.266C142.724 802.266 142.116 801.367 141.699 800.941C139.431 798.631 135.622 797.229 132.722 799.204C131.851 799.794 131.08 800.477 130.254 801.076C129.317 801.748 128.247 802.248 127.101 802.418C126.103 802.571 125.193 802.308 124.211 802.271C123.206 802.229 122.139 802.368 121.223 802.827C120.222 803.341 119.681 804.194 119.366 805.238C119.099 806.051 118.942 806.911 118.722 807.734C118.092 810.16 117.161 810.689 115.118 811.685C114.262 812.084 113.482 812.693 112.855 813.382C110.954 815.542 112.64 818.551 112.237 821.049C112.154 821.562 112.001 822.061 111.714 822.508C111.418 823.001 110.975 823.27 110.583 823.647C110.045 824.137 109.622 824.773 109.588 825.514C109.553 826.255 109.782 827.003 109.998 827.7C110.436 828.95 111.06 830.119 111.74 831.251C111.791 831.237 111.823 831.317 111.859 831.372Z" fill="#ED168F"/>
<path d="M154.114 849.475C159.916 848.278 163.02 844.753 163.02 844.753C169.411 839.021 169.221 831.523 169.221 831.523C164.609 837.749 161.322 839.039 161.322 839.039C171.6 828.812 165.357 820.021 165.357 820.021C167.109 827.436 161.176 834.785 161.176 834.785C156.078 841.488 150.504 843.095 150.504 843.095C155.88 845.308 160.786 842.402 160.786 842.402C150.946 849.39 142.34 847.152 142.34 847.152C145.135 852.01 150.687 852.812 150.687 852.812C143.166 852.997 136.938 849.205 132.377 843.446C131.516 842.372 130.716 841.239 129.999 840.051C129.999 840.051 129.351 838.998 129.238 838.733L129.22 838.705C128.207 842.958 131.836 847.87 131.836 847.87C126.726 844.385 125.211 838.83 125.211 838.83C125.211 838.83 122.79 831.613 127.055 824.855C131.319 818.098 139.903 818.256 139.903 818.256C146.03 822.992 151.591 825.245 151.591 825.245C163.348 829.834 163.905 823.723 163.905 823.723C165.097 818.615 158.496 811.535 158.496 811.535C146.836 798.422 132.961 802.44 132.961 802.44C121.161 804.962 115.775 814.767 115.775 814.767C114.922 816.302 114.12 817.823 113.466 819.448C110.847 826.068 111.265 832.937 113.915 839.527C118.045 849.758 127.152 854.901 127.152 854.901C140.573 862.832 151.958 857.688 151.958 857.688C162.352 853.351 165.691 846.52 165.691 846.52C157.165 850.694 154.114 849.475 154.114 849.475ZM149.904 813.378C150.597 813.523 151.036 814.194 150.89 814.888C150.745 815.582 150.074 816.02 149.38 815.875C148.687 815.729 148.248 815.058 148.394 814.365C148.539 813.671 149.21 813.232 149.904 813.378Z" fill="url(#paint2_linear)"/>
<path d="M163.887 823.695C165.079 818.587 158.478 811.507 158.478 811.507C146.818 798.394 132.943 802.412 132.943 802.412C121.143 804.934 115.757 814.739 115.757 814.739C114.759 816.388 113.632 819 113.632 819C112.244 822.281 111.881 825.512 111.881 825.512C111.523 828.599 111.767 830.774 111.767 830.774C112.005 833.093 112.188 833.831 112.188 833.831C112.18 833.757 112.171 833.224 112.171 833.224C112.171 833.224 112.179 828.35 114.021 824.054C114.021 824.054 115.786 819.548 119.733 816.61C119.733 816.61 126.458 810.321 135.492 815.232C135.492 815.232 137.418 816.408 138.057 816.928C138.696 817.448 139.838 818.219 139.838 818.219C145.965 822.955 151.527 825.207 151.527 825.207C163.33 829.806 163.887 823.695 163.887 823.695ZM149.375 815.898C148.682 815.753 148.243 815.081 148.389 814.388C148.534 813.694 149.205 813.256 149.899 813.401C150.592 813.546 151.031 814.218 150.885 814.911C150.74 815.605 150.069 816.043 149.375 815.898Z" fill="url(#paint3_radial)"/>
<path d="M142.462 809.501L135.092 805.397C135.046 805.387 134.839 805.223 134.399 805.252C134.399 805.252 129.505 805.457 129.781 808.169C129.781 808.169 129.932 809.866 130.925 811.692L139.682 813.093L142.462 809.501Z" fill="url(#paint4_linear)"/>
</g>
<g clip-path="url(#clip7)">
<path d="M1297 622.253L1356.56 615L1363.81 674.56L1304.25 681.813L1297 622.253Z" fill="#F7DF1E"/>
<path d="M1318.72 670.118L1322.94 666.805C1324.01 668.257 1324.97 669.479 1326.89 669.245C1328.73 669.021 1329.8 668.16 1329.46 665.362L1327.14 646.331L1332.74 645.65L1335.07 664.76C1335.77 670.557 1332.7 673.609 1327.74 674.213C1323.26 674.758 1320.38 672.756 1318.72 670.118" fill="black"/>
<path d="M1338.44 667.108L1342.68 663.915C1344.11 665.728 1345.85 666.977 1348.61 666.641C1350.93 666.359 1352.26 665.019 1352.07 663.42C1351.84 661.501 1350.23 661.006 1347.54 660.199L1346.07 659.769C1341.82 658.542 1338.88 656.709 1338.32 652.151C1337.81 647.953 1340.62 644.365 1345.62 643.757C1349.18 643.324 1351.89 644.251 1354.12 647.266L1350.1 650.595C1348.93 648.993 1347.81 648.44 1346.21 648.635C1344.57 648.834 1343.66 650 1343.83 651.359C1344.03 653.039 1345.15 653.592 1347.68 654.339L1349.15 654.769C1354.16 656.228 1357.09 657.981 1357.66 662.659C1358.27 667.696 1354.65 670.937 1349.33 671.584C1344.13 672.217 1340.47 670.147 1338.44 667.108" fill="black"/>
</g>
<g clip-path="url(#clip8)">
<path d="M550.203 789.205L536.897 849.007L511.739 852.566L488.405 842.681L490.916 781.459L550.203 789.205Z" fill="#E44D26"/>
<path d="M512.447 847.426L532.776 844.55L544.147 793.447L519.913 790.281L512.447 847.426Z" fill="#F16529"/>
<path d="M507.474 803.753L517.974 805.125L518.943 797.703L500.332 795.271L500.25 797.286L499.402 817.978L516.011 820.148L516.981 812.725L507.159 811.442L507.474 803.753Z" fill="#EBEBEB"/>
<path d="M506.699 822.706L499.248 821.732L498.766 833.522L513.418 839.729L513.453 839.724L514.462 832.002L514.429 832.006L506.454 828.694L506.699 822.706Z" fill="#EBEBEB"/>
<path d="M498.581 765.734L502.352 766.227L501.865 769.954L505.316 770.404L505.803 766.678L509.575 767.171L508.1 778.456L504.329 777.963L504.822 774.184L501.372 773.733L500.878 777.512L497.106 777.019L498.581 765.734L498.581 765.734Z" fill="black"/>
<path d="M514.046 771.561L510.725 771.127L511.214 767.385L521.629 768.745L521.14 772.488L517.818 772.054L516.833 779.596L513.061 779.104L514.046 771.561L514.046 771.561Z" fill="black"/>
<path d="M523.282 768.961L527.215 769.475L529.116 773.757L532.051 770.107L535.986 770.621L534.511 781.906L530.755 781.415L531.486 775.822L528.367 779.495L528.302 779.487L526.229 775.135L525.498 780.729L521.808 780.246L523.282 768.961Z" fill="black"/>
<path d="M537.863 770.866L541.636 771.359L540.649 778.914L545.953 779.607L545.466 783.337L536.388 782.151L537.863 770.866Z" fill="black"/>
<path d="M515.985 820.144L525.125 821.338L523.006 830.852L514.436 832.005L513.427 839.726L529.194 837.497L529.469 836.258L533.766 816.946L534.208 814.976L516.955 812.722L515.985 820.144Z" fill="white"/>
<path d="M517.95 805.104L517.948 805.122L535.876 807.464L536.243 805.815L537.073 802.097L537.51 800.129L518.918 797.699L517.95 805.104Z" fill="white"/>
</g>
<g clip-path="url(#clip9)">
<path d="M1081.98 882.093L1056.79 879.275L1041.73 819.88L1100.77 810.392L1105.07 871.505L1081.98 882.093Z" fill="#264DE4"/>
<path d="M1099.85 868.409L1096.17 816.185L1072.04 820.063L1081.19 876.964L1099.85 868.409Z" fill="#2965F1"/>
<path d="M1058.44 845.177L1060.29 852.46L1076.82 849.802L1075.64 842.412L1058.44 845.177Z" fill="#EBEBEB"/>
<path d="M1054.7 830.432L1056.56 837.715L1074.42 834.844L1073.23 827.454L1054.7 830.432Z" fill="#EBEBEB"/>
<path d="M1078.72 861.606L1078.69 861.619L1070.1 860.72L1068.63 854.91L1061.21 856.103L1064.11 867.54L1079.92 869.31L1079.96 869.295L1078.72 861.606Z" fill="#EBEBEB"/>
<path d="M1053 801.272L1061.95 799.833L1062.55 803.576L1057.34 804.413L1057.94 808.156L1063.15 807.319L1063.75 811.063L1054.8 812.501L1053 801.272Z" fill="black"/>
<path d="M1063.74 799.545L1072.69 798.107L1073.21 801.362L1068 802.199L1068.11 802.85L1073.32 802.013L1074.52 809.499L1065.57 810.938L1065.02 807.52L1070.23 806.683L1070.12 806.032L1064.91 806.869L1063.74 799.545Z" fill="black"/>
<path d="M1074.48 797.819L1083.43 796.38L1083.95 799.635L1078.75 800.472L1078.85 801.123L1084.06 800.286L1085.26 807.772L1076.31 809.211L1075.76 805.793L1080.97 804.956L1080.86 804.305L1075.66 805.142L1074.48 797.819Z" fill="black"/>
<path d="M1092.79 839.655L1091.72 824.482L1073.21 827.458L1074.39 834.848L1084.81 833.174L1085.35 840.85L1075.61 842.416L1076.8 849.806L1085.9 848.344L1086.58 858.066L1078.7 861.616L1079.93 869.305L1094.41 862.671L1094.32 861.404L1092.93 841.669L1092.79 839.655Z" fill="white"/>
</g>
<g clip-path="url(#clip10)">
<path d="M1178.26 88.3732C1178.56 88.0641 1178.92 87.7841 1179.35 87.7086C1179.52 87.7188 1179.68 87.7713 1179.84 87.8097L1187.81 89.6993C1187.53 89.8414 1187.26 89.9922 1187.04 90.2231C1186.47 90.7953 1186.02 91.4767 1185.59 92.1631C1184.34 94.2465 1183.29 96.4449 1182.25 98.6467C1181.79 99.6443 1181.33 100.651 1180.88 101.653C1179.46 104.946 1178.02 108.228 1176.43 111.444C1175.69 112.926 1174.93 114.406 1174 115.783C1173.58 116.347 1173.16 116.954 1172.54 117.297C1172.39 117.374 1172.24 117.48 1172.08 117.418L1165.04 115.749C1164.56 115.622 1164.08 115.552 1163.61 115.389C1163.99 115.218 1164.34 114.989 1164.6 114.68C1165.37 113.798 1165.96 112.785 1166.54 111.776C1167.44 110.146 1168.26 108.472 1169.05 106.793C1169.56 105.686 1170.1 104.596 1170.55 103.467C1171.05 102.209 1171.64 100.989 1172.18 99.7479C1173 97.9262 1173.84 96.1094 1174.72 94.3168C1175.42 92.9197 1176.12 91.5313 1176.93 90.1994C1177.33 89.5573 1177.75 88.9272 1178.26 88.3732Z" fill="#EB7077" stroke="#EB7077" stroke-width="0.09375"/>
<path d="M1187.81 89.6993C1188.02 89.7478 1188.22 89.7891 1188.42 89.8446C1188.82 90.1909 1189.11 90.6613 1189.21 91.1832C1189.36 91.7852 1189.46 92.4037 1189.54 93.0313C1189.72 95.3743 1189.67 97.7274 1189.62 100.073C1189.56 102.17 1189.47 104.269 1189.36 106.37C1189.36 106.482 1189.29 106.622 1189.42 106.684C1188.29 109.211 1187.16 111.748 1185.9 114.224C1185.22 115.558 1184.52 116.88 1183.68 118.123C1183.23 118.739 1182.77 119.417 1182.06 119.761C1181.65 119.755 1181.45 119.402 1181.28 119.086C1181 118.477 1180.9 117.813 1180.8 117.15C1180.52 114.792 1180.57 112.417 1180.61 110.046C1180.65 108.204 1180.74 106.358 1180.81 104.516C1180.87 103.584 1180.87 102.654 1180.96 101.731C1180.94 101.712 1180.9 101.672 1180.88 101.653C1181.33 100.651 1181.79 99.6444 1182.25 98.6468C1183.29 96.445 1184.34 94.2465 1185.59 92.1632C1186.02 91.4768 1186.47 90.7954 1187.04 90.2232C1187.26 89.9923 1187.53 89.8414 1187.81 89.6993Z" fill="#F6A2AD" stroke="#F6A2AD" stroke-width="0.09375"/>
<path d="M1196.33 93.006C1196.7 92.5802 1197.14 92.1114 1197.73 92.0585C1200.53 92.7071 1203.33 93.3768 1206.12 94.0396C1205.8 94.2384 1205.46 94.4338 1205.21 94.7231C1204.44 95.5664 1203.86 96.5688 1203.29 97.5554C1201.76 100.288 1200.47 103.143 1199.2 106.004C1197.99 108.833 1196.74 111.653 1195.42 114.442C1194.74 115.844 1194.06 117.235 1193.28 118.591C1192.79 119.428 1192.29 120.268 1191.64 120.999C1191.33 121.328 1190.98 121.683 1190.52 121.782C1187.84 121.17 1185.17 120.515 1182.5 119.889C1182.35 119.854 1182.2 119.817 1182.06 119.761C1182.77 119.417 1183.23 118.739 1183.68 118.123C1184.52 116.88 1185.22 115.558 1185.9 114.224C1187.16 111.748 1188.29 109.211 1189.42 106.684C1190.85 103.413 1192.3 100.149 1193.91 96.9698C1194.64 95.6021 1195.36 94.21 1196.33 93.006Z" fill="#EB7077" stroke="#EB7077" stroke-width="0.09375"/>
<path d="M1206.12 94.0395C1206.35 94.0929 1206.58 94.141 1206.81 94.2014C1207.13 94.4784 1207.31 94.8641 1207.46 95.2502C1207.7 95.946 1207.78 96.6859 1207.87 97.4133C1208.03 99.3477 1208.02 101.296 1207.99 103.237C1207.93 105.85 1207.81 108.46 1207.67 111.068C1207.64 111.694 1207.61 112.326 1207.54 112.948C1207.56 112.983 1207.6 113.053 1207.62 113.079C1207.28 113.371 1207.08 113.77 1206.85 114.138C1206.07 115.463 1205.43 116.873 1204.83 118.287C1204.37 119.397 1203.83 120.483 1203.21 121.51C1202.75 122.271 1202.23 123.011 1201.53 123.574C1201.2 123.845 1200.79 124.017 1200.37 124.096C1199.77 124.021 1199.56 123.375 1199.38 122.893C1199.04 121.733 1198.99 120.517 1198.92 119.325C1198.78 114.941 1199.06 110.551 1199.27 106.175C1199.27 106.11 1199.25 106.045 1199.2 106.004C1200.47 103.143 1201.76 100.288 1203.29 97.5554C1203.86 96.5688 1204.44 95.5664 1205.21 94.7231C1205.46 94.4338 1205.8 94.2383 1206.12 94.0395Z" fill="#F6A2AD" stroke="#F6A2AD" stroke-width="0.09375"/>
<path d="M1160.27 100.094C1160.46 100.123 1160.65 100.138 1160.84 100.183L1168.52 102.003C1168.83 102.122 1169.18 102.174 1169.45 102.388C1169.86 102.678 1170.19 103.083 1170.39 103.541C1170.43 103.528 1170.51 103.487 1170.55 103.467C1170.1 104.596 1169.56 105.686 1169.05 106.792C1168.26 108.472 1167.44 110.146 1166.54 111.776C1165.96 112.785 1165.37 113.798 1164.6 114.68C1164.34 114.989 1163.99 115.218 1163.61 115.389C1163.49 115.382 1163.41 115.276 1163.33 115.189C1163.05 114.899 1162.95 114.488 1162.82 114.108C1162.38 111.683 1162.85 109.228 1162.79 106.79C1162.76 105.57 1162.66 104.341 1162.36 103.154C1162.17 102.44 1161.9 101.736 1161.47 101.122C1161.15 100.703 1160.75 100.332 1160.27 100.094Z" fill="#F6A2AD" stroke="#F6A2AD" stroke-width="0.09375"/>
<path d="M1208.46 112.289C1209.02 111.894 1209.76 111.734 1210.42 111.921L1216.2 113.29C1217 113.494 1217.82 113.644 1218.61 113.884C1218.33 113.989 1218.03 113.984 1217.74 114.058C1216.77 114.25 1215.85 114.741 1215.18 115.465C1214.09 116.621 1213.46 118.093 1212.88 119.547C1212.3 120.972 1211.95 122.502 1211.13 123.826C1210.56 124.756 1209.83 125.653 1208.82 126.113C1206.17 125.514 1203.52 124.865 1200.88 124.246C1200.71 124.204 1200.53 124.171 1200.37 124.096C1200.79 124.017 1201.2 123.845 1201.53 123.574C1202.23 123.011 1202.75 122.271 1203.21 121.51C1203.83 120.483 1204.37 119.397 1204.83 118.287C1205.43 116.873 1206.07 115.463 1206.85 114.138C1207.08 113.77 1207.28 113.371 1207.62 113.079C1207.9 112.819 1208.13 112.493 1208.46 112.289Z" fill="#EB7077" stroke="#EB7077" stroke-width="0.09375"/>
</g>
<g clip-path="url(#clip11)">
<path d="M123.778 171.107L113 171.481L118.525 165.863L123.778 171.107L123.778 171.107Z" fill="#F15A24"/>
<path d="M172.667 143.245C170.665 158.858 156.384 169.888 140.774 167.884C125.162 165.881 114.131 151.6 116.134 135.989C118.137 120.377 132.415 109.345 148.029 111.35C163.641 113.352 174.674 127.634 172.667 143.245" fill="#F15A24"/>
<path d="M151.668 131.515C153.54 133.506 151.692 138.213 151.692 138.213C151.692 138.213 149.865 144.868 139.406 153.497L137.453 151.581L150.731 138.011L150.987 137.664C151.341 137.089 151.633 131.477 151.668 131.515Z" fill="#999999"/>
<path d="M151.668 131.515C153.54 133.506 151.692 138.213 151.692 138.213C151.692 138.213 149.865 144.868 139.406 153.497L137.453 151.581L150.731 138.011L150.987 137.664C151.341 137.089 151.633 131.477 151.668 131.515Z" stroke="white" stroke-width="1.918" stroke-linecap="round" stroke-linejoin="round"/>
<path d="M134.586 148.76L151.64 131.466C152.505 132.494 152.689 133.602 152.438 135.179C152.269 136.272 150.382 138.456 150.382 138.456L137.453 151.581" fill="#666666"/>
<path d="M134.586 148.76L151.64 131.466C152.505 132.494 152.689 133.602 152.438 135.179C152.269 136.272 150.382 138.456 150.382 138.456L137.453 151.581" stroke="white" stroke-width="1.201" stroke-linecap="round" stroke-linejoin="round"/>
<path d="M151.668 131.527L134.586 148.76L134.62 148.727L134.614 148.729L130.376 144.553C139.214 133.56 144.928 131.51 144.928 131.51C144.928 131.51 148.648 130.058 151.301 131.185C151.505 131.294 151.594 131.357 151.667 131.528" fill="#FF931E"/>
<path d="M151.668 131.527L134.586 148.76L134.62 148.727L134.614 148.729L130.376 144.553C139.214 133.56 144.928 131.51 144.928 131.51C144.928 131.51 148.648 130.058 151.301 131.185C151.505 131.294 151.594 131.357 151.667 131.528L151.668 131.527Z" stroke="white" stroke-width="1.918" stroke-linecap="round" stroke-linejoin="round"/>
<path d="M139.406 153.497C135.331 156.853 130.115 162.126 123.026 165.803L124.603 172.544L117.919 165.961L134.585 148.76" fill="#999999"/>
<path d="M139.406 153.497C135.331 156.853 130.115 162.126 123.026 165.803L124.603 172.544L117.919 165.961L134.585 148.76" stroke="white" stroke-width="1.918" stroke-linecap="round" stroke-linejoin="round"/>
<path d="M130.49 144.61L134.63 148.734L125.065 150.805L130.398 144.535L130.49 144.61H130.49Z" fill="#F15A24"/>
<path d="M130.49 144.61L134.63 148.734L125.065 150.805L130.398 144.535L130.49 144.61H130.49Z" stroke="white" stroke-width="1.918" stroke-linecap="round" stroke-linejoin="round"/>
<path d="M150.037 126.527C149.631 130.192 152.27 133.492 155.936 133.901C159.598 134.308 162.902 131.667 163.31 128.002C163.718 124.338 161.074 121.034 157.41 120.627C153.744 120.222 150.444 122.86 150.037 126.527Z" fill="#999999"/>
<path d="M150.037 126.527C149.631 130.192 152.27 133.492 155.936 133.901C159.598 134.308 162.902 131.667 163.31 128.002C163.718 124.338 161.074 121.034 157.41 120.627C153.744 120.222 150.444 122.86 150.037 126.527Z" stroke="white" stroke-width="1.918" stroke-linecap="round" stroke-linejoin="round"/>
<path d="M162.351 130.954C163.583 129.155 163.519 126.462 163.272 125.664C162.969 124.688 162.29 123.099 161.106 122.273L154.845 128.041C154.845 128.041 159.657 133.211 159.782 133.228C159.834 133.234 161.228 132.595 162.351 130.954Z" fill="#666666"/>
<path d="M162.351 130.954C163.583 129.155 163.519 126.462 163.272 125.664C162.969 124.688 162.29 123.099 161.106 122.273L154.845 128.041C154.845 128.041 159.657 133.211 159.782 133.228C159.834 133.234 161.228 132.595 162.351 130.954ZM161.088 126.437C161.088 126.437 161.69 127.915 160.926 129.065L161.088 126.437Z" stroke="white" stroke-width="1.918" stroke-linecap="round" stroke-linejoin="round"/>
<path d="M137.601 151.584L130.691 152.813L134.862 148.48" fill="#666666"/>
<path d="M130.65 144.64L139.435 152.907M137.601 151.584L130.691 152.813L134.862 148.48L137.601 151.584Z" stroke="white" stroke-width="1.918" stroke-linecap="round" stroke-linejoin="round"/>
</g>
<g clip-path="url(#clip12)">
<path d="M1112.84 660.388C1112.27 659.39 1111.2 658.829 1109.97 658.887C1109.39 658.915 1108.75 659.079 1108.02 659.388C1106.74 659.927 1105.77 660.227 1105.06 660.391C1106.86 655.256 1108.04 649.578 1108.33 644.393C1108.81 636.01 1106.99 632.595 1105.38 631.207C1101.11 627.533 1095.68 626.182 1089.67 627.299C1086.47 627.894 1083.79 629.082 1082.42 629.826C1081.01 629.856 1079.51 630.013 1077.97 630.293C1075.08 630.819 1072.66 631.952 1070.74 633.675C1069.45 633.507 1067.41 633.316 1065.1 633.393C1059.68 633.573 1055.58 635.084 1052.92 637.885C1049.69 641.277 1048.87 646.222 1050.46 652.584C1050.97 654.604 1053.34 660.585 1056.31 666.115C1058.01 669.293 1059.67 671.885 1061.24 673.817C1063.46 676.558 1065.55 678.018 1067.62 678.28C1068.78 678.426 1070.8 678.288 1072.54 676.145C1072.87 676.411 1073.28 676.659 1073.8 676.861C1074.47 677.117 1075.26 677.278 1076.02 677.316C1078.75 677.45 1081.16 676.803 1083.06 675.476C1083.15 675.844 1083.23 676.196 1083.3 676.5C1083.41 676.993 1083.52 677.476 1083.63 677.927C1084.36 680.978 1085.05 683.327 1086 684.877C1086.05 684.962 1086.12 685.093 1086.2 685.232C1086.7 686.117 1087.53 687.6 1089.09 688.58C1090.71 689.595 1092.44 689.663 1093.95 689.363C1094.7 689.213 1095.4 688.971 1096.01 688.709C1098.17 687.778 1100.59 686.532 1101.92 683.523C1103.18 680.678 1103.29 676.749 1102.26 670.793C1102.25 670.621 1102.24 670.458 1102.22 670.302C1102.22 670.196 1102.21 670.089 1102.2 669.981L1102.62 669.936L1102.73 669.922C1105.05 669.57 1107.76 668.525 1109.33 667.38C1110.57 666.476 1114.48 663.3 1112.84 660.388Z" fill="black"/>
<path d="M1109.02 661.774C1102.47 664.541 1101.54 662.32 1101.54 662.32C1106.63 650.176 1106.95 635.981 1103.69 633.17C1094.78 625.502 1083.33 632.235 1083.15 632.387L1083.09 632.412C1081.68 632.4 1080.14 632.533 1078.43 632.842C1075.33 633.405 1073.15 634.732 1071.64 636.436C1071.64 636.436 1047.91 631.751 1052.98 651.953C1054.06 656.251 1065.72 683.565 1071.17 673.534C1073.16 669.866 1075.16 666.702 1075.16 666.702C1076.59 667.288 1078.17 667.415 1079.72 666.949L1079.82 666.821C1079.86 667.219 1079.96 667.598 1080.11 668.037C1078.68 670.465 1079.29 670.719 1075.75 672.21C1072.18 673.72 1074.64 674.654 1076.14 674.728C1077.96 674.817 1082.1 674.636 1084.06 670.3L1084.04 670.755C1084.88 671.19 1086.02 674.277 1086.5 677.183C1086.99 680.089 1087.33 682.084 1088.21 683.521C1089.08 684.957 1090.34 688.331 1094.98 686.33C1098.86 684.658 1100.52 681.991 1100.06 678.18C1099.74 675.471 1100.29 675.772 1099.85 673.381L1100 672.177C1099.71 668.474 1099.12 667.379 1101.72 667.427L1102.34 667.36C1104.19 667.079 1106.52 666.223 1107.8 665.287C1110.56 663.273 1111.9 660.561 1109.02 661.774L1109.02 661.774Z" fill="#336791"/>
<path d="M1075.56 649.49C1074.93 649.526 1074.39 649.716 1074.15 649.986C1074.01 650.138 1073.99 650.287 1074 650.385C1074.01 650.646 1074.25 650.892 1074.39 651.015C1074.78 651.364 1075.28 651.556 1075.74 651.529C1075.81 651.525 1075.88 651.517 1075.94 651.504C1076.69 651.356 1077.25 650.641 1077.22 650.2C1077.19 649.648 1076.34 649.445 1075.56 649.49Z" fill="white"/>
<path d="M1095.98 645.457L1095.98 645.457C1095.84 645.047 1095.06 645.076 1094.37 645.316C1093.68 645.556 1093.06 646.013 1093.2 646.423C1093.31 646.742 1094.01 647.185 1094.71 647.045C1094.77 647.034 1094.83 647.018 1094.89 646.998C1095.35 646.84 1095.63 646.474 1095.76 646.271C1095.96 645.96 1096.04 645.641 1095.98 645.457Z" fill="white"/>
<path d="M1111.27 661.163C1110.85 660.426 1109.96 660.339 1108.62 660.903C1104.65 662.579 1103.05 662.281 1102.5 662.02C1104.74 656.48 1106.21 650.03 1106.54 644.219C1106.7 641.466 1106.59 638.96 1106.23 636.972C1105.83 634.79 1105.14 633.265 1104.19 632.44C1100.32 629.114 1095.38 627.899 1089.9 628.927C1086.13 629.632 1083.14 631.226 1082.57 631.619C1081.21 631.554 1079.76 631.636 1078.21 631.917C1075.38 632.431 1073.07 633.592 1071.32 635.372C1070.38 635.219 1067.96 634.891 1065.09 634.994C1060.14 635.174 1056.44 636.516 1054.1 638.983C1051.31 641.928 1050.63 646.337 1052.07 652.088C1052.56 654.023 1054.87 659.814 1057.77 665.223C1061.58 672.343 1064.95 676.134 1067.77 676.491C1068.1 676.533 1068.47 676.535 1068.86 676.457C1069.83 676.265 1070.93 675.595 1071.86 673.871C1073.42 671.005 1074.92 668.565 1075.48 667.676C1076.63 668.028 1077.83 668.113 1079.01 667.912C1079.01 667.943 1079.02 667.973 1079.03 668.002C1078.85 668.327 1078.71 668.609 1078.59 668.85C1077.98 670.038 1077.85 670.285 1075.35 671.339C1074.64 671.639 1072.75 672.436 1073 673.822C1073.27 675.336 1075.75 675.501 1076.03 675.515C1077.02 675.564 1077.94 675.5 1078.8 675.33C1080.9 674.914 1082.6 673.861 1083.81 672.238C1084.83 677.624 1086.11 682.877 1087.07 684.363C1087.86 685.579 1089.79 688.552 1093.87 687.743C1094.47 687.624 1095.12 687.424 1095.81 687.124C1099.89 685.367 1101.36 683.118 1101.26 678.827C1101.2 676.534 1100.81 671.109 1100.55 668.208C1101.24 668.282 1102.1 668.208 1103.01 668.028C1104.9 667.652 1107 666.817 1108.25 665.91C1109.64 664.89 1112.07 662.586 1111.27 661.163ZM1097.32 643.983C1097.47 644.824 1097.51 645.608 1097.54 646.427C1097.58 647.308 1097.62 648.218 1097.8 649.298C1097.97 650.348 1098.32 651.407 1098.65 652.432C1099.33 654.5 1100.02 656.631 1099.44 658.985C1099.22 658.737 1099.01 658.462 1098.81 658.152C1098.62 657.872 1098.25 657.437 1097.74 656.834C1095.74 654.488 1091.07 648.993 1092.33 646.122C1092.71 645.267 1093.89 644.232 1097.32 643.983ZM1090.45 630.583C1095.37 629.719 1099.61 630.784 1103.06 633.749C1105.7 636.023 1105.81 648.733 1101.19 660.634C1101.11 660.563 1101.02 660.492 1100.94 660.418C1100.9 660.389 1100.87 660.359 1100.83 660.329C1102 657.118 1101.1 654.35 1100.29 651.896C1099.97 650.888 1099.65 649.937 1099.5 649.016C1099.34 648.039 1099.3 647.182 1099.27 646.353C1099.22 645.331 1099.18 644.274 1098.89 643.073C1098.9 642.94 1098.88 642.787 1098.83 642.613C1098.49 641.475 1096.48 638.266 1093.16 635.66C1091.34 634.235 1088.8 632.739 1085.61 632.025C1086.82 631.512 1088.5 630.924 1090.45 630.583ZM1070.35 673.046C1069.31 674.946 1068.31 674.819 1067.99 674.778C1065.85 674.507 1062.68 670.727 1059.29 664.407C1056.36 658.939 1054.16 653.293 1053.75 651.668C1052.46 646.529 1053 642.662 1055.36 640.174C1059.19 636.125 1066.9 636.564 1070.04 636.939C1070 636.989 1069.97 637.037 1069.93 637.088C1066.07 642.931 1067.84 651.253 1067.95 651.761C1067.99 651.958 1068.06 652.233 1068.16 652.612C1068.52 653.999 1069.19 656.58 1069.37 659.62C1069.53 662.445 1070.91 664.968 1073.15 666.54C1073.39 666.703 1073.63 666.852 1073.87 666.989C1073.22 668.04 1071.81 670.36 1070.35 673.046ZM1074.15 665.125C1072.33 663.858 1071.22 661.815 1071.09 659.522C1070.91 656.31 1070.21 653.621 1069.83 652.176C1069.78 651.974 1069.73 651.796 1069.7 651.656C1070.28 650.89 1073.2 648.486 1075.64 648.558C1076.76 648.59 1077.55 649.187 1078.07 650.381C1080.75 656.565 1080.07 659.498 1079.53 661.855C1079.41 662.341 1079.31 662.8 1079.23 663.268L1079.17 663.63C1079.02 664.545 1078.89 665.396 1078.85 666.184C1077.26 666.496 1075.57 666.123 1074.15 665.125ZM1076.12 673.79C1075.63 673.766 1075.17 673.647 1074.89 673.528C1075.08 673.391 1075.42 673.187 1076.03 672.931C1078.97 671.691 1079.35 671.152 1080.12 669.634C1080.3 669.286 1080.5 668.891 1080.79 668.402C1080.79 668.401 1080.79 668.401 1080.79 668.401C1081.22 667.67 1081.5 667.725 1082 667.825C1082.4 667.905 1082.86 668.3 1083.1 668.785C1083.22 669.014 1083.39 669.459 1083.21 669.868C1081.65 673.321 1078.49 673.907 1076.12 673.79ZM1095.13 685.538C1091.54 687.086 1089.83 685.436 1088.52 683.422C1087.67 682.121 1086.13 675.807 1084.93 668.734C1084.92 668.639 1084.89 668.552 1084.84 668.472C1084.79 668.312 1084.72 668.153 1084.64 667.996C1084.14 667.03 1083.26 666.316 1082.33 666.131C1081.97 666.057 1081.29 665.923 1080.58 666.263C1080.61 665.572 1080.74 664.773 1080.88 663.907L1080.94 663.543C1081 663.132 1081.1 662.701 1081.21 662.244C1081.78 659.778 1082.56 656.4 1079.65 649.695C1078.57 647.183 1076.42 646.278 1073.6 647.145C1071.92 647.665 1070.48 648.673 1069.77 649.227C1069.62 649.346 1069.48 649.459 1069.35 649.569C1069.05 646.881 1068.9 641.776 1071.38 638.035C1072.94 635.68 1075.34 634.192 1078.52 633.616C1084.78 632.48 1089.42 634.889 1092.2 637.109C1094.61 639.022 1096.12 641.129 1096.79 642.295C1093.56 642.601 1091.53 643.652 1090.75 645.427C1089.05 649.287 1094.03 655.14 1096.42 657.953C1096.86 658.468 1097.24 658.914 1097.37 659.109C1098.22 660.387 1099.15 661.169 1099.82 661.739C1100.03 661.914 1100.23 662.084 1100.39 662.235C1099.49 662.701 1097.89 663.681 1098.68 666.838C1098.87 668.464 1099.46 676.133 1099.53 678.871C1099.62 682.487 1098.59 684.045 1095.13 685.538ZM1107.23 664.515C1106.34 665.164 1104.77 665.83 1103.23 666.212C1101.52 666.634 1100.59 666.534 1100.35 666.407C1099.86 664.439 1100.56 664.085 1101.3 663.709C1101.42 663.65 1101.53 663.593 1101.64 663.53C1101.72 663.574 1101.81 663.616 1101.91 663.656C1103.47 664.294 1105.96 663.903 1109.3 662.495C1109.31 662.489 1109.32 662.484 1109.33 662.479C1108.95 663.011 1108.26 663.76 1107.23 664.515Z" fill="white"/>
</g>
<g clip-path="url(#clip13)">
<path d="M384.461 634.634L338.066 627.937C334.479 627.42 331.152 629.908 330.634 633.495L323.937 679.889C323.42 683.477 325.908 686.804 329.495 687.322L375.889 694.018C379.477 694.536 382.804 692.048 383.322 688.461L390.018 642.066C390.536 638.479 388.048 635.152 384.461 634.634Z" fill="#092E20"/>
<path d="M371.651 655.091L369.434 670.454C368.67 675.747 367.916 678.23 366.438 680.257C365.057 682.211 363.444 683.34 360.307 684.381L354.576 680.566C357.701 679.612 359.295 678.612 360.465 676.891C361.686 675.135 362.304 672.983 363.136 667.217L365.024 654.135L371.651 655.091ZM362.586 643.335L358.158 674.011C354.665 674.166 352.132 674.063 349.421 673.672C341.331 672.504 337.641 668.238 338.654 661.223C339.629 654.467 344.738 650.724 351.666 651.724C352.742 651.879 353.547 652.083 354.5 652.484L355.959 642.379L362.586 643.335ZM351.542 657.153C348.185 656.668 345.951 658.455 345.429 662.069C344.919 665.598 346.491 667.802 349.89 668.292C350.621 668.398 351.23 668.442 352.196 668.45L353.73 657.82C352.993 657.45 352.36 657.271 351.542 657.153ZM373.124 644.892L372.142 651.692L365.515 650.735L366.497 643.936L373.124 644.892Z" fill="#FFFFFD"/>
</g>
<g clip-path="url(#clip14)">
<path d="M1423.87 130.919C1421.86 130.364 1419.98 130.356 1418.31 130.66C1418.08 129.447 1417.81 128.349 1417.91 127.628C1418.03 126.788 1418.04 126.258 1418.44 125.326C1418.84 124.394 1419.8 123.175 1419.81 123.067C1419.83 122.959 1419.86 122.432 1418.7 122.096C1417.55 121.76 1416.48 121.71 1416.28 121.982C1416.08 122.255 1415.66 122.887 1415.32 123.561C1414.82 124.557 1411.65 127.717 1409.88 129.344C1409.71 128.467 1409.56 127.699 1409.64 127.141C1409.76 126.302 1409.78 125.772 1410.18 124.839C1410.57 123.907 1411.53 122.689 1411.55 122.581C1411.57 122.472 1411.59 121.945 1410.44 121.609C1409.28 121.273 1408.22 121.223 1408.02 121.496C1407.82 121.768 1407.49 122.448 1407.05 123.074C1406.61 123.701 1402.04 129.18 1400.85 130.593C1400.24 131.318 1399.72 131.889 1399.36 132.276C1399.36 132.276 1399.34 132.305 1399.3 132.348C1398.99 132.681 1398.81 132.859 1398.81 132.859C1398.81 132.859 1398.81 132.859 1398.81 132.87C1398.57 133.109 1398.33 133.325 1398.25 133.301C1398.18 133.283 1398.28 132.493 1398.77 131.519C1399.8 129.459 1401.76 126.353 1401.78 126.234C1401.8 126.171 1402.15 125.635 1401.4 125.094C1400.66 124.557 1400.22 124.98 1400.15 124.959C1400.08 124.938 1399.97 125.102 1399.97 125.102C1399.97 125.102 1401.96 121.551 1399.3 120.802C1397.64 120.335 1394.83 121.509 1393.23 122.831C1392.41 123.019 1390.65 123.42 1388.77 123.856C1388.05 124.028 1387.31 124.195 1386.62 124.352C1386.59 124.298 1386.56 124.234 1386.53 124.18C1384.28 119.834 1379.01 115.728 1380.56 111.181C1381.13 109.524 1382.95 105.268 1395.22 102.932C1405.31 101.058 1412.02 104.252 1412.48 107.278C1413.15 111.599 1405.63 117.156 1396.19 115.612C1392.58 115.018 1391.13 113.156 1390.81 112.521C1390.47 111.859 1390.41 111.806 1390.2 111.861C1389.86 111.936 1389.92 112.463 1389.95 112.766C1390.02 113.558 1390.79 115.138 1392.52 116.294C1394.05 117.315 1398.05 118.772 1403.55 118.251C1409.7 117.665 1415.71 112.92 1415.84 107.565C1416 102.136 1408.05 98.0946 1399.29 98.6834C1394.08 99.0344 1388.2 100.241 1383.54 102.652C1378 105.521 1376.3 108.892 1376.16 110.465C1375.69 116.055 1382.03 121.563 1384.24 124.943C1384.07 124.985 1383.91 125.02 1383.78 125.051C1382.11 125.365 1375.71 126.71 1373.46 129.402C1370.9 132.451 1372.02 135.47 1373.14 136.147C1376.6 138.245 1380.99 137.459 1383.93 134.949C1386.87 132.44 1387.75 128.35 1387.31 126.239C1387.31 126.215 1387.3 126.191 1387.29 126.164C1387.73 126.05 1388.18 125.928 1388.63 125.814C1389.5 125.582 1390.35 125.379 1391.07 125.22C1390.44 126.098 1389.85 127.192 1389.25 128.839C1388.54 130.773 1388.62 133.568 1389.4 134.877C1389.75 135.452 1390.31 135.619 1390.66 135.72C1391.9 136.069 1392.75 135.195 1393.72 134.149C1394.89 132.869 1396.07 131.325 1396.07 131.325C1396.07 131.325 1393.89 135.778 1396.21 136.429C1397.05 136.666 1398.21 135.811 1398.75 135.36L1398.74 135.371C1398.74 135.371 1398.77 135.345 1398.84 135.283C1398.96 135.17 1399.03 135.101 1399.03 135.101L1399.04 135.08C1399.54 134.586 1400.68 133.463 1402.43 131.56C1404.68 129.107 1407.09 125.924 1407.09 125.924C1407.09 125.924 1406.97 126.832 1406.99 128.405C1407.01 129.329 1407.27 130.413 1407.43 131.436C1406.96 131.815 1406.68 132.019 1406.68 132.019C1406.68 132.019 1406.68 132.019 1406.69 132.032C1406.31 132.313 1405.91 132.619 1405.48 132.906C1403.94 133.951 1402.14 135.134 1401.82 135.533C1401.45 136.007 1401.39 136.411 1401.72 136.845C1401.96 137.163 1402.5 137.348 1403.07 137.473C1404.12 137.69 1404.92 137.642 1405.32 137.585C1405.93 137.542 1406.67 137.42 1407.41 137.139C1408.77 136.625 1409.78 135.629 1410.16 134.043C1410.37 133.172 1410.33 132.229 1410.21 131.322C1410.36 131.204 1410.5 131.083 1410.64 130.966C1413.15 128.867 1415.33 126.404 1415.33 126.404C1415.33 126.404 1415.21 127.313 1415.24 128.886C1415.24 129.682 1415.45 130.603 1415.61 131.488C1413.55 132.374 1412.08 133.662 1411.42 134.589C1410.22 136.318 1410.49 137.325 1411.41 137.801C1411.83 138.02 1412.52 137.987 1413.04 137.917C1413.68 137.894 1414.46 137.763 1415.26 137.465C1416.62 136.951 1418.03 136.099 1418.41 134.514C1418.58 133.789 1418.59 133.031 1418.52 132.273C1420.1 132.084 1422.03 132.273 1424.28 133.204C1429.13 135.202 1429.24 138.605 1428.68 139.867C1428.12 141.128 1426.86 141.548 1426.45 141.671C1426.05 141.794 1425.91 141.835 1425.9 142.002C1425.87 142.245 1426.04 142.282 1426.35 142.323C1426.78 142.365 1429.28 142 1430.06 139.607C1431.08 136.559 1429.09 132.353 1423.87 130.919ZM1381.58 133.072C1379.4 134.414 1376.9 134.446 1376.06 133.586C1375.16 132.663 1376.34 130.11 1378.92 128.769C1380.49 127.951 1382.39 127.317 1383.64 126.954C1383.92 126.874 1384.34 126.765 1384.84 126.623C1384.93 126.602 1384.98 126.593 1384.98 126.593C1385.08 126.564 1385.18 126.535 1385.27 126.506C1385.25 129.451 1383.86 131.659 1381.58 133.072ZM1395.99 128.25C1395.01 129.496 1392.79 132.764 1392.11 132.357C1391.52 132.011 1391.91 129.167 1393.56 126.714C1394.39 125.485 1395.81 124.134 1396.54 123.66C1397.73 122.904 1398.83 122.849 1398.95 123.327C1399.11 123.95 1396.6 127.467 1395.99 128.25ZM1404.63 135.835C1404.35 135.894 1404.1 135.913 1404.01 135.82C1403.95 135.757 1404.17 135.639 1404.17 135.639C1404.17 135.639 1405.8 134.645 1406.47 134.174C1406.86 133.896 1407.31 133.57 1407.8 133.197L1407.76 133.334C1407.31 134.943 1405.45 135.589 1404.63 135.835ZM1412.82 136.246C1412.68 136.069 1412.83 135.657 1413.8 134.511C1414.18 134.06 1414.97 133.352 1416.14 132.784C1416.15 133.15 1416.13 133.497 1416.03 133.799C1415.45 135.827 1413.79 136.176 1412.82 136.246Z" fill="#CD6799"/>
</g>
<g clip-path="url(#clip15)">
<path d="M898.869 823.327L872.672 797.132C871.165 795.623 868.718 795.623 867.208 797.132L861.768 802.571L868.669 809.472C870.272 808.93 872.111 809.294 873.39 810.572C874.674 811.859 875.035 813.713 874.48 815.322L881.13 821.972C882.739 821.418 884.596 821.777 885.881 823.064C887.677 824.859 887.677 827.769 885.881 829.566C884.084 831.362 881.174 831.362 879.377 829.566C878.026 828.213 877.693 826.229 878.377 824.565L872.174 818.363L872.174 834.684C872.612 834.901 873.025 835.19 873.39 835.554C875.186 837.349 875.186 840.259 873.39 842.057C871.593 843.853 868.682 843.853 866.888 842.057C865.092 840.259 865.092 837.349 866.888 835.554C867.332 835.111 867.845 834.776 868.393 834.55V818.077C867.845 817.853 867.332 817.52 866.888 817.074C865.527 815.715 865.2 813.718 865.897 812.047L859.095 805.244L841.133 823.205C839.623 824.716 839.623 827.163 841.133 828.672L867.33 854.867C868.838 856.376 871.284 856.376 872.795 854.867L898.869 828.793C900.378 827.284 900.378 824.835 898.869 823.327Z" fill="#DE4C36"/>
</g>
<g clip-path="url(#clip16)">
<path d="M131.268 308.298L159.227 328.453L155.506 362.2L123.827 375.779L95.8677 355.623L99.589 321.877L131.268 308.298Z" fill="white"/>
<path d="M150.313 360.444L125.338 371.164L126.48 360.812L142.02 354.359L150.313 360.444ZM152.082 359.17L155.149 331.354L146.005 335.368L144.032 353.26L152.082 359.17ZM101.229 355.032L123.269 370.925L124.41 360.572L110.648 350.9L101.229 355.032ZM99.7799 353.403L102.847 325.587L110.897 331.497L108.924 349.389L99.7799 353.403ZM104.047 323.897L129.665 312.918L128.561 322.932L112.174 329.724L112.043 329.778L104.047 323.897ZM154.335 329.442L131.736 313.146L130.631 323.161L145.132 333.37L145.248 333.451L154.335 329.442Z" fill="#8ED6FB"/>
<path d="M124.67 358.22L111.099 348.672L112.835 332.929L126.363 342.861L124.67 358.22ZM126.74 358.449L142.064 352.098L143.802 336.344L128.434 343.089L126.74 358.449ZM114.003 331.213L129.399 324.836L143.024 334.413L127.596 341.186L114.003 331.213Z" fill="#1C78C0"/>
</g>
<g clip-path="url(#clip17)">
<path d="M336.767 421.619L332 451.238L361.619 456.004L391.238 460.771L396.004 431.152L400.771 401.533L371.152 396.767L341.533 392L336.767 421.619Z" fill="#007ACC"/>
<path d="M349.835 423.924L349.426 426.346L353.281 426.967L357.136 427.587L355.373 438.542L353.61 449.496L356.337 449.935L359.064 450.374L360.827 439.419L362.59 428.465L366.445 429.085L370.3 429.706L370.683 427.327C370.895 426.01 371.043 424.906 371.01 424.872C370.988 424.829 366.299 424.056 360.609 423.149L350.252 421.512L349.835 423.924Z" fill="white"/>
<path d="M384.934 427.022C386.378 427.641 387.418 428.493 388.295 429.753C388.747 430.424 389.384 431.617 389.409 431.881C389.416 431.959 386.561 433.275 384.845 433.992C384.782 434.021 384.596 433.74 384.402 433.323C383.819 432.091 383.097 431.483 381.889 431.201C380.112 430.79 378.804 431.544 378.561 433.116C378.487 433.577 378.509 433.86 378.636 434.266C378.9 435.148 379.554 435.755 381.698 437.122C385.645 439.629 387.266 441.125 388.119 443.017C389.072 445.129 388.863 448.221 387.643 450.349C386.306 452.661 383.705 453.96 380.334 453.987C379.29 454.002 376.887 453.586 375.828 453.213C373.518 452.407 371.45 450.869 370.307 449.103C369.858 448.413 369.048 446.672 369.132 446.57C369.167 446.537 369.435 446.425 369.734 446.309C370.021 446.201 371.11 445.788 372.138 445.394L373.999 444.681L374.272 445.265C374.647 446.107 375.57 447.326 376.172 447.78C377.902 449.081 380.52 449.357 381.983 448.416C382.609 448.005 382.918 447.524 383.04 446.763C383.151 446.076 383.114 445.762 382.84 445.187C382.486 444.455 381.634 443.749 379.15 442.162C376.306 440.354 375.121 439.324 374.127 437.833C373.552 436.969 373.087 435.659 372.977 434.609C372.886 433.736 373.167 431.63 373.482 430.813C374.587 427.962 377.147 426.261 380.461 426.168C381.536 426.138 383.95 426.604 384.934 427.022Z" fill="white"/>
</g>
</g>
<defs>
<linearGradient id="paint0_linear" x1="1199.11" y1="252.108" x2="1224.51" y2="285.224" gradientUnits="userSpaceOnUse">
<stop stop-color="#387EB8"/>
<stop offset="1" stop-color="#366994"/>
</linearGradient>
<linearGradient id="paint1_linear" x1="1214.59" y1="273.259" x2="1242.07" y2="307.412" gradientUnits="userSpaceOnUse">
<stop stop-color="#FFE052"/>
<stop offset="1" stop-color="#FFC331"/>
</linearGradient>
<linearGradient id="paint2_linear" x1="114.092" y1="848.264" x2="148.476" y2="824.249" gradientUnits="userSpaceOnUse">
<stop stop-color="#EC0B8E"/>
<stop offset="0.4006" stop-color="#EB0B8E"/>
<stop offset="0.7036" stop-color="#A11D8B"/>
<stop offset="1" stop-color="#5C2E88"/>
</linearGradient>
<radialGradient id="paint3_radial" cx="0" cy="0" r="1" gradientUnits="userSpaceOnUse" gradientTransform="translate(142.9 815.016) rotate(12.0269) scale(28.7198 28.7197)">
<stop stop-color="#EC0B8E"/>
<stop offset="0.1599" stop-color="#E80C8E"/>
<stop offset="0.3277" stop-color="#DB0F8D"/>
<stop offset="0.499" stop-color="#C6148C"/>
<stop offset="0.6729" stop-color="#A91B8B"/>
<stop offset="0.8469" stop-color="#83248A"/>
<stop offset="1" stop-color="#5C2E88"/>
</radialGradient>
<linearGradient id="paint4_linear" x1="129.739" y1="807.842" x2="142.26" y2="810.467" gradientUnits="userSpaceOnUse">
<stop stop-color="#EC0B8E"/>
<stop offset="0.3678" stop-color="#E10E8F"/>
<stop offset="0.9993" stop-color="#C41693"/>
</linearGradient>
<clipPath id="clip0">
<rect width="1500" height="4500" fill="white" transform="translate(0 -1032)"/>
</clipPath>
<clipPath id="clip1">
<rect width="60" height="63.75" fill="white" transform="translate(94 559.502) rotate(-14.9732)"/>
</clipPath>
<clipPath id="clip2">
<rect width="60" height="51.7969" fill="white" transform="translate(266.055 195) rotate(8.94679)"/>
</clipPath>
<clipPath id="clip3">
<rect width="60" height="59.7656" fill="white" transform="translate(1194.1 246) rotate(7.79199)"/>
</clipPath>
<clipPath id="clip4">
<rect width="60" height="60" fill="white" transform="translate(796.578 564) rotate(14.0614)"/>
</clipPath>
<clipPath id="clip5">
<rect width="60" height="60" fill="white" transform="translate(693.309 815) rotate(22.8601)"/>
</clipPath>
<clipPath id="clip6">
<rect width="60" height="59.2969" fill="white" transform="translate(116.167 794) rotate(11.8406)"/>
</clipPath>
<clipPath id="clip7">
<rect width="60" height="60" fill="white" transform="translate(1297 622.253) rotate(-6.94282)"/>
</clipPath>
<clipPath id="clip8">
<rect width="60" height="84.6094" fill="white" transform="translate(492.961 765) rotate(7.44344)"/>
</clipPath>
<clipPath id="clip9">
<rect width="60" height="84.6094" fill="white" transform="translate(1039 803.521) rotate(-9.13072)"/>
</clipPath>
<clipPath id="clip10">
<rect width="60" height="30.7031" fill="white" transform="translate(1164.08 84) rotate(13.3349)"/>
</clipPath>
<clipPath id="clip11">
<rect width="60" height="61.875" fill="white" transform="translate(113 111)"/>
</clipPath>
<clipPath id="clip12">
<rect width="60" height="61.875" fill="white" transform="translate(1047 635.677) rotate(-11.2225)"/>
</clipPath>
<clipPath id="clip13">
<rect width="60" height="60" fill="white" transform="translate(331.571 627) rotate(8.21307)"/>
</clipPath>
<clipPath id="clip14">
<rect width="60" height="45" fill="white" transform="translate(1381.19 92) rotate(15.7173)"/>
</clipPath>
<clipPath id="clip15">
<rect width="60" height="60" fill="white" transform="translate(840 796)"/>
</clipPath>
<clipPath id="clip16">
<rect width="60" height="67.9688" fill="white" transform="translate(101.45 305) rotate(6.2927)"/>
</clipPath>
<clipPath id="clip17">
<rect width="60" height="60" fill="white" transform="translate(341.533 392) rotate(9.14236)"/>
</clipPath>
</defs>
</svg>
