<svg width="2000" height="1000" viewBox="0 0 2000 1000" fill="none" xmlns="http://www.w3.org/2000/svg">
<g clip-path="url(#clip0)">
<path d="M432 50.0151L472 72.6415V117.909L432 140.536L392 117.909V72.6415L432 50.0151Z" fill="white"/>
<path d="M464.86 116.34L433.328 134.196V120.309L452.981 109.487L464.86 116.34ZM467.019 114.392V77.0792L455.487 83.7358V107.736L467.019 114.392ZM399.019 116.34L430.551 134.181V120.294L410.898 109.487L399.019 116.34ZM396.86 114.392V77.0792L408.392 83.7358V107.736L396.86 114.392ZM398.204 74.6642L430.551 56.3698V69.8038L409.826 81.2L409.66 81.2906L398.204 74.6642ZM465.66 74.6642L433.328 56.3698V69.8038L454.038 81.2151L454.204 81.3057L465.66 74.6642Z" fill="#8ED6FB"/>
<path d="M430.551 117.14L411.17 106.468V85.3509L430.551 96.5358V117.14ZM433.328 117.14L452.709 106.483V85.3509L433.328 96.5358V117.14ZM412.468 82.9056L431.94 72.2037L451.396 82.9056L431.94 94.1358L412.468 82.9056Z" fill="#1C78C0"/>
</g>
<path d="M264 818H280L240 887L200 818H215.8H230.6L240 834L249.2 818H264Z" fill="#41B883"/>
<path d="M200 818L240 887L280 818H264L240 859.4L215.8 818H200Z" fill="#41B883"/>
<path d="M215.8 818L240 859.6L264 818H249.2L240 834L230.6 818H215.8Z" fill="#35495E"/>
<path d="M634 889.685C634 895.382 638.618 900 644.315 900H703.685C709.382 900 714 895.382 714 889.685V830.315C714 824.618 709.382 820 703.685 820H644.315C638.618 820 634 824.618 634 830.315V889.685Z" fill="#563D7C"/>
<path d="M667.174 855.387V844.058H677.147C678.096 844.058 679.012 844.137 679.894 844.295C680.776 844.453 681.556 844.736 682.235 845.143C682.913 845.55 683.456 846.115 683.863 846.839C684.27 847.563 684.473 848.49 684.473 849.621C684.473 851.656 683.863 853.126 682.642 854.03C681.421 854.935 679.86 855.387 677.961 855.387H667.174ZM656.523 835.781V884.219H679.996C682.167 884.219 684.281 883.947 686.339 883.405C688.397 882.862 690.228 882.025 691.834 880.895C693.439 879.764 694.717 878.305 695.667 876.519C696.617 874.732 697.092 872.618 697.092 870.176C697.092 867.146 696.357 864.557 694.887 862.408C693.417 860.26 691.189 858.756 688.205 857.897C690.375 856.857 692.015 855.523 693.123 853.894C694.231 852.266 694.785 850.231 694.785 847.789C694.785 845.528 694.412 843.628 693.666 842.09C692.919 840.553 691.868 839.32 690.511 838.393C689.154 837.466 687.526 836.799 685.627 836.392C683.727 835.985 681.624 835.781 679.318 835.781H656.523ZM667.174 875.942V862.646H678.775C681.081 862.646 682.936 863.177 684.338 864.24C685.74 865.303 686.441 867.078 686.441 869.565C686.441 870.832 686.226 871.872 685.796 872.686C685.367 873.5 684.79 874.145 684.066 874.619C683.343 875.094 682.506 875.434 681.556 875.637C680.606 875.841 679.612 875.942 678.571 875.942H667.174Z" fill="white"/>
<g clip-path="url(#clip1)">
<path d="M319.951 592.527L287.394 583.489L280.139 502.114H359.861L352.598 583.477L319.951 592.527Z" fill="#264DE4"/>
<path d="M346.38 578.296L352.587 508.768H320V585.609L346.38 578.296Z" fill="#2965F1"/>
<path d="M296.771 538.949L297.666 548.929H320V538.949H296.771Z" fill="#EBEBEB"/>
<path d="M294.974 518.748L295.881 528.729H320V518.748H294.974Z" fill="#EBEBEB"/>
<path d="M320 564.869L319.956 564.88L308.841 561.879L308.13 553.919H298.112L299.51 569.59L319.954 575.265L320 575.253V564.869Z" fill="#EBEBEB"/>
<path d="M298.901 480H310.989V485.055H303.956V490.11H310.989V495.165H298.901V480Z" fill="black"/>
<path d="M313.407 480H325.494V484.396H318.462V485.275H325.494V495.385H313.407V490.769H320.44V489.89H313.407V480Z" fill="black"/>
<path d="M327.912 480H340V484.396H332.967V485.275H340V495.385H327.912V490.769H334.945V489.89H327.912V480Z" fill="black"/>
<path d="M343.165 538.949L344.966 518.748H319.965V528.729H334.029L333.121 538.949H319.965V548.929H332.255L331.097 561.873L319.965 564.877V575.26L340.426 569.59L340.576 567.904L342.921 541.629L343.165 538.949Z" fill="white"/>
</g>
<g clip-path="url(#clip2)">
<path d="M859.744 262.312C860.034 261.82 860.41 261.347 860.951 261.116C861.172 261.077 861.394 261.096 861.616 261.096H872.54C872.222 261.367 871.913 261.647 871.701 262.013C871.141 262.93 870.765 263.953 870.417 264.976C869.433 268.064 868.748 271.239 868.082 274.414C867.783 275.852 867.493 277.299 867.223 278.737C866.393 283.446 865.534 288.146 864.463 292.807C863.952 294.959 863.431 297.111 862.639 299.186C862.273 300.045 861.916 300.961 861.211 301.598C861.047 301.743 860.883 301.926 860.651 301.897H851.001C850.345 301.878 849.698 301.936 849.042 301.869C849.476 301.531 849.862 301.125 850.113 300.643C850.837 299.263 851.291 297.767 851.725 296.281C852.4 293.888 852.941 291.466 853.452 289.043C853.771 287.451 854.147 285.869 854.379 284.267C854.639 282.481 855.035 280.715 855.353 278.94C855.855 276.324 856.386 273.709 856.975 271.113C857.448 269.087 857.93 267.07 858.577 265.092C858.895 264.136 859.242 263.191 859.744 262.312Z" fill="#EB7077" stroke="#EB7077" stroke-width="0.09375"/>
<path d="M872.54 261.097C872.82 261.097 873.1 261.087 873.38 261.097C873.998 261.425 874.519 261.946 874.808 262.592C875.194 263.326 875.513 264.098 875.802 264.889C876.767 267.871 877.423 270.94 878.08 273.999C878.639 276.739 879.17 279.49 879.672 282.25C879.71 282.394 879.662 282.597 879.855 282.636C879.16 286.264 878.475 289.902 877.607 293.502C877.134 295.442 876.632 297.372 875.918 299.244C875.532 300.18 875.136 301.203 874.316 301.869C873.795 301.984 873.419 301.589 873.1 301.232C872.55 300.527 872.212 299.697 871.884 298.867C870.794 295.895 870.128 292.797 869.452 289.709C868.941 287.306 868.487 284.884 868.014 282.472C867.802 281.246 867.513 280.04 867.349 278.814C867.32 278.795 867.252 278.756 867.223 278.737C867.493 277.299 867.783 275.852 868.082 274.414C868.748 271.239 869.433 268.064 870.417 264.976C870.765 263.953 871.141 262.93 871.701 262.013C871.913 261.647 872.222 261.367 872.54 261.097Z" fill="#F6A2AD" stroke="#F6A2AD" stroke-width="0.09375"/>
<path d="M884.613 262.766C884.96 262.1 885.385 261.357 886.138 261.106C889.969 261.087 893.8 261.096 897.631 261.096C897.274 261.454 896.897 261.811 896.656 262.264C895.913 263.596 895.479 265.072 895.035 266.53C893.896 270.544 893.095 274.645 892.333 278.747C891.628 282.79 890.876 286.834 890.017 290.858C889.573 292.884 889.11 294.901 888.521 296.899C888.145 298.134 887.749 299.379 887.131 300.527C886.832 301.048 886.485 301.618 885.916 301.888C882.258 301.917 878.591 301.888 874.934 301.897C874.731 301.897 874.519 301.897 874.316 301.869C875.136 301.203 875.532 300.18 875.918 299.244C876.632 297.372 877.134 295.441 877.607 293.502C878.475 289.902 879.16 286.264 879.855 282.636C880.695 277.955 881.573 273.275 882.692 268.653C883.214 266.655 883.715 264.628 884.613 262.766Z" fill="#EB7077" stroke="#EB7077" stroke-width="0.09375"/>
<path d="M897.631 261.097C897.94 261.097 898.258 261.087 898.567 261.097C899.069 261.357 899.426 261.801 899.744 262.255C900.265 263.084 900.593 264.021 900.931 264.937C901.732 267.398 902.33 269.926 902.881 272.455C903.614 275.861 904.251 279.287 904.878 282.713C905.033 283.533 905.187 284.363 905.283 285.193C905.322 285.232 905.399 285.309 905.428 285.338C905.081 285.82 904.946 286.399 904.753 286.949C904.145 288.908 903.749 290.935 903.411 292.952C903.151 294.534 902.794 296.107 902.302 297.632C901.935 298.761 901.491 299.881 900.758 300.826C900.41 301.28 899.937 301.627 899.416 301.859C898.615 301.946 898.142 301.174 897.756 300.604C896.955 299.205 896.521 297.642 896.058 296.117C894.533 290.472 893.539 284.691 892.468 278.949C892.458 278.862 892.41 278.785 892.333 278.747C893.095 274.645 893.896 270.544 895.035 266.53C895.479 265.072 895.913 263.596 896.656 262.264C896.897 261.811 897.274 261.454 897.631 261.097Z" fill="#F6A2AD" stroke="#F6A2AD" stroke-width="0.09375"/>
<path d="M840.01 283.051C840.261 283.031 840.511 282.993 840.772 282.993H851.291C851.735 283.051 852.198 283.012 852.622 283.205C853.24 283.456 853.79 283.881 854.195 284.411C854.244 284.382 854.331 284.305 854.379 284.267C854.147 285.869 853.771 287.451 853.452 289.043C852.941 291.466 852.4 293.888 851.725 296.281C851.291 297.767 850.837 299.263 850.113 300.643C849.862 301.125 849.476 301.531 849.042 301.869C848.878 301.897 848.753 301.782 848.618 301.695C848.164 301.405 847.903 300.904 847.624 300.45C846.302 297.439 846.157 294.11 845.337 290.964C844.922 289.391 844.41 287.828 843.657 286.38C843.194 285.511 842.625 284.682 841.882 284.016C841.332 283.572 840.695 283.215 840.01 283.051Z" fill="#F6A2AD" stroke="#F6A2AD" stroke-width="0.09375"/>
<path d="M906.277 284.054C906.885 283.369 907.793 282.935 908.709 282.973H916.622C917.723 282.993 918.832 282.935 919.932 283.002C919.604 283.224 919.209 283.311 918.861 283.495C917.655 284.045 916.622 284.961 915.966 286.11C914.914 287.943 914.548 290.047 914.239 292.112C913.93 294.139 913.94 296.233 913.283 298.201C912.84 299.581 912.164 300.971 910.996 301.878C907.368 301.917 903.739 301.888 900.121 301.897C899.879 301.897 899.648 301.907 899.416 301.859C899.937 301.627 900.41 301.28 900.758 300.826C901.491 299.881 901.935 298.761 902.302 297.632C902.794 296.107 903.151 294.534 903.411 292.952C903.749 290.935 904.145 288.908 904.753 286.949C904.946 286.399 905.081 285.82 905.428 285.338C905.718 284.913 905.911 284.421 906.277 284.054Z" fill="#EB7077" stroke="#EB7077" stroke-width="0.09375"/>
</g>
<g clip-path="url(#clip3)">
<path d="M573.861 255.114L566.598 336.477L533.951 345.527L501.394 336.489L494.139 255.114H573.861Z" fill="#E44D26"/>
<path d="M534 338.609L560.38 331.296L566.587 261.768H534V338.609Z" fill="#F16529"/>
<path d="M519.881 281.729H534V271.748H508.974L509.213 274.426L511.666 301.929H534V291.949H520.793L519.881 281.729Z" fill="#EBEBEB"/>
<path d="M522.131 306.919H512.112L513.51 322.59L533.954 328.265L534 328.253V317.869L533.956 317.88L522.841 314.879L522.131 306.919Z" fill="#EBEBEB"/>
<path d="M501.557 233H506.628V238.011H511.268V233H516.34V248.175H511.268V243.093H506.629V248.175H501.557V233H501.557Z" fill="black"/>
<path d="M523.01 238.032H518.545V233H532.549V238.032H528.082V248.175H523.01V238.032H523.01Z" fill="black"/>
<path d="M534.772 233H540.06L543.313 238.332L546.563 233H551.854V248.175H546.803V240.653L543.313 246.049H543.226L539.734 240.653V248.175H534.772V233Z" fill="black"/>
<path d="M554.378 233H559.451V243.159H566.584V248.175H554.378V233Z" fill="black"/>
<path d="M533.966 301.929H546.255L545.097 314.873L533.966 317.877V328.26L554.426 322.59L554.576 320.904L556.921 294.629L557.165 291.949H533.966V301.929Z" fill="white"/>
<path d="M533.966 281.704V281.729H558.073L558.273 279.485L558.728 274.426L558.966 271.748H533.966V281.704Z" fill="white"/>
</g>
<path d="M1025.03 90.2257L1064.35 76.2179L1104.72 89.9767L1098.18 141.992L1064.35 160.732L1031.04 142.241L1025.03 90.2257Z" fill="#E23237"/>
<path d="M1104.72 89.9767L1064.35 76.2179V160.732L1098.18 142.023L1104.72 89.9767Z" fill="#B52E31"/>
<path d="M1064.41 86.0856L1039.91 140.591L1049.06 140.436L1053.98 128.14H1064.44H1064.47H1075.96L1081.34 140.591L1090.09 140.747L1064.41 86.0856ZM1064.47 103.549L1072.75 120.856H1064.81H1064.41H1057.19L1064.47 103.549Z" fill="white"/>
<path d="M520 611H600V691H520V611Z" fill="#F7DF1E"/>
<path d="M541.035 677.854L547.157 674.149C548.338 676.243 549.413 678.015 551.99 678.015C554.46 678.015 556.018 677.048 556.018 673.29V647.728H563.535V673.396C563.535 681.183 558.971 684.727 552.312 684.727C546.298 684.727 542.807 681.612 541.035 677.853" fill="black"/>
<path d="M567.619 677.048L573.74 673.504C575.352 676.136 577.446 678.069 581.151 678.069C584.266 678.069 586.253 676.511 586.253 674.363C586.253 671.786 584.212 670.873 580.775 669.369L578.896 668.563C573.472 666.255 569.874 663.355 569.874 657.233C569.874 651.594 574.17 647.298 580.883 647.298C585.662 647.298 589.099 648.963 591.569 653.313L585.716 657.071C584.427 654.763 583.031 653.85 580.883 653.85C578.681 653.85 577.285 655.246 577.285 657.071C577.285 659.327 578.681 660.24 581.903 661.636L583.782 662.442C590.173 665.181 593.771 667.973 593.771 674.256C593.771 681.022 588.455 684.727 581.313 684.727C574.332 684.727 569.821 681.398 567.619 677.048" fill="black"/>
<path d="M153.603 334.948C151.965 329.846 151.493 324.46 152.437 318.916C152.847 316.617 153.477 314.412 154.17 312.176C154.17 312.176 158.516 297.908 173.225 291.388C173.225 291.388 178.295 288.711 185.917 288.522C185.917 288.522 184.878 287.514 184.216 287.073C180.626 284.679 175.272 283.892 172.028 287.262C171.051 288.27 170.232 289.372 169.319 290.38C168.28 291.514 167.02 292.459 165.571 292.994C164.311 293.467 163.051 293.372 161.76 293.593C160.437 293.813 159.083 294.286 158.012 295.136C156.847 296.081 156.374 297.341 156.248 298.79C156.122 299.924 156.154 301.089 156.091 302.223C155.933 305.562 154.863 306.506 152.469 308.365C151.461 309.121 150.611 310.129 149.981 311.2C148.091 314.538 151.115 318.003 151.272 321.373C151.304 322.066 151.241 322.759 150.989 323.42C150.737 324.145 150.233 324.617 149.823 325.216C149.256 326.003 148.878 326.948 149.036 327.924C149.193 328.901 149.697 329.814 150.17 330.665C151.083 332.177 152.217 333.531 153.414 334.822C153.477 334.791 153.54 334.885 153.603 334.948Z" fill="#ED168F"/>
<path d="M213.696 347.012C220.94 343.862 224.027 338.413 224.027 338.413C230.798 329.184 228.499 319.452 228.499 319.452C224.184 328.838 220.247 331.421 220.247 331.421C230.861 315.263 220.31 305.499 220.31 305.499C224.625 314.696 218.893 325.909 218.893 325.909C214.074 336.051 207.24 339.673 207.24 339.673C214.862 341.09 220.468 335.956 220.468 335.956C209.539 347.768 197.697 347.201 197.697 347.201C202.673 352.776 210.137 352.303 210.137 352.303C200.374 354.602 191.208 351.358 183.681 345.09C182.264 343.925 180.909 342.665 179.65 341.311C179.65 341.311 178.516 340.114 178.295 339.799L178.264 339.767C178.106 345.594 184.185 351.012 184.185 351.012C176.563 347.862 173.067 341.027 173.067 341.027C173.067 341.027 167.933 332.271 171.65 322.286C175.366 312.302 186.61 310.16 186.61 310.16C195.901 314.664 203.775 316.082 203.775 316.082C220.373 318.853 219.429 310.727 219.429 310.727C219.586 303.735 209.035 296.301 209.035 296.301C190.232 282.38 173.224 291.419 173.224 291.419C158.516 297.939 154.17 312.207 154.17 312.207C153.477 314.444 152.847 316.648 152.437 318.948C150.831 328.302 153.256 337.153 158.516 345.027C166.705 357.248 179.996 361.469 179.996 361.469C199.681 368.146 213.129 358.319 213.129 358.319C225.507 349.815 227.995 339.988 227.995 339.988C218.011 347.768 213.696 347.012 213.696 347.012ZM198.326 301.057C199.271 301.057 200.027 301.813 200.027 302.758C200.027 303.703 199.271 304.459 198.326 304.459C197.382 304.459 196.626 303.703 196.626 302.758C196.626 301.813 197.382 301.057 198.326 301.057Z" fill="url(#paint0_linear)"/>
<path d="M219.397 310.696C219.555 303.703 209.004 296.27 209.004 296.27C190.201 282.348 173.193 291.388 173.193 291.388C158.485 297.908 154.138 312.176 154.138 312.176C153.288 314.601 152.532 318.318 152.532 318.318C151.619 322.979 152.028 327.295 152.028 327.295C152.406 331.421 153.319 334.192 153.319 334.192C154.264 337.153 154.705 338.066 154.705 338.066C154.674 337.972 154.516 337.279 154.516 337.279C154.516 337.279 153.193 330.917 154.422 324.806C154.422 324.806 155.493 318.444 159.839 313.53C159.839 313.53 166.894 303.483 180.028 307.42C180.028 307.42 182.862 308.428 183.839 308.932C184.815 309.436 186.516 310.129 186.516 310.129C195.807 314.633 203.681 316.05 203.681 316.05C220.342 318.822 219.397 310.696 219.397 310.696ZM198.327 304.491C197.382 304.491 196.626 303.735 196.626 302.79C196.626 301.845 197.382 301.089 198.327 301.089C199.271 301.089 200.027 301.845 200.027 302.79C200.027 303.735 199.271 304.491 198.327 304.491Z" fill="url(#paint1_radial)"/>
<path d="M187.555 298.034L176.815 294.695C176.752 294.695 176.437 294.538 175.87 294.695C175.87 294.695 169.54 296.301 170.642 299.766C170.642 299.766 171.303 301.939 173.099 304.05L184.909 303.483L187.555 298.034Z" fill="url(#paint2_linear)"/>
<path d="M768.5 542C778.16 542 786 534.16 786 524.5V507H768.5C758.84 507 751 514.84 751 524.5C751 534.16 758.84 542 768.5 542Z" fill="#0ACF83"/>
<path d="M751 489.5C751 479.84 758.84 472 768.5 472H786V507H768.5C758.84 507 751 499.16 751 489.5Z" fill="#A259FF"/>
<path d="M751 454.5C751 444.84 758.84 437 768.5 437H786V472H768.5C758.84 472 751 464.16 751 454.5Z" fill="#F24E1E"/>
<path d="M786 437H803.5C813.16 437 821 444.84 821 454.5C821 464.16 813.16 472 803.5 472H786V437Z" fill="#FF7262"/>
<path d="M821 489.5C821 499.16 813.16 507 803.5 507C793.84 507 786 499.16 786 489.5C786 479.84 793.84 472 803.5 472C813.16 472 821 479.84 821 489.5Z" fill="#1ABCFE"/>
<g clip-path="url(#clip4)">
<path d="M1551.35 169.03C1549.55 167.78 1545.42 167.312 1542.19 167.937C1541.82 164.812 1540.09 162.078 1537.09 159.656L1535.36 158.406L1534.16 160.203C1532.66 162.546 1531.91 165.827 1532.13 168.952C1532.21 170.046 1532.58 171.999 1533.71 173.718C1532.66 174.343 1530.48 175.124 1527.63 175.124H1473.36L1473.21 175.749C1472.69 178.874 1472.69 188.639 1478.84 196.139C1483.49 201.842 1490.4 204.732 1499.48 204.732C1519.15 204.732 1533.71 195.279 1540.54 178.171C1543.24 178.249 1549.02 178.171 1551.95 172.311C1552.02 172.155 1552.17 171.843 1552.7 170.671L1553 170.046L1551.35 169.03ZM1516.75 147H1508.49V154.812H1516.75V147ZM1516.75 156.375H1508.49V164.187H1516.75V156.375ZM1506.99 156.375H1498.73V164.187H1506.99V156.375ZM1497.23 156.375H1488.97V164.187H1497.23V156.375ZM1487.47 165.749H1479.22V173.561H1487.47V165.749ZM1497.23 165.749H1488.97V173.561H1497.23V165.749ZM1506.99 165.749H1498.73V173.561H1506.99V165.749ZM1516.75 165.749H1508.49V173.561H1516.75V165.749ZM1526.5 165.749H1518.25V173.561H1526.5V165.749Z" fill="#2396ED"/>
</g>
<g clip-path="url(#clip5)">
<path d="M1301.17 640.212C1316.98 624.9 1342.25 625.312 1357.56 641.2C1359.29 638.895 1360.77 636.343 1361.84 633.709C1366.86 649.021 1369.91 661.863 1368.76 671.824C1368.18 680.221 1364.89 688.289 1359.46 694.71C1345.3 711.504 1320.1 713.645 1303.31 699.485L1302.99 699.199L1302.97 699.188C1302.92 699.152 1302.87 699.113 1302.82 699.074C1302.66 698.954 1302.52 698.825 1302.4 698.686L1302.35 698.635L1301.83 698.168C1301.32 697.729 1300.8 697.29 1300.35 696.793L1300.18 696.604C1284.87 680.798 1285.36 655.524 1301.17 640.212ZM1307.1 693.805C1305.62 692.652 1303.47 692.817 1302.32 694.299C1301.31 695.602 1301.31 697.414 1302.34 698.616L1302.35 698.635L1302.99 699.199L1303.05 699.242C1304.49 700.188 1306.43 699.992 1307.53 698.655L1307.59 698.58C1308.74 697.098 1308.5 694.957 1307.1 693.805ZM1361.43 637.825C1357.31 646.469 1347.11 653.055 1338.3 655.113C1329.98 657.089 1322.74 655.442 1315.08 658.406C1297.63 665.074 1297.96 685.819 1307.51 690.512L1308.09 690.841C1308.09 690.841 1314.98 689.47 1321.8 687.659L1322.39 687.502C1325.11 686.768 1327.79 685.968 1329.98 685.161C1341.34 680.962 1353.86 670.59 1357.97 658.57C1355.83 671.084 1345.05 683.185 1334.26 688.701C1328.5 691.664 1324.06 692.323 1314.59 695.616C1313.44 696.028 1312.53 696.439 1312.53 696.439C1312.65 696.423 1312.76 696.408 1312.88 696.393L1313.11 696.363L1313.34 696.334C1315.43 696.075 1317.31 695.945 1317.31 695.945C1330.72 695.287 1351.8 699.732 1361.6 686.643C1371.64 673.306 1366.04 651.737 1361.43 637.825Z" fill="#6DB33F"/>
<path d="M1307.1 693.805C1308.5 694.957 1308.74 697.098 1307.59 698.58C1306.44 700.061 1304.3 700.226 1302.82 699.074C1301.33 697.921 1301.17 695.781 1302.32 694.299C1303.47 692.817 1305.62 692.652 1307.1 693.805ZM1361.43 637.825C1366.04 651.737 1371.64 673.306 1361.6 686.643C1351.8 699.732 1330.72 695.287 1317.31 695.945C1317.31 695.945 1315.43 696.075 1313.34 696.334L1313.11 696.363C1312.92 696.387 1312.72 696.413 1312.53 696.439C1312.53 696.439 1313.44 696.028 1314.59 695.616C1324.06 692.323 1328.5 691.664 1334.26 688.701C1345.05 683.185 1355.83 671.084 1357.97 658.57C1353.86 670.59 1341.34 680.962 1329.98 685.161C1322.16 688.042 1308.09 690.841 1308.09 690.841L1307.51 690.512C1297.96 685.819 1297.63 665.074 1315.08 658.406C1322.74 655.442 1329.98 657.089 1338.3 655.113C1347.11 653.055 1357.31 646.469 1361.43 637.825Z" fill="white"/>
</g>
<g clip-path="url(#clip6)">
<mask id="mask0" mask-type="alpha" maskUnits="userSpaceOnUse" x="945" y="774" width="80" height="80">
<path d="M1001.51 852.939C1002.76 853.428 1004.2 853.397 1005.46 852.787L1021.87 844.893C1023.59 844.063 1024.69 842.318 1024.69 840.404V786.874C1024.69 784.96 1023.59 783.215 1021.87 782.386L1005.46 774.491C1003.8 773.691 1001.85 773.887 1000.39 774.948C1000.19 775.099 999.987 775.268 999.801 775.455L968.393 804.109L954.712 793.725C953.438 792.758 951.657 792.837 950.474 793.913L946.086 797.904C944.639 799.22 944.638 801.497 946.083 802.815L957.947 813.639L946.083 824.463C944.638 825.782 944.639 828.058 946.086 829.374L950.474 833.365C951.657 834.441 953.438 834.52 954.712 833.554L968.393 823.169L999.801 851.823C1000.3 852.32 1000.88 852.695 1001.51 852.939ZM1004.78 795.549L980.947 813.639L1004.78 831.729V795.549Z" fill="white"/>
</mask>
<g mask="url(#mask0)">
<path d="M1021.92 782.398L1005.5 774.492C1003.6 773.577 1001.33 773.963 999.834 775.455L946.083 824.463C944.637 825.781 944.639 828.058 946.087 829.374L950.477 833.365C951.661 834.441 953.443 834.52 954.718 833.554L1019.45 784.449C1021.62 782.801 1024.74 784.35 1024.74 787.076V786.885C1024.74 784.972 1023.64 783.228 1021.92 782.398Z" fill="#0065A9"/>
<path d="M1021.92 844.88L1005.5 852.786C1003.6 853.701 1001.33 853.315 999.834 851.823L946.083 802.815C944.637 801.497 944.639 799.22 946.087 797.904L950.477 793.913C951.661 792.837 953.443 792.758 954.718 793.724L1019.45 842.829C1021.62 844.476 1024.74 842.928 1024.74 840.202V840.393C1024.74 842.306 1023.64 844.05 1021.92 844.88Z" fill="#007ACC"/>
<path d="M1005.45 852.792C1003.55 853.706 1001.27 853.32 999.782 851.828C1001.62 853.666 1004.76 852.364 1004.76 849.765V777.523C1004.76 774.924 1001.62 773.622 999.782 775.46C1001.27 773.968 1003.55 773.582 1005.45 774.496L1021.86 782.391C1023.59 783.22 1024.68 784.965 1024.68 786.879V840.409C1024.68 842.323 1023.59 844.068 1021.86 844.898L1005.45 852.792Z" fill="#1F9CF0"/>
<path d="M1001.51 852.939C1002.76 853.428 1004.2 853.397 1005.46 852.787L1021.87 844.892C1023.59 844.063 1024.69 842.318 1024.69 840.404V786.874C1024.69 784.96 1023.59 783.215 1021.87 782.386L1005.46 774.491C1003.8 773.691 1001.85 773.887 1000.39 774.948C1000.19 775.099 999.987 775.268 999.801 775.455L968.393 804.109L954.712 793.724C953.438 792.758 951.657 792.837 950.474 793.913L946.086 797.904C944.639 799.22 944.638 801.497 946.083 802.815L957.947 813.639L946.083 824.463C944.638 825.781 944.639 828.058 946.086 829.374L950.474 833.365C951.657 834.441 953.438 834.52 954.712 833.554L968.393 823.169L999.801 851.823C1000.3 852.32 1000.88 852.695 1001.51 852.939ZM1004.78 795.549L980.947 813.639L1004.78 831.729V795.549Z" fill="url(#paint3_linear)" fill-opacity="0.25"/>
</g>
</g>
<g clip-path="url(#clip7)">
<path d="M1682.69 718.402C1682.21 716.949 1680.95 715.937 1679.33 715.694C1678.56 715.58 1677.68 715.629 1676.65 715.843C1674.84 716.216 1673.49 716.358 1672.51 716.386C1676.21 710.141 1679.22 703.019 1680.95 696.315C1683.75 685.474 1682.26 680.536 1680.51 678.302C1675.88 672.39 1669.13 669.214 1660.98 669.116C1656.64 669.063 1652.83 669.921 1650.84 670.538C1648.98 670.211 1646.99 670.029 1644.9 669.995C1640.98 669.932 1637.52 670.786 1634.57 672.541C1632.93 671.988 1630.3 671.207 1627.26 670.709C1620.13 669.537 1614.37 670.45 1610.17 673.423C1605.07 677.023 1602.71 683.276 1603.14 692.011C1603.28 694.784 1604.83 703.221 1607.28 711.223C1608.68 715.822 1610.18 719.642 1611.73 722.576C1613.92 726.737 1616.27 729.188 1618.91 730.067C1620.39 730.56 1623.07 730.905 1625.9 728.552C1626.26 728.986 1626.73 729.417 1627.37 729.817C1628.17 730.325 1629.16 730.74 1630.14 730.986C1633.69 731.872 1637.01 731.65 1639.84 730.408C1639.86 730.912 1639.87 731.393 1639.88 731.809C1639.9 732.483 1639.92 733.144 1639.94 733.762C1640.11 737.941 1640.39 741.191 1641.24 743.465C1641.28 743.59 1641.35 743.78 1641.41 743.982C1641.83 745.269 1642.53 747.424 1644.32 749.111C1646.17 750.859 1648.41 751.395 1650.47 751.395C1651.49 751.395 1652.48 751.26 1653.34 751.075C1656.41 750.418 1659.89 749.416 1662.41 745.826C1664.8 742.432 1665.95 737.32 1666.16 729.266C1666.19 729.038 1666.22 728.821 1666.24 728.614C1666.26 728.474 1666.27 728.331 1666.29 728.188L1666.85 728.237L1667 728.247C1670.12 728.39 1673.94 727.727 1676.29 726.637C1678.15 725.776 1684.09 722.638 1682.69 718.402Z" fill="black"/>
<path d="M1677.35 719.226C1668.05 721.143 1667.41 717.996 1667.41 717.996C1677.23 703.436 1681.33 684.954 1677.79 680.43C1668.13 668.091 1651.41 673.927 1651.13 674.078L1651.04 674.094C1649.21 673.713 1647.15 673.486 1644.84 673.448C1640.64 673.379 1637.45 674.551 1635.03 676.386C1635.03 676.386 1605.21 664.101 1606.59 691.838C1606.89 697.738 1615.05 736.486 1624.79 724.782C1628.34 720.503 1631.78 716.884 1631.78 716.884C1633.49 718.019 1635.54 718.597 1637.68 718.389L1637.84 718.248C1637.79 718.779 1637.82 719.299 1637.91 719.914C1635.4 722.717 1636.14 723.209 1631.13 724.241C1626.05 725.286 1629.03 727.148 1630.98 727.634C1633.34 728.224 1638.8 729.06 1642.48 723.898L1642.34 724.487C1643.32 725.274 1644.01 729.606 1643.89 733.534C1643.78 737.462 1643.7 740.158 1644.48 742.264C1645.25 744.371 1646.02 749.11 1652.61 747.697C1658.12 746.517 1660.97 743.459 1661.37 738.357C1661.65 734.73 1662.29 735.266 1662.33 732.024L1662.84 730.488C1663.43 725.572 1662.94 723.986 1666.33 724.723L1667.15 724.796C1669.65 724.909 1672.92 724.394 1674.84 723.503C1678.97 721.585 1681.42 718.385 1677.35 719.226H1677.35Z" fill="#336791"/>
<path d="M1636.77 694.477C1635.94 694.36 1635.18 694.468 1634.79 694.758C1634.58 694.922 1634.51 695.111 1634.49 695.242C1634.45 695.587 1634.69 695.969 1634.84 696.166C1635.26 696.723 1635.87 697.106 1636.48 697.191C1636.57 697.203 1636.65 697.209 1636.74 697.209C1637.76 697.209 1638.68 696.419 1638.76 695.836C1638.86 695.106 1637.8 694.62 1636.77 694.477Z" fill="white"/>
<path d="M1664.52 694.5H1664.52C1664.44 693.927 1663.42 693.764 1662.45 693.899C1661.49 694.033 1660.55 694.469 1660.63 695.042C1660.69 695.488 1661.5 696.25 1662.45 696.249C1662.53 696.249 1662.61 696.244 1662.7 696.233C1663.33 696.144 1663.8 695.74 1664.02 695.507C1664.36 695.153 1664.55 694.757 1664.52 694.5Z" fill="white"/>
<path d="M1680.44 719.008C1680.08 717.936 1678.94 717.591 1677.05 717.983C1671.42 719.144 1669.41 718.34 1668.74 717.852C1673.12 711.19 1676.72 703.136 1678.66 695.622C1679.58 692.063 1680.08 688.757 1680.13 686.063C1680.17 683.105 1679.67 680.933 1678.63 679.605C1674.44 674.253 1668.29 671.383 1660.85 671.304C1655.74 671.246 1651.42 672.556 1650.58 672.924C1648.81 672.485 1646.89 672.216 1644.8 672.181C1640.96 672.119 1637.64 673.038 1634.89 674.912C1633.7 674.468 1630.61 673.409 1626.84 672.801C1620.32 671.751 1615.13 672.547 1611.43 675.167C1607.02 678.294 1604.98 683.883 1605.38 691.779C1605.51 694.436 1607.02 702.609 1609.41 710.435C1612.56 720.737 1615.97 726.568 1619.57 727.768C1619.99 727.908 1620.48 728.006 1621.01 728.006C1622.32 728.006 1623.93 727.415 1625.61 725.403C1628.39 722.059 1630.98 719.257 1631.94 718.239C1633.35 718.998 1634.9 719.421 1636.49 719.464C1636.5 719.505 1636.5 719.547 1636.5 719.588C1636.19 719.966 1635.92 720.298 1635.7 720.58C1634.6 721.978 1634.37 722.268 1630.83 722.998C1629.82 723.206 1627.14 723.757 1627.11 725.634C1627.06 727.684 1630.27 728.545 1630.63 728.636C1631.91 728.955 1633.13 729.112 1634.3 729.112C1637.15 729.112 1639.65 728.177 1641.65 726.368C1641.59 733.676 1641.9 740.877 1642.77 743.071C1643.49 744.867 1645.25 749.257 1650.79 749.257C1651.61 749.257 1652.5 749.162 1653.49 748.951C1659.28 747.71 1661.79 745.152 1662.76 739.513C1663.28 736.499 1664.17 729.301 1664.59 725.441C1665.48 725.717 1666.62 725.844 1667.86 725.843C1670.43 725.843 1673.4 725.297 1675.26 724.433C1677.35 723.462 1681.12 721.078 1680.44 719.008ZM1666.66 692.92C1666.64 694.06 1666.48 695.095 1666.31 696.175C1666.13 697.336 1665.95 698.537 1665.9 699.995C1665.86 701.414 1666.03 702.889 1666.2 704.315C1666.55 707.196 1666.91 710.163 1665.53 713.09C1665.32 712.71 1665.11 712.296 1664.92 711.837C1664.75 711.423 1664.38 710.757 1663.87 709.835C1661.87 706.249 1657.18 697.851 1659.58 694.424C1660.29 693.404 1662.11 692.356 1666.66 692.92ZM1661.14 673.612C1667.81 673.759 1673.08 676.253 1676.82 681.024C1679.68 684.684 1676.53 701.336 1667.4 715.702C1667.31 715.588 1667.21 715.472 1667.12 715.353C1667.08 715.306 1667.04 715.258 1667 715.209C1669.36 711.313 1668.9 707.458 1668.49 704.041C1668.32 702.638 1668.16 701.313 1668.2 700.069C1668.25 698.75 1668.42 697.619 1668.59 696.525C1668.8 695.177 1669.01 693.783 1668.95 692.139C1668.99 691.966 1669.01 691.762 1668.99 691.521C1668.84 689.944 1667.04 685.226 1663.37 680.955C1661.36 678.619 1658.44 676.005 1654.44 674.242C1656.16 673.886 1658.51 673.553 1661.14 673.612ZM1623.84 723.931C1621.99 726.147 1620.72 725.723 1620.3 725.583C1617.57 724.673 1614.41 718.907 1611.62 709.763C1609.2 701.851 1607.79 693.895 1607.68 691.664C1607.32 684.609 1609.03 679.692 1612.76 677.049C1618.82 672.749 1628.79 675.323 1632.8 676.628C1632.74 676.685 1632.68 676.738 1632.63 676.796C1626.05 683.435 1626.21 694.777 1626.22 695.471C1626.22 695.738 1626.25 696.117 1626.28 696.638C1626.39 698.545 1626.6 702.096 1626.04 706.117C1625.52 709.854 1626.67 713.511 1629.2 716.151C1629.46 716.424 1629.73 716.681 1630.02 716.923C1628.89 718.129 1626.44 720.796 1623.84 723.931ZM1630.86 714.558C1628.82 712.43 1627.89 709.47 1628.32 706.436C1628.91 702.188 1628.69 698.489 1628.58 696.502C1628.56 696.223 1628.54 695.98 1628.54 695.787C1629.5 694.936 1633.95 692.551 1637.12 693.279C1638.57 693.61 1639.45 694.596 1639.82 696.293C1641.72 705.075 1640.07 708.735 1638.75 711.677C1638.47 712.283 1638.21 712.856 1637.99 713.448L1637.82 713.906C1637.39 715.064 1636.99 716.141 1636.74 717.164C1634.57 717.157 1632.46 716.231 1630.86 714.558ZM1631.19 726.402C1630.56 726.243 1629.99 725.969 1629.66 725.741C1629.94 725.609 1630.43 725.431 1631.29 725.254C1635.46 724.395 1636.1 723.79 1637.51 722.005C1637.83 721.596 1638.2 721.132 1638.7 720.567C1638.7 720.567 1638.7 720.567 1638.7 720.567C1639.46 719.723 1639.8 719.866 1640.43 720.125C1640.93 720.335 1641.43 720.97 1641.63 721.668C1641.72 721.998 1641.83 722.625 1641.48 723.112C1638.54 727.223 1634.27 727.171 1631.19 726.402ZM1653.01 746.699C1647.91 747.792 1646.1 745.19 1644.91 742.216C1644.14 740.296 1643.77 731.638 1644.03 722.076C1644.04 721.949 1644.02 721.826 1643.98 721.711C1643.95 721.488 1643.91 721.262 1643.84 721.035C1643.44 719.644 1642.47 718.48 1641.31 717.997C1640.85 717.806 1640 717.454 1638.98 717.715C1639.2 716.819 1639.57 715.807 1639.98 714.711L1640.15 714.25C1640.35 713.73 1640.59 713.192 1640.85 712.622C1642.23 709.544 1644.13 705.329 1642.07 695.806C1641.3 692.239 1638.72 690.498 1634.82 690.902C1632.48 691.144 1630.34 692.089 1629.27 692.63C1629.04 692.747 1628.83 692.859 1628.63 692.969C1628.93 689.375 1630.06 682.659 1634.27 678.409C1636.92 675.734 1640.45 674.413 1644.76 674.484C1653.24 674.623 1658.68 678.975 1661.75 682.602C1664.39 685.728 1665.83 688.876 1666.4 690.574C1662.1 690.137 1659.18 690.986 1657.69 693.104C1654.47 697.713 1659.46 706.658 1661.85 710.957C1662.29 711.745 1662.67 712.426 1662.79 712.715C1663.57 714.607 1664.58 715.87 1665.32 716.792C1665.55 717.075 1665.77 717.349 1665.93 717.588C1664.63 717.963 1662.29 718.831 1662.51 723.165C1662.34 725.34 1661.11 735.523 1660.49 739.121C1659.67 743.874 1657.92 745.645 1653.01 746.699ZM1674.29 722.344C1672.96 722.962 1670.73 723.425 1668.61 723.525C1666.27 723.634 1665.08 723.263 1664.81 723.035C1664.67 720.334 1665.68 720.051 1666.74 719.753C1666.91 719.705 1667.07 719.66 1667.23 719.605C1667.33 719.684 1667.44 719.763 1667.55 719.841C1669.43 721.081 1672.78 721.215 1677.51 720.238C1677.53 720.235 1677.55 720.231 1677.57 720.228C1676.93 720.824 1675.84 721.625 1674.29 722.344Z" fill="white"/>
</g>
<g clip-path="url(#clip8)">
<path d="M1332.37 406.142L1318 406.641L1325.37 399.151L1332.37 406.143L1332.37 406.142Z" fill="#F15A24"/>
<path d="M1397.56 368.994C1394.89 389.81 1375.85 404.518 1355.03 401.845C1334.22 399.174 1319.51 380.134 1322.18 359.319C1324.85 338.503 1343.89 323.794 1364.71 326.467C1385.52 329.136 1400.23 348.179 1397.56 368.993" fill="#F15A24"/>
<path d="M1369.56 353.354C1372.05 356.008 1369.59 362.284 1369.59 362.284C1369.59 362.284 1367.15 371.157 1353.21 382.663L1350.6 380.108L1368.31 362.014L1368.65 361.553C1369.12 360.785 1369.51 353.302 1369.56 353.354Z" fill="#999999"/>
<path d="M1369.56 353.354C1372.05 356.008 1369.59 362.284 1369.59 362.284C1369.59 362.284 1367.15 371.157 1353.21 382.663L1350.6 380.108L1368.31 362.014L1368.65 361.553C1369.12 360.785 1369.51 353.302 1369.56 353.354Z" stroke="white" stroke-width="1.918" stroke-linecap="round" stroke-linejoin="round"/>
<path d="M1346.78 376.346L1369.52 353.288C1370.67 354.659 1370.92 356.135 1370.58 358.239C1370.36 359.696 1367.84 362.608 1367.84 362.608L1350.6 380.108" fill="#666666"/>
<path d="M1346.78 376.346L1369.52 353.288C1370.67 354.659 1370.92 356.135 1370.58 358.239C1370.36 359.696 1367.84 362.608 1367.84 362.608L1350.6 380.108" stroke="white" stroke-width="1.201" stroke-linecap="round" stroke-linejoin="round"/>
<path d="M1369.56 353.37L1346.78 376.347L1346.83 376.302L1346.82 376.306L1341.17 370.738C1352.95 356.08 1360.57 353.347 1360.57 353.347C1360.57 353.347 1365.53 351.411 1369.07 352.913C1369.34 353.059 1369.46 353.143 1369.56 353.37" fill="#FF931E"/>
<path d="M1369.56 353.37L1346.78 376.347L1346.83 376.302L1346.82 376.306L1341.17 370.738C1352.95 356.08 1360.57 353.347 1360.57 353.347C1360.57 353.347 1365.53 351.411 1369.07 352.913C1369.34 353.059 1369.46 353.143 1369.56 353.37L1369.56 353.37Z" stroke="white" stroke-width="1.918" stroke-linecap="round" stroke-linejoin="round"/>
<path d="M1353.21 382.662C1347.77 387.138 1340.82 394.167 1331.37 399.071L1333.47 408.059L1324.56 399.282L1346.78 376.346" fill="#999999"/>
<path d="M1353.21 382.662C1347.77 387.138 1340.82 394.167 1331.37 399.071L1333.47 408.059L1324.56 399.282L1346.78 376.346" stroke="white" stroke-width="1.918" stroke-linecap="round" stroke-linejoin="round"/>
<path d="M1341.32 370.813L1346.84 376.311L1334.09 379.074L1341.2 370.714L1341.32 370.813H1341.32Z" fill="#F15A24"/>
<path d="M1341.32 370.813L1346.84 376.311L1334.09 379.074L1341.2 370.714L1341.32 370.813H1341.32Z" stroke="white" stroke-width="1.918" stroke-linecap="round" stroke-linejoin="round"/>
<path d="M1367.38 346.702C1366.84 351.59 1370.36 355.99 1375.25 356.535C1380.13 357.077 1384.54 353.556 1385.08 348.67C1385.62 343.784 1382.1 339.379 1377.21 338.836C1372.33 338.296 1367.92 341.813 1367.38 346.702Z" fill="#999999"/>
<path d="M1367.38 346.702C1366.84 351.59 1370.36 355.99 1375.25 356.535C1380.13 357.077 1384.54 353.556 1385.08 348.67C1385.62 343.784 1382.1 339.379 1377.21 338.836C1372.33 338.296 1367.92 341.813 1367.38 346.702Z" stroke="white" stroke-width="1.918" stroke-linecap="round" stroke-linejoin="round"/>
<path d="M1383.8 352.606C1385.44 350.206 1385.36 346.616 1385.03 345.552C1384.62 344.25 1383.72 342.132 1382.14 341.031L1373.79 348.721C1373.79 348.721 1380.21 355.614 1380.38 355.637C1380.45 355.645 1382.3 354.794 1383.8 352.606Z" fill="#666666"/>
<path d="M1383.8 352.606C1385.44 350.206 1385.36 346.616 1385.03 345.552C1384.62 344.25 1383.72 342.132 1382.14 341.031L1373.79 348.721C1373.79 348.721 1380.21 355.614 1380.38 355.637C1380.45 355.645 1382.3 354.794 1383.8 352.606ZM1382.12 346.582C1382.12 346.582 1382.92 348.553 1381.9 350.087L1382.12 346.582Z" stroke="white" stroke-width="1.918" stroke-linecap="round" stroke-linejoin="round"/>
<path d="M1350.8 380.111L1341.59 381.751L1347.15 375.973" fill="#666666"/>
<path d="M1341.53 370.853L1353.25 381.876M1350.8 380.111L1341.59 381.751L1347.15 375.973L1350.8 380.111Z" stroke="white" stroke-width="1.918" stroke-linecap="round" stroke-linejoin="round"/>
</g>
<g clip-path="url(#clip9)">
<path d="M1854.66 807.023C1834.4 807.023 1835.67 815.809 1835.67 815.809L1835.69 824.911H1855.02V827.644H1828.01C1828.01 827.644 1815.05 826.173 1815.05 846.616C1815.05 867.059 1826.36 866.334 1826.36 866.334H1833.11V856.848C1833.11 856.848 1832.75 845.532 1844.25 845.532H1863.42C1863.42 845.532 1874.2 845.706 1874.2 835.12V817.615C1874.2 817.615 1875.83 807.023 1854.66 807.023ZM1844 813.143C1845.92 813.143 1847.48 814.698 1847.48 816.622C1847.48 818.545 1845.92 820.1 1844 820.1C1842.08 820.1 1840.52 818.545 1840.52 816.622C1840.52 814.698 1842.08 813.143 1844 813.143Z" fill="url(#paint4_linear)"/>
<path d="M1855.24 886.414C1875.5 886.414 1874.23 877.628 1874.23 877.628L1874.21 868.526H1854.88V865.793H1881.89C1881.89 865.793 1894.85 867.264 1894.85 846.821C1894.85 826.378 1883.54 827.103 1883.54 827.103H1876.78V836.589C1876.78 836.589 1877.15 847.905 1865.65 847.905H1846.47C1846.47 847.905 1835.7 847.731 1835.7 858.317V875.822C1835.7 875.822 1834.06 886.414 1855.24 886.414ZM1865.9 880.294C1863.97 880.294 1862.42 878.739 1862.42 876.815C1862.42 874.892 1863.97 873.337 1865.9 873.337C1867.82 873.337 1869.38 874.892 1869.38 876.815C1869.38 878.739 1867.82 880.294 1865.9 880.294Z" fill="url(#paint5_linear)"/>
</g>
<g clip-path="url(#clip10)">
<path d="M1646.8 466.585C1646.8 466.585 1642.67 468.984 1649.73 469.795C1658.29 470.771 1662.66 470.631 1672.08 468.847C1672.08 468.847 1674.56 470.401 1678.02 471.747C1656.89 480.802 1630.2 471.222 1646.8 466.585Z" fill="#5382A1"/>
<path d="M1644.22 454.768C1644.22 454.768 1639.59 458.193 1646.66 458.923C1655.79 459.866 1663.01 459.943 1675.49 457.539C1675.49 457.539 1677.22 459.29 1679.93 460.247C1654.39 467.717 1625.93 460.836 1644.22 454.768Z" fill="#5382A1"/>
<path d="M1665.98 434.723C1671.19 440.717 1664.61 446.111 1664.61 446.111C1664.61 446.111 1677.83 439.287 1671.76 430.741C1666.09 422.772 1661.74 418.813 1685.28 405.161C1685.28 405.161 1648.33 414.389 1665.98 434.723Z" fill="#E76F00"/>
<path d="M1693.93 475.326C1693.93 475.326 1696.98 477.84 1690.56 479.786C1678.37 483.481 1639.8 484.596 1629.09 479.933C1625.24 478.258 1632.46 475.933 1634.73 475.445C1637.1 474.931 1638.46 475.027 1638.46 475.027C1634.17 472.01 1610.78 480.951 1626.57 483.512C1669.65 490.498 1705.1 480.366 1693.93 475.326Z" fill="#5382A1"/>
<path d="M1648.78 442.525C1648.78 442.525 1629.17 447.184 1641.83 448.876C1647.18 449.592 1657.85 449.43 1667.78 448.598C1675.9 447.913 1684.05 446.457 1684.05 446.457C1684.05 446.457 1681.19 447.683 1679.12 449.097C1659.2 454.336 1620.72 451.899 1631.79 446.54C1641.16 442.011 1648.78 442.525 1648.78 442.525Z" fill="#5382A1"/>
<path d="M1683.97 462.194C1704.22 451.672 1694.86 441.56 1688.32 442.922C1686.72 443.256 1686.01 443.545 1686.01 443.545C1686.01 443.545 1686.6 442.613 1687.74 442.21C1700.67 437.665 1710.61 455.615 1683.56 462.725C1683.56 462.725 1683.88 462.445 1683.97 462.194Z" fill="#5382A1"/>
<path d="M1671.76 383.116C1671.76 383.116 1682.98 394.334 1661.13 411.585C1643.6 425.423 1657.13 433.313 1661.12 442.328C1650.89 433.099 1643.38 424.976 1648.42 417.415C1655.81 406.317 1676.29 400.936 1671.76 383.116Z" fill="#E76F00"/>
<path d="M1650.77 490.708C1670.21 491.952 1700.06 490.018 1700.76 480.821C1700.76 480.821 1699.4 484.307 1684.7 487.076C1668.11 490.198 1647.65 489.833 1635.51 487.833C1635.51 487.832 1638 489.889 1650.77 490.708Z" fill="#5382A1"/>
</g>
<g clip-path="url(#clip11)">
<path d="M1833.02 202.917L1832.73 203.778L1848.09 229.823L1848.96 230.438L1865 202.694L1848.96 174.839L1833.02 202.917Z" fill="#59666C"/>
<path d="M1800.71 147.095L1785 174.839L1801.32 202.917L1816.87 174.839L1816.82 173.704L1801.43 147.659L1800.71 147.095Z" fill="#59666C"/>
<path d="M1800.71 147.095L1816.87 174.839H1848.96L1832.69 147.095H1800.71Z" fill="#BCAE79"/>
<path d="M1801.32 202.917L1817.14 230.438H1848.96L1833.02 202.917H1801.32Z" fill="#BCAE79"/>
</g>
<path d="M1060.75 582.25L1050 518.375L1070 510.125L1082.63 517.625L1094.38 511.375L1118.63 520.75L1105 590L1060.75 582.25Z" fill="url(#paint6_linear)"/>
<path d="M1130 537.125L1119.63 511.625L1101 510L1072 537.75L1079.75 573.625L1094.38 583.75L1130 562.625L1121.25 546.25L1130 537.125Z" fill="url(#paint7_linear)"/>
<path d="M1114 533.25L1121.25 546.25L1130 537.125L1123.63 521.25L1114 533.25Z" fill="url(#paint8_linear)"/>
<path d="M1115 525H1065V575H1115V525Z" fill="black"/>
<path d="M1069.75 565.625H1088.5V568.75H1069.75V565.625ZM1094.25 549.25L1096.87 546C1098.75 547.5 1100.62 548.5 1103 548.5C1104.87 548.5 1106 547.75 1106 546.5C1106 545.375 1105.25 544.75 1101.87 543.875C1097.75 542.75 1095.12 541.625 1095.12 537.5V537.375C1095.12 533.625 1098.12 531.125 1102.25 531.125C1105.02 531.113 1107.7 532.039 1109.87 533.75L1107.5 537.25C1105.99 536.071 1104.16 535.374 1102.25 535.25C1100.62 535.25 1099.62 536 1099.62 537.125C1099.62 538.5 1100.5 539 1104 539.875C1108.12 541 1110.5 542.5 1110.5 546.125C1110.5 550.25 1107.37 552.625 1103 552.625C1099.79 552.507 1096.71 551.319 1094.25 549.25ZM1090.25 531.5L1087.12 543.5L1083.62 531.5H1080.12L1076.62 543.5L1073.5 531.5H1068.62L1074.63 552.25H1078.5L1081.87 540.25L1085.25 552.25H1089.12L1095.12 531.5H1090.25Z" fill="white"/>
<path d="M1359.25 901.375L1339.88 886.125L1349.5 868.25L1377.12 879L1359.25 901.375Z" fill="url(#paint9_linear)"/>
<path d="M1419 860.375L1417.5 906.625L1386.75 919L1368.25 907L1395.25 879L1383.5 853L1394.12 840.25L1419 860.375Z" fill="url(#paint10_linear)"/>
<path d="M1419 860.375L1394.63 889.125L1383.5 853L1394.12 840.25L1419 860.375Z" fill="url(#paint11_linear)"/>
<path d="M1377.5 905.375L1345.5 917L1350.63 899L1357.25 876.75L1339 870.625L1350.63 839L1375.62 842L1400.37 870.25L1377.5 905.375Z" fill="url(#paint12_linear)"/>
<path d="M1404 854H1354V904H1404V854Z" fill="black"/>
<path d="M1358.75 894.625H1377.5V897.75H1358.75V894.625ZM1372.12 864.25V860.5H1361.87V864.25H1364.75V877.375H1361.87V881.25H1372.12V877.375H1369.25V864.25H1372.12ZM1382.13 881.5C1380.7 881.564 1379.28 881.263 1378 880.625C1376.95 880.048 1376.02 879.286 1375.25 878.375L1378.12 875.125C1378.64 875.695 1379.23 876.199 1379.88 876.625C1380.48 876.98 1381.17 877.153 1381.88 877.125C1382.65 877.184 1383.4 876.856 1383.88 876.25C1384.45 875.504 1384.72 874.564 1384.63 873.625V860.25H1389.25V873.75C1389.3 874.856 1389.13 875.96 1388.75 877C1388.42 878.055 1387.82 879.004 1387 879.75C1385.58 880.802 1383.89 881.411 1382.13 881.5Z" fill="white"/>
<defs>
<linearGradient id="paint0_linear" x1="161.138" y1="356.38" x2="199.437" y2="315.635" gradientUnits="userSpaceOnUse">
<stop stop-color="#EC0B8E"/>
<stop offset="0.4006" stop-color="#EB0B8E"/>
<stop offset="0.7036" stop-color="#A11D8B"/>
<stop offset="1" stop-color="#5C2E88"/>
</linearGradient>
<radialGradient id="paint1_radial" cx="0" cy="0" r="1" gradientUnits="userSpaceOnUse" gradientTransform="translate(189.635 305.112) rotate(0.186258) scale(38.2931 38.2929)">
<stop stop-color="#EC0B8E"/>
<stop offset="0.1599" stop-color="#E80C8E"/>
<stop offset="0.3277" stop-color="#DB0F8D"/>
<stop offset="0.499" stop-color="#C6148C"/>
<stop offset="0.6729" stop-color="#A91B8B"/>
<stop offset="0.8469" stop-color="#83248A"/>
<stop offset="1" stop-color="#5C2E88"/>
</radialGradient>
<linearGradient id="paint2_linear" x1="170.497" y1="299.35" x2="187.555" y2="299.35" gradientUnits="userSpaceOnUse">
<stop stop-color="#EC0B8E"/>
<stop offset="0.3678" stop-color="#E10E8F"/>
<stop offset="0.9993" stop-color="#C41693"/>
</linearGradient>
<linearGradient id="paint3_linear" x1="984.844" y1="774" x2="984.844" y2="853.278" gradientUnits="userSpaceOnUse">
<stop stop-color="white"/>
<stop offset="1" stop-color="white" stop-opacity="0"/>
</linearGradient>
<linearGradient id="paint4_linear" x1="1822.71" y1="814.164" x2="1862.26" y2="853.319" gradientUnits="userSpaceOnUse">
<stop stop-color="#387EB8"/>
<stop offset="1" stop-color="#366994"/>
</linearGradient>
<linearGradient id="paint5_linear" x1="1846.99" y1="839.307" x2="1889.46" y2="879.457" gradientUnits="userSpaceOnUse">
<stop stop-color="#FFE052"/>
<stop offset="1" stop-color="#FFC331"/>
</linearGradient>
<linearGradient id="paint6_linear" x1="1078.62" y1="511.663" x2="1105.76" y2="583.772" gradientUnits="userSpaceOnUse">
<stop offset="0.28" stop-color="#00CDD7"/>
<stop offset="0.94" stop-color="#2086D7"/>
</linearGradient>
<linearGradient id="paint7_linear" x1="1085.04" y1="521.156" x2="1129.82" y2="561.761" gradientUnits="userSpaceOnUse">
<stop offset="0.14" stop-color="#FFF045"/>
<stop offset="0.37" stop-color="#00CDD7"/>
</linearGradient>
<linearGradient id="paint8_linear" x1="2901.36" y1="-6401.7" x2="3097.71" y2="-6584.02" gradientUnits="userSpaceOnUse">
<stop offset="0.28" stop-color="#00CDD7"/>
<stop offset="0.94" stop-color="#2086D7"/>
</linearGradient>
<linearGradient id="paint9_linear" x1="1339.88" y1="884.813" x2="1377.05" y2="884.813" gradientUnits="userSpaceOnUse">
<stop offset="0.26" stop-color="#F97A12"/>
<stop offset="0.46" stop-color="#B07B58"/>
<stop offset="0.72" stop-color="#577BAE"/>
<stop offset="0.91" stop-color="#1E7CE5"/>
<stop offset="1" stop-color="#087CFA"/>
</linearGradient>
<linearGradient id="paint10_linear" x1="1368.42" y1="867.45" x2="1434.08" y2="882.534" gradientUnits="userSpaceOnUse">
<stop stop-color="#F97A12"/>
<stop offset="0.07" stop-color="#CB7A3E"/>
<stop offset="0.15" stop-color="#9E7B6A"/>
<stop offset="0.24" stop-color="#757B91"/>
<stop offset="0.33" stop-color="#537BB1"/>
<stop offset="0.43" stop-color="#387CCC"/>
<stop offset="0.54" stop-color="#237CE0"/>
<stop offset="0.66" stop-color="#147CEF"/>
<stop offset="0.79" stop-color="#0B7CF7"/>
<stop offset="1" stop-color="#087CFA"/>
</linearGradient>
<linearGradient id="paint11_linear" x1="1411.25" y1="888.025" x2="1383.29" y2="843.922" gradientUnits="userSpaceOnUse">
<stop stop-color="#FE315D"/>
<stop offset="0.08" stop-color="#CB417E"/>
<stop offset="0.16" stop-color="#9E4E9B"/>
<stop offset="0.25" stop-color="#755BB4"/>
<stop offset="0.34" stop-color="#5365CA"/>
<stop offset="0.44" stop-color="#386DDB"/>
<stop offset="0.54" stop-color="#2374E9"/>
<stop offset="0.66" stop-color="#1478F3"/>
<stop offset="0.79" stop-color="#0B7BF8"/>
<stop offset="1" stop-color="#087CFA"/>
</linearGradient>
<linearGradient id="paint12_linear" x1="1351.28" y1="857.787" x2="1418.6" y2="926.745" gradientUnits="userSpaceOnUse">
<stop stop-color="#FE315D"/>
<stop offset="0.04" stop-color="#F63462"/>
<stop offset="0.1" stop-color="#DF3A71"/>
<stop offset="0.17" stop-color="#C24383"/>
<stop offset="0.29" stop-color="#AD4A91"/>
<stop offset="0.55" stop-color="#755BB4"/>
<stop offset="0.92" stop-color="#1D76ED"/>
<stop offset="1" stop-color="#087CFA"/>
</linearGradient>
<clipPath id="clip0">
<rect width="80" height="90.625" fill="white" transform="translate(392 50)"/>
</clipPath>
<clipPath id="clip1">
<rect width="80" height="112.812" fill="white" transform="translate(280 480)"/>
</clipPath>
<clipPath id="clip2">
<rect width="80" height="40.9375" fill="white" transform="translate(840 261)"/>
</clipPath>
<clipPath id="clip3">
<rect width="80" height="112.812" fill="white" transform="translate(494 233)"/>
</clipPath>
<clipPath id="clip4">
<rect width="80" height="57.8125" fill="white" transform="translate(1473 147)"/>
</clipPath>
<clipPath id="clip5">
<rect width="80" height="80" fill="white" transform="translate(1289 629)"/>
</clipPath>
<clipPath id="clip6">
<rect width="80" height="79.375" fill="white" transform="translate(945 774)"/>
</clipPath>
<clipPath id="clip7">
<rect width="80" height="82.5" fill="white" transform="translate(1603 669)"/>
</clipPath>
<clipPath id="clip8">
<rect width="80" height="82.5" fill="white" transform="translate(1318 326)"/>
</clipPath>
<clipPath id="clip9">
<rect width="80" height="79.6875" fill="white" transform="translate(1815 807)"/>
</clipPath>
<clipPath id="clip10">
<rect width="80" height="108.125" fill="white" transform="translate(1621 383)"/>
</clipPath>
<clipPath id="clip11">
<rect width="80" height="83.4375" fill="white" transform="translate(1785 147)"/>
</clipPath>
</defs>
</svg>
